<svg width="451" height="494" viewBox="0 0 451 494" fill="none" xmlns="http://www.w3.org/2000/svg">
<path d="M212.418 0.568879C219.543 -0.224121 227.62 -0.0331132 234.78 0.220887C332.809 3.68889 421.936 75.3489 444.451 171.294C446.873 181.748 448.526 192.366 449.398 203.061C450.912 223.346 449.477 247.12 449.875 267.736C450.15 281.982 450.124 297.651 449.694 311.913C449.246 316.98 447.724 322.148 445.062 326.501C436.125 341.112 408.662 338.416 393.597 338.394L352.057 338.322L306.804 338.457C272.676 338.571 261.442 339.563 232.104 320.382L225.692 315.942C215.664 343.714 192.11 338.55 167.553 338.439L117.864 338.437L62.4572 338.529C48.7672 338.601 22.2072 341.064 10.7562 332.754C-1.50685 323.855 0.00614537 303.991 0.113145 290.174C0.226145 279.492 0.26515 268.81 0.23015 258.128C0.18615 241.689 -0.393838 221.464 0.874162 205.36C4.51016 160.007 22.3122 116.947 51.7612 82.2699C94.5102 31.4329 146.856 6.19588 212.418 0.568879ZM219.118 311.378C198.004 293.457 172.474 269.483 168.599 240.6C165.877 220.311 186.377 220.833 197.341 232.389C216.452 252.531 226.727 277.1 227.517 304.833C227.549 305.826 227.569 306.819 227.576 307.813L234.347 312.835C232.3 301.5 234.311 294.681 241.222 284.695C256.429 262.747 285.423 245.985 284.444 216.064C284.393 214.511 282.853 211.778 281.528 211.051C267.321 203.256 244.918 223.639 237.666 233.436C268.007 272.99 214.124 275.799 223.395 245.569C224.536 241.829 226.277 238.3 228.55 235.118C218.777 218.282 218.467 200.355 203.646 186.608C190.048 192.015 176.668 195.387 162.853 188.511C156.568 185.384 138.514 176.499 140.859 168.127C143.656 164.458 151.848 163.218 156.338 162.652C183.969 159.171 203.36 172.92 218.688 193.674C219.478 182.353 221.161 171.028 224.65 160.198C219.83 150.332 216.949 142.761 205.931 138.981C204.935 138.641 203.935 138.313 202.931 137.996C189.076 132.669 180.19 122.165 174.193 108.963C169.581 98.2089 173.775 93.3809 184.52 98.7339C192.663 102.791 205.679 111.024 209.576 119.421C215.395 131.96 219.465 139.54 228.171 150.617C233.448 140.09 237.353 130.355 242.034 119.69C245.233 112.401 272.905 87.7599 279.348 98.9179C279.904 105.991 272.429 119.965 267.651 125.331C259.698 134.265 252.692 137.041 242.036 141.171C229.084 159.396 226.042 183.627 226.2 205.511C235.643 186.204 245.958 173.686 266.957 165.543C274.617 162.573 305.95 159.362 310.65 168.017C312.158 176.857 287.141 190.755 279.475 191.502C268.073 192.613 257.621 190.489 247.089 186.618C240.571 194.172 234.185 201.949 232.071 211.992C231.286 215.725 229.565 222.488 231.264 226.045L232.391 226.434C234.991 224.8 238.377 221.587 240.625 219.303C248.996 210.794 255.76 206.571 267.036 202.772C286.07 196.358 295.443 210.717 291.351 228.33C288.911 238.828 281.878 249.273 275.356 257.795C265.552 270.605 232.018 296.165 242.725 314.689C253.526 333.375 293.903 330.696 312.634 330.653L362.978 330.532L399.777 330.687C430.631 330.799 443.827 332.553 442.183 295.397C440.881 265.974 443.497 235.144 441.669 205.652C439.268 170.468 427.824 136.501 408.444 107.041C376.217 57.9909 325.767 23.8199 268.269 12.0989C253.766 9.09688 233.831 6.95488 219.001 7.77788C156.667 11.2659 105.993 34.1019 63.4142 80.6139C31.1972 115.809 11.4942 161.247 8.33815 208.779C7.38815 223.091 8.21416 241.073 8.08016 255.844C8.22816 272.917 7.84915 290.293 8.01015 307.33C8.05915 312.468 10.3912 323.017 14.6762 325.924C25.7142 333.411 50.2372 330.933 62.6642 330.834L112.305 330.806L170.262 330.729C179.368 330.711 188.679 331.02 197.748 330.615C209.788 330.076 215.926 322.047 219.118 311.378ZM158.944 169.873C156.061 170.336 153.177 170.753 150.332 171.412C159.779 179.922 168.606 185.259 181.922 184.589C184.231 184.475 186.533 184.243 188.818 183.895L196.915 181.443C185.869 172.989 173.141 167.913 158.944 169.873ZM246.356 131.255C255.125 127.065 267.882 117.356 269.113 107.07L268.579 106.244C260.822 110.21 246.67 121.225 245.878 130.54L246.356 131.255ZM299.983 171.211C294.543 170.254 287.405 169.14 281.954 169.865C270.476 171.4 263.296 173.781 254.324 181.313C261.979 183.913 265.298 184.536 273.455 184.586C285.207 183.181 291.599 179.594 299.983 171.211ZM182.223 106.452C187.91 118.468 194.104 128.062 207.687 131.691C202.986 122.069 195.524 110.884 184.889 107.266C184.008 106.97 183.119 106.699 182.223 106.452ZM236.501 259.233C240.162 252.896 240.18 244.781 232.917 241.183C230.886 248 226.744 257.269 236.501 259.233ZM178.335 231.722C169.515 253.841 203.583 287.738 218.486 300.849C220.023 298.859 219.712 294.406 219.343 291.946C216.555 273.377 199.519 233.747 178.335 231.722Z" fill="#FEFEFE"/>
<path d="M224.559 50.6859C232.277 53.8999 236.033 66.2199 237.869 73.3069C242.437 90.9439 236.67 102.574 230.232 117.974C228.261 122.687 232.734 126.942 227.817 134.877C217.227 133.24 224.315 120.796 220.819 114.096C216.461 105.743 213.295 101.349 212.32 91.6099C210.833 76.8869 215.233 62.1739 224.559 50.6859ZM226.713 107.751C231.247 96.4249 235.273 72.6409 225.214 63.3849C220.46 75.3619 215.438 97.9799 226.713 107.751Z" fill="#FEFEFE"/>
<path d="M292.525 121.087C304.474 119.896 304.286 125.309 298.809 134C287.649 151.707 275.396 158.345 255.355 162.739C240.365 164.56 244.966 154.454 250.462 146.427C260.895 131.189 274.767 124.137 292.525 121.087ZM257.397 154.626C271.853 151.112 284.965 144.508 291.323 130.002C290.194 129.364 290.772 129.477 289.554 129.552C277.175 132.503 260.118 141.018 255.578 153.85C256.472 154.844 255.911 154.537 257.397 154.626Z" fill="#FEFEFE"/>
<path d="M150.003 120.909C175.45 120.312 197.136 132.733 206.451 156.606C207.541 159.4 207.223 160.506 206.012 163.133C184.811 165.654 161.741 149.425 151.979 131.24C150.389 128.277 148.856 124.2 150.003 120.909ZM197.369 155.271C189.158 139.481 178.12 131.508 160.208 129.048C166.551 142.982 182.157 153.824 197.369 155.271Z" fill="#FEFEFE"/>
<path d="M88.9 403.8C88.9 406.667 89.0333 409.467 89.3 412.2C89.6333 414.867 90.1333 418.633 90.8 423.5C92.0667 431.7 92.7 438.233 92.7 443.1C92.7 444.1 92.5 444.7 92.1 444.9C91.7 445.1 91.2333 445.2 90.7 445.2C90.1667 445.2 89.8 445.2 89.6 445.2C88.6667 445.2 87.9333 445.1 87.4 444.9C86.8667 444.633 86.4333 444.033 86.1 443.1L84 415.9C83.8 413.167 83.5333 407.667 83.2 399.4C80.3333 402.733 77.5 405.267 74.7 407C71.9 408.667 69.0333 409.5 66.1 409.5C61.9 409.5 57.7 406.533 53.5 400.6C53.7 401.6 53.8 402.933 53.8 404.6C53.8 406.267 53.8 407.233 53.8 407.5L53.7 440.2C53.7 440.867 53.3333 441.4 52.6 441.8C51.9333 442.133 51.2333 442.3 50.5 442.3C49.5667 442.3 48.9 441.967 48.5 441.3C48.1667 440.567 47.9 439.6 47.7 438.4V424.4C47.7 422.267 47.7667 419.867 47.9 417.2C48.0333 414.533 48.1333 412.667 48.2 411.6C48.5333 406.933 48.7 402.7 48.7 398.9C48.7 397.767 48.5 396.7 48.1 395.7C47.7 394.633 47.1 393.467 46.3 392.2C45.5 390.933 44.9 389.833 44.5 388.9C44.1667 387.967 44 386.967 44 385.9C44 384.633 44.6333 384 45.9 384C47.9 384 49.5333 384.733 50.8 386.2C52.0667 387.6 53.4333 389.733 54.9 392.6C56.1667 394.933 57.2667 396.767 58.2 398.1C59.1333 399.433 60.3333 400.6 61.8 401.6C63.2667 402.533 65.0333 403 67.1 403C70.1 403.133 72.5667 402.567 74.5 401.3C76.4333 399.967 77.9 398.367 78.9 396.5C79.9 394.633 80.8667 392.367 81.8 389.7C82.6 387.5 83.3 385.967 83.9 385.1C84.5 384.167 85.2333 383.8 86.1 384C88.1 383.867 89.1 385.7 89.1 389.5C89.1 392.7 89.0667 395.067 89 396.6L88.9 403.8ZM128.442 445C121.509 445 115.476 443.8 110.342 441.4C105.276 438.933 102.742 434.633 102.742 428.5C102.742 426.3 103.409 424.167 104.742 422.1C106.076 420.033 108.042 418.367 110.642 417.1C113.242 415.767 116.409 415.1 120.142 415.1C123.009 415.1 125.442 415.233 127.442 415.5C129.442 415.767 131.742 416.5 134.342 417.7C136.942 418.9 139.642 420.8 142.442 423.4C141.376 418.8 139.776 414.767 137.642 411.3C135.509 407.833 133.109 405.167 130.442 403.3C127.842 401.367 125.276 400.4 122.742 400.4C121.542 400.4 120.409 400.633 119.342 401.1C118.342 401.5 117.109 402.1 115.642 402.9C113.976 403.967 112.742 404.5 111.942 404.5C111.609 404.5 111.309 404.4 111.042 404.2C110.842 403.933 110.742 403.633 110.742 403.3C110.742 400.633 111.909 398.567 114.242 397.1C116.642 395.633 119.542 394.967 122.942 395.1C127.609 395.367 131.876 397.367 135.742 401.1C139.609 404.767 142.642 409.333 144.842 414.8C147.109 420.267 148.242 425.633 148.242 430.9C148.242 431.767 148.176 433 148.042 434.6L144.842 434.4C142.309 429.267 139.042 425.633 135.042 423.5C131.109 421.3 127.142 420.2 123.142 420.2C118.009 420.2 114.342 420.967 112.142 422.5C109.942 424.033 108.842 426.267 108.842 429.2C108.842 432.267 110.376 434.733 113.442 436.6C116.509 438.467 120.442 439.4 125.242 439.4C127.909 439.4 130.042 439.267 131.642 439C133.242 438.667 134.909 438.233 136.642 437.7C138.042 437.233 139.276 436.9 140.342 436.7C141.409 436.5 142.776 436.4 144.442 436.4C146.309 436.4 147.476 436.533 147.942 436.8C148.476 437.067 148.742 437.667 148.742 438.6C148.742 439.267 147.376 440.1 144.642 441.1C141.909 442.1 138.842 443 135.442 443.8C132.042 444.6 129.709 445 128.442 445ZM163.446 445.1C161.913 445.1 160.679 442.867 159.746 438.4C158.813 433.867 158.213 429.967 157.946 426.7C157.679 423.433 157.313 418.267 156.846 411.2C156.779 410.067 156.746 408.6 156.746 406.8C156.746 404.533 156.913 402.967 157.246 402.1C157.646 401.233 158.279 400.8 159.146 400.8C159.879 400.8 160.446 400.967 160.846 401.3C161.313 401.567 161.713 402.033 162.046 402.7L161.946 406.7C161.946 410.967 162.146 415 162.546 418.8C163.013 422.6 163.713 427.7 164.646 434.1C165.179 436.9 165.546 439.2 165.746 441C165.879 441.933 165.713 442.867 165.246 443.8C164.779 444.667 164.179 445.1 163.446 445.1ZM160.946 390.1C159.479 390.1 158.379 389.533 157.646 388.4C156.979 387.267 156.646 385.867 156.646 384.2C156.646 383.467 156.679 382.933 156.746 382.6C156.679 381.533 157.279 381 158.546 381C159.479 381 160.413 381.233 161.346 381.7C162.346 382.1 162.646 382.4 162.246 382.6C162.913 384.333 163.246 385.7 163.246 386.7C163.246 387.567 163.046 388.267 162.646 388.8C162.246 389.267 161.679 389.7 160.946 390.1ZM200.415 445C193.482 445 187.448 443.8 182.315 441.4C177.248 438.933 174.715 434.633 174.715 428.5C174.715 426.3 175.382 424.167 176.715 422.1C178.048 420.033 180.015 418.367 182.615 417.1C185.215 415.767 188.382 415.1 192.115 415.1C194.982 415.1 197.415 415.233 199.415 415.5C201.415 415.767 203.715 416.5 206.315 417.7C208.915 418.9 211.615 420.8 214.415 423.4C213.348 418.8 211.748 414.767 209.615 411.3C207.482 407.833 205.082 405.167 202.415 403.3C199.815 401.367 197.248 400.4 194.715 400.4C193.515 400.4 192.382 400.633 191.315 401.1C190.315 401.5 189.082 402.1 187.615 402.9C185.948 403.967 184.715 404.5 183.915 404.5C183.582 404.5 183.282 404.4 183.015 404.2C182.815 403.933 182.715 403.633 182.715 403.3C182.715 400.633 183.882 398.567 186.215 397.1C188.615 395.633 191.515 394.967 194.915 395.1C199.582 395.367 203.848 397.367 207.715 401.1C211.582 404.767 214.615 409.333 216.815 414.8C219.082 420.267 220.215 425.633 220.215 430.9C220.215 431.767 220.148 433 220.015 434.6L216.815 434.4C214.282 429.267 211.015 425.633 207.015 423.5C203.082 421.3 199.115 420.2 195.115 420.2C189.982 420.2 186.315 420.967 184.115 422.5C181.915 424.033 180.815 426.267 180.815 429.2C180.815 432.267 182.348 434.733 185.415 436.6C188.482 438.467 192.415 439.4 197.215 439.4C199.882 439.4 202.015 439.267 203.615 439C205.215 438.667 206.882 438.233 208.615 437.7C210.015 437.233 211.248 436.9 212.315 436.7C213.382 436.5 214.748 436.4 216.415 436.4C218.282 436.4 219.448 436.533 219.915 436.8C220.448 437.067 220.715 437.667 220.715 438.6C220.715 439.267 219.348 440.1 216.615 441.1C213.882 442.1 210.815 443 207.415 443.8C204.015 444.6 201.682 445 200.415 445ZM276.519 446.1C271.919 446.1 267.985 444.833 264.719 442.3C261.452 439.767 258.952 436.3 257.219 431.9C255.552 427.5 254.719 422.5 254.719 416.9C254.719 410.633 256.185 404.7 259.119 399.1C262.052 393.433 265.885 388.9 270.619 385.5C275.419 382.033 280.385 380.3 285.519 380.3C289.852 380.3 293.185 381.267 295.519 383.2C297.852 385.133 299.019 387.4 299.019 390C299.019 391.533 298.552 392.933 297.619 394.2C296.752 395.467 295.485 396.433 293.819 397.1C293.619 396.7 293.519 396.067 293.519 395.2C293.519 394.4 293.619 393.6 293.819 392.8C293.952 391.733 294.019 390.967 294.019 390.5C294.019 389.833 293.919 389.267 293.719 388.8C292.785 386.467 290.252 385.3 286.119 385.3C284.985 385.3 283.652 385.4 282.119 385.6C278.585 386.067 275.085 387.833 271.619 390.9C268.152 393.9 265.319 397.667 263.119 402.2C260.919 406.733 259.819 411.367 259.819 416.1C259.819 420.233 260.485 424.167 261.819 427.9C263.219 431.567 265.219 434.533 267.819 436.8C270.419 439.067 273.519 440.2 277.119 440.2C281.785 440.2 285.652 439.633 288.719 438.5C291.852 437.367 294.919 435.633 297.919 433.3C298.252 433.033 298.619 432.9 299.019 432.9C299.752 432.9 300.252 433.333 300.519 434.2C300.852 435.8 299.785 437.533 297.319 439.4C294.852 441.267 291.652 442.867 287.719 444.2C283.785 445.467 280.052 446.1 276.519 446.1ZM315.302 445.1C313.768 445.1 312.535 442.867 311.602 438.4C310.668 433.867 310.068 429.967 309.802 426.7C309.535 423.433 309.168 418.267 308.702 411.2C308.635 410.067 308.602 408.6 308.602 406.8C308.602 404.533 308.768 402.967 309.102 402.1C309.502 401.233 310.135 400.8 311.002 400.8C311.735 400.8 312.302 400.967 312.702 401.3C313.168 401.567 313.568 402.033 313.902 402.7L313.802 406.7C313.802 410.967 314.002 415 314.402 418.8C314.868 422.6 315.568 427.7 316.502 434.1C317.035 436.9 317.402 439.2 317.602 441C317.735 441.933 317.568 442.867 317.102 443.8C316.635 444.667 316.035 445.1 315.302 445.1ZM312.802 390.1C311.335 390.1 310.235 389.533 309.502 388.4C308.835 387.267 308.502 385.867 308.502 384.2C308.502 383.467 308.535 382.933 308.602 382.6C308.535 381.533 309.135 381 310.402 381C311.335 381 312.268 381.233 313.202 381.7C314.202 382.1 314.502 382.4 314.102 382.6C314.768 384.333 315.102 385.7 315.102 386.7C315.102 387.567 314.902 388.267 314.502 388.8C314.102 389.267 313.535 389.7 312.802 390.1ZM342.67 445C342.004 445.133 341.57 445.2 341.37 445.2C339.304 445.2 337.87 443.667 337.07 440.6C336.337 437.533 335.97 433.233 335.97 427.7C335.97 425.433 336.037 421.9 336.17 417.1C336.304 414.167 336.37 411.967 336.37 410.5C328.17 410.5 324.07 409.567 324.07 407.7C324.07 407.1 324.137 406.633 324.27 406.3C324.47 405.967 324.87 405.8 325.47 405.8L336.37 405.1C336.304 401.833 336.137 398.267 335.87 394.4C335.604 390.933 335.437 387.733 335.37 384.8C335.37 384.067 335.67 383.567 336.27 383.3C336.87 382.967 337.504 382.8 338.17 382.8C338.97 382.8 339.637 383.233 340.17 384.1C340.704 384.9 340.97 385.733 340.97 386.6L341.67 404.9L349.97 405.3C351.237 405.167 352.304 405.4 353.17 406C354.104 406.6 354.604 407.6 354.67 409C353.27 409.6 351.737 409.967 350.07 410.1C348.404 410.233 345.604 410.3 341.67 410.3C341.67 416.5 341.97 426.7 342.57 440.9C342.57 442.367 342.57 443.4 342.57 444C342.637 444.533 342.67 444.867 342.67 445ZM387.564 492.3C383.031 492.3 378.964 491.333 375.364 489.4C371.831 487.467 368.997 485.233 366.864 482.7C364.731 480.167 363.531 478.1 363.264 476.5C362.997 475.033 363.331 473.9 364.264 473.1C365.264 472.3 366.497 471.967 367.964 472.1C370.031 477.033 372.497 480.833 375.364 483.5C378.231 486.167 382.331 487.567 387.664 487.7C391.397 487.767 394.364 485.367 396.564 480.5C398.831 475.7 400.431 469.8 401.364 462.8C402.297 455.867 402.764 449.033 402.764 442.3C402.764 438.833 402.664 436 402.464 433.8C397.397 440 390.931 443.1 383.064 443.1C376.264 443.1 371.031 439.867 367.364 433.4C363.764 426.933 361.431 419.633 360.364 411.5C360.231 410.7 360.164 409.567 360.164 408.1C360.164 403.9 361.531 401.8 364.264 401.8C364.531 401.8 364.897 403.467 365.364 406.8C366.097 412.067 366.997 416.8 368.064 421C369.131 425.2 370.897 429.033 373.364 432.5C375.897 435.9 379.231 437.6 383.364 437.6C386.631 437.6 389.964 436.533 393.364 434.4C396.831 432.2 399.331 429.767 400.864 427.1C400.864 422.033 400.197 417.5 398.864 413.5C397.597 409.433 396.931 407.267 396.864 407C396.731 405.533 396.664 404.6 396.664 404.2C396.664 402.867 396.864 401.9 397.264 401.3C397.731 400.7 398.397 400.4 399.264 400.4C400.197 400.4 401.264 402.3 402.464 406.1C403.664 409.9 404.731 414.867 405.664 421C406.597 427.133 407.231 433.533 407.564 440.2C407.697 443.667 407.764 446.233 407.764 447.9C407.764 460.7 406.164 471.3 402.964 479.7C399.831 488.1 394.697 492.3 387.564 492.3Z" fill="white"/>
</svg>
