<svg width="451" height="462" viewBox="0 0 451 462" fill="none" xmlns="http://www.w3.org/2000/svg">
<path d="M212.418 0.568879C219.543 -0.224121 227.62 -0.0331132 234.78 0.220887C332.809 3.68889 421.936 75.3489 444.451 171.294C446.873 181.748 448.526 192.366 449.398 203.061C450.912 223.346 449.477 247.12 449.875 267.736C450.15 281.982 450.124 297.651 449.694 311.913C449.246 316.98 447.724 322.148 445.062 326.501C436.125 341.112 408.662 338.416 393.597 338.394L352.057 338.322L306.804 338.457C272.676 338.571 261.442 339.563 232.104 320.382L225.692 315.942C215.664 343.714 192.11 338.55 167.553 338.439L117.864 338.437L62.4572 338.529C48.7672 338.601 22.2072 341.064 10.7562 332.754C-1.50685 323.855 0.00614537 303.991 0.113145 290.174C0.226145 279.492 0.26515 268.81 0.23015 258.128C0.18615 241.689 -0.393838 221.464 0.874162 205.36C4.51016 160.007 22.3122 116.947 51.7612 82.2699C94.5102 31.4329 146.856 6.19588 212.418 0.568879ZM219.118 311.378C198.004 293.457 172.474 269.483 168.599 240.6C165.877 220.311 186.377 220.833 197.341 232.389C216.452 252.531 226.727 277.1 227.517 304.833C227.549 305.826 227.569 306.819 227.576 307.813L234.347 312.835C232.3 301.5 234.311 294.681 241.222 284.695C256.429 262.747 285.423 245.985 284.444 216.064C284.393 214.511 282.853 211.778 281.528 211.051C267.321 203.256 244.918 223.639 237.666 233.436C268.007 272.99 214.124 275.799 223.395 245.569C224.536 241.829 226.277 238.3 228.55 235.118C218.777 218.282 218.467 200.355 203.646 186.608C190.048 192.015 176.668 195.387 162.853 188.511C156.568 185.384 138.514 176.499 140.859 168.127C143.656 164.458 151.848 163.218 156.338 162.652C183.969 159.171 203.36 172.92 218.688 193.674C219.478 182.353 221.161 171.028 224.65 160.198C219.83 150.332 216.949 142.761 205.931 138.981C204.935 138.641 203.935 138.313 202.931 137.996C189.076 132.669 180.19 122.165 174.193 108.963C169.581 98.2089 173.775 93.3809 184.52 98.7339C192.663 102.791 205.679 111.024 209.576 119.421C215.395 131.96 219.465 139.54 228.171 150.617C233.448 140.09 237.353 130.355 242.034 119.69C245.233 112.401 272.905 87.7599 279.348 98.9179C279.904 105.991 272.429 119.965 267.651 125.331C259.698 134.265 252.692 137.041 242.036 141.171C229.084 159.396 226.042 183.627 226.2 205.511C235.643 186.204 245.958 173.686 266.957 165.543C274.617 162.573 305.95 159.362 310.65 168.017C312.158 176.857 287.141 190.755 279.475 191.502C268.073 192.613 257.621 190.489 247.089 186.618C240.571 194.172 234.185 201.949 232.071 211.992C231.286 215.725 229.565 222.488 231.264 226.045L232.391 226.434C234.991 224.8 238.377 221.587 240.625 219.303C248.996 210.794 255.76 206.571 267.036 202.772C286.07 196.358 295.443 210.717 291.351 228.33C288.911 238.828 281.878 249.273 275.356 257.795C265.552 270.605 232.018 296.165 242.725 314.689C253.526 333.375 293.903 330.696 312.634 330.653L362.978 330.532L399.777 330.687C430.631 330.799 443.827 332.553 442.183 295.397C440.881 265.974 443.497 235.144 441.669 205.652C439.268 170.468 427.824 136.501 408.444 107.041C376.217 57.9909 325.767 23.8199 268.269 12.0989C253.766 9.09688 233.831 6.95488 219.001 7.77788C156.667 11.2659 105.993 34.1019 63.4142 80.6139C31.1972 115.809 11.4942 161.247 8.33815 208.779C7.38815 223.091 8.21416 241.073 8.08016 255.844C8.22816 272.917 7.84915 290.293 8.01015 307.33C8.05915 312.468 10.3912 323.017 14.6762 325.924C25.7142 333.411 50.2372 330.933 62.6642 330.834L112.305 330.806L170.262 330.729C179.368 330.711 188.679 331.02 197.748 330.615C209.788 330.076 215.926 322.047 219.118 311.378ZM158.944 169.873C156.061 170.336 153.177 170.753 150.332 171.412C159.779 179.922 168.606 185.259 181.922 184.589C184.231 184.475 186.533 184.243 188.818 183.895L196.915 181.443C185.869 172.989 173.141 167.913 158.944 169.873ZM246.356 131.255C255.125 127.065 267.882 117.356 269.113 107.07L268.579 106.244C260.822 110.21 246.67 121.225 245.878 130.54L246.356 131.255ZM299.983 171.211C294.543 170.254 287.405 169.14 281.954 169.865C270.476 171.4 263.296 173.781 254.324 181.313C261.979 183.913 265.298 184.536 273.455 184.586C285.207 183.181 291.599 179.594 299.983 171.211ZM182.223 106.452C187.91 118.468 194.104 128.062 207.687 131.691C202.986 122.069 195.524 110.884 184.889 107.266C184.008 106.97 183.119 106.699 182.223 106.452ZM236.501 259.233C240.162 252.896 240.18 244.781 232.917 241.183C230.886 248 226.744 257.269 236.501 259.233ZM178.335 231.722C169.515 253.841 203.583 287.738 218.486 300.849C220.023 298.859 219.712 294.406 219.343 291.946C216.555 273.377 199.519 233.747 178.335 231.722Z" fill="#040924"/>
<path d="M224.559 50.6859C232.277 53.8999 236.033 66.2199 237.869 73.3069C242.437 90.9439 236.67 102.574 230.232 117.974C228.261 122.687 232.734 126.942 227.817 134.877C217.227 133.24 224.315 120.796 220.819 114.096C216.461 105.743 213.295 101.349 212.32 91.6099C210.833 76.8869 215.233 62.1739 224.559 50.6859ZM226.713 107.751C231.247 96.4249 235.273 72.6409 225.214 63.3849C220.46 75.3619 215.438 97.9799 226.713 107.751Z" fill="#040924"/>
<path d="M292.525 121.087C304.474 119.896 304.286 125.309 298.809 134C287.649 151.707 275.396 158.345 255.355 162.739C240.365 164.56 244.966 154.454 250.462 146.427C260.895 131.189 274.767 124.137 292.525 121.087ZM257.397 154.626C271.853 151.112 284.965 144.508 291.323 130.002C290.194 129.364 290.772 129.477 289.554 129.552C277.175 132.503 260.118 141.018 255.578 153.85C256.472 154.844 255.911 154.537 257.397 154.626Z" fill="#040924"/>
<path d="M150.003 120.909C175.45 120.312 197.136 132.733 206.451 156.606C207.541 159.4 207.223 160.506 206.012 163.133C184.811 165.654 161.741 149.425 151.979 131.24C150.389 128.277 148.856 124.2 150.003 120.909ZM197.369 155.271C189.158 139.481 178.12 131.508 160.208 129.048C166.551 142.982 182.157 153.824 197.369 155.271Z" fill="#040924"/>
<path d="M72.6231 377.027L80.0111 377.342C80.2181 399.478 80.2211 421.616 80.0201 443.752L71.1301 443.969C71.0801 427.462 71.1151 410.955 71.2361 394.449C67.6551 400.736 51.6712 431.558 47.3452 434.565C46.3882 435.229 45.2542 435.499 44.1292 435.238C38.5562 433.941 21.8752 401.092 18.7032 395.457L18.8351 402.951C19.0491 416.512 18.9521 430.329 18.9891 443.91L9.61615 443.965C10.0181 422.081 9.75215 399.359 9.79315 377.409L17.9612 377.402C26.1272 389.381 37.6791 411.07 45.2121 424.191C51.6161 411.404 65.0471 388.344 72.6231 377.027Z" fill="#040924"/>
<path d="M111.561 393.484C146.978 391.447 139.955 415.733 139.487 443.312C136.859 443.416 133.523 443.761 131.097 443.026C130.73 441.911 130.47 441.156 130.011 440.06C126.032 440.268 118.236 444.86 112.831 444.5C106.914 444.106 103.322 441.187 99.3592 437.147C86.0532 414.339 116.817 415.08 130.361 414.178C130.148 411.837 129.883 408.559 128.802 406.482C127.517 404.051 125.286 402.259 122.635 401.529C116.086 399.683 107.694 403.257 102.049 406.273L98.1422 399.247C103.223 396.015 105.721 394.885 111.561 393.484ZM118.774 436.587C124.678 435.17 125.856 434.44 130.456 430.444L130.453 421.593L118.183 421.628C101.313 422.971 102.191 436.11 118.774 436.587Z" fill="#040924"/>
<path d="M200.718 392.99C201.7 392.955 202.683 392.94 203.667 392.946C229.776 393.164 224.478 425.467 223.82 443.32C221.034 443.242 218.244 443.342 215.608 442.491C215.144 441.303 214.865 440.64 214.295 439.505C209.84 440.055 203.367 446.211 195.371 444.307C189.392 442.882 185.792 439.49 182.471 434.516C175.875 412.597 201.411 414.362 215.24 414.622C215.054 413.513 214.855 412.407 214.641 411.303C213.585 405.927 212.285 404.472 207.868 401.515C198.881 400.081 194.739 401.695 186.862 406.02C185.363 403.884 184.116 401.59 182.822 399.322C189.487 394.738 192.68 393.839 200.718 392.99ZM205.635 436.159C209.687 434.49 211.053 433.644 214.664 431.089C214.762 427.891 214.931 424.695 215.17 421.504C211.313 421.482 204.907 421.282 201.293 421.591C183.979 423.43 189.429 438.601 205.635 436.159Z" fill="#040924"/>
<path d="M295.569 376.506C307.581 376.23 314.259 378.7 323.461 386.316C321.772 388.462 320.151 390.525 318.37 392.6C309.592 385.707 298.425 382.648 287.831 387.179C281.964 389.622 277.321 394.316 274.942 400.21C266.277 422.014 287.439 443.401 311.156 432.726C313.439 431.147 315.982 429.121 318.225 427.419C320.549 430 321.399 431.193 323.295 434.126C310.406 445.872 292.199 448.879 277.695 438.099C270.244 432.534 265.324 424.223 264.026 415.013C260.931 393.947 275.544 379.411 295.569 376.506Z" fill="#040924"/>
<path d="M396.858 393.404L405.522 393.294C411.57 405.691 417.644 420.395 423.408 433.196C428.457 419.976 434.634 406.458 440.372 393.461L449.072 393.882C444.261 406.271 438.759 418.391 433.382 430.548C428.828 441.387 423.321 460.797 409.823 461.726C405.585 462.017 398.979 460.887 396.072 457.541C393.532 448.193 408.297 454.892 412.564 451.697C416.75 448.564 417.017 447.165 418.696 442.415C412.493 429.617 400.257 405.832 396.858 393.404Z" fill="#040924"/>
<path d="M370.698 381.383C373.291 381.468 373.247 381.049 375.133 382.416C376.398 385.328 375.733 389.969 375.612 393.385C380.109 393.147 388.489 391.846 389.754 397.591C387.568 402.633 380.218 401.435 375.678 401.262C375.532 409.903 374.791 422.838 376.514 431.129C378.285 439.655 386.099 431.875 391.594 435.058C392.717 436.948 392.515 437.941 392.444 440.086C390.222 442.988 387.099 444.471 383.365 444.313C360.919 443.368 366.199 418.234 366.385 401.387C362.582 401.266 359.161 401.41 357.403 397.496C358.325 392.992 362.588 393.28 366.365 393.113C366.428 390.557 365.986 388.087 366.019 385.561C366.074 381.44 367.638 381.726 370.698 381.383Z" fill="#040924"/>
<path d="M336.858 393.158L346.185 393.178C346.191 398.94 346.683 440.966 345.462 443.33L336.788 443.407L336.858 393.158Z" fill="#040924"/>
<path d="M160.639 393.601C162.622 393.545 165.598 393.124 166.861 394.644C167.43 400.131 167.198 439.005 166.043 442.84L164.75 443.413C162.892 443.449 159.396 443.75 158.084 442.625C157.52 438.316 157.076 397.174 158.671 394.087L160.639 393.601Z" fill="#040924"/>
<path d="M160.731 372.274C164.034 371.442 167.385 373.449 168.21 376.755C169.034 380.06 167.019 383.407 163.713 384.225C160.417 385.039 157.084 383.032 156.262 379.737C155.44 376.442 157.439 373.104 160.731 372.274Z" fill="#040924"/>
<path d="M338.944 372.877C340.994 371.983 343.368 372.276 345.14 373.641C346.912 375.007 347.8 377.228 347.459 379.439C347.117 381.65 345.6 383.5 343.499 384.267C340.385 385.404 336.93 383.861 335.699 380.782C334.467 377.702 335.905 374.202 338.944 372.877Z" fill="#040924"/>
</svg>
