<svg width="1024" height="1024" viewBox="0 0 1024 1024" fill="none" xmlns="http://www.w3.org/2000/svg">
<rect width="1024" height="1024" rx="200" fill="#D9D9D9"/>
<path d="M494.594 194.784C504.408 193.691 515.533 193.954 525.396 194.304C660.425 199.081 783.192 297.789 814.205 429.947C817.542 444.347 819.819 458.973 821.02 473.704C823.105 501.646 821.128 534.393 821.677 562.79C822.055 582.414 822.02 603.997 821.427 623.642C820.81 630.621 818.714 637.74 815.047 643.736C802.737 663.862 764.908 660.148 744.157 660.118L686.938 660.019L624.605 660.205C577.595 660.362 562.121 661.728 521.71 635.307L512.878 629.191C499.065 667.446 466.62 660.333 432.795 660.18L364.351 660.177L288.031 660.304C269.174 660.403 232.589 663.796 216.816 652.349C199.924 640.091 202.008 612.73 202.156 593.698C202.312 578.984 202.365 564.27 202.317 549.556C202.256 526.912 201.458 499.054 203.204 476.871C208.212 414.4 232.734 355.087 273.298 307.322C332.182 237.297 404.286 202.534 494.594 194.784ZM503.822 622.905C474.739 598.22 439.573 565.197 434.235 525.412C430.486 497.465 458.724 498.184 473.826 514.102C500.15 541.846 514.303 575.689 515.392 613.889C515.436 615.257 515.463 616.625 515.473 617.994L524.799 624.912C521.98 609.298 524.75 599.906 534.269 586.151C555.216 555.918 595.154 532.83 593.805 491.615C593.735 489.476 591.614 485.712 589.789 484.71C570.219 473.973 539.36 502.049 529.371 515.544C571.164 570.028 496.944 573.897 509.714 532.257C511.285 527.105 513.684 522.244 516.814 517.861C503.353 494.671 502.926 469.977 482.511 451.041C463.78 458.489 445.35 463.134 426.321 453.663C417.663 449.355 392.795 437.117 396.025 425.585C399.878 420.531 411.162 418.823 417.347 418.043C455.407 413.249 482.117 432.187 503.23 460.774C504.318 445.18 506.637 429.581 511.442 414.663C504.803 401.073 500.835 390.645 485.658 385.438C484.286 384.97 482.909 384.518 481.526 384.081C462.441 376.744 450.201 362.275 441.941 344.09C435.588 329.277 441.365 322.627 456.166 330C467.382 335.588 485.311 346.929 490.679 358.495C498.694 375.767 504.3 386.208 516.292 401.466C523.561 386.966 528.94 373.556 535.388 358.866C539.794 348.826 577.911 314.884 586.786 330.254C587.552 339.996 577.255 359.245 570.674 366.636C559.719 378.942 550.069 382.766 535.391 388.455C517.55 413.558 513.36 446.935 513.577 477.079C526.585 450.485 540.793 433.242 569.718 422.026C580.269 417.935 623.428 413.512 629.902 425.433C631.98 437.61 597.52 456.754 586.961 457.783C571.255 459.313 556.858 456.387 542.351 451.055C533.373 461.46 524.576 472.173 521.664 486.006C520.583 491.148 518.213 500.464 520.553 505.364L522.105 505.899C525.687 503.649 530.351 499.223 533.447 496.077C544.978 484.356 554.295 478.539 569.827 473.306C596.045 464.471 608.956 484.25 603.319 508.511C599.958 522.971 590.271 537.359 581.287 549.097C567.783 566.742 521.591 601.95 536.34 627.465C551.217 653.204 606.834 649.514 632.635 649.455L701.981 649.288L752.67 649.502C795.169 649.656 813.346 652.072 811.081 600.892C809.288 560.363 812.891 517.897 810.373 477.273C807.066 428.81 791.303 382.022 764.608 341.443C720.217 273.879 650.725 226.81 571.525 210.665C551.548 206.53 524.089 203.58 503.661 204.714C417.8 209.518 347.999 240.973 289.349 305.041C244.972 353.52 217.833 416.108 213.485 481.581C212.177 501.295 213.315 526.064 213.13 546.41C213.334 569.927 212.812 593.861 213.034 617.329C213.101 624.406 216.313 638.937 222.216 642.941C237.42 653.254 271.199 649.841 288.316 649.704L356.694 649.666L436.526 649.56C449.069 649.535 461.894 649.96 474.387 649.403C490.971 648.66 499.426 637.601 503.822 622.905ZM420.936 427.99C416.965 428.628 412.993 429.202 409.074 430.11C422.086 441.832 434.245 449.183 452.587 448.26C455.768 448.103 458.939 447.784 462.086 447.304L473.239 443.927C458.024 432.282 440.492 425.29 420.936 427.99ZM541.341 374.796C553.42 369.024 570.992 355.651 572.688 341.482L571.952 340.345C561.267 345.808 541.774 360.98 540.683 373.811L541.341 374.796ZM615.209 429.833C607.716 428.515 597.884 426.98 590.375 427.979C574.565 430.093 564.675 433.373 552.317 443.748C562.861 447.329 567.433 448.187 578.669 448.256C594.856 446.321 603.661 441.38 615.209 429.833ZM453.002 340.631C460.835 357.183 469.367 370.398 488.077 375.396C481.602 362.143 471.323 346.736 456.674 341.752C455.46 341.345 454.236 340.971 453.002 340.631ZM527.766 551.078C532.809 542.349 532.834 531.171 522.83 526.215C520.032 535.605 514.327 548.373 527.766 551.078ZM447.646 513.183C435.497 543.651 482.424 590.342 502.952 608.402C505.069 605.661 504.641 599.527 504.132 596.138C500.292 570.561 476.826 515.973 447.646 513.183Z" fill="#141E60"/>
<path d="M511.317 263.817C521.948 268.244 527.122 285.214 529.651 294.976C535.943 319.27 527.999 335.29 519.131 356.502C516.416 362.994 522.578 368.855 515.805 379.785C501.218 377.53 510.981 360.389 506.165 351.16C500.163 339.655 495.802 333.602 494.459 320.187C492.41 299.907 498.471 279.641 511.317 263.817ZM514.284 342.421C520.529 326.82 526.075 294.059 512.219 281.309C505.671 297.807 498.753 328.962 514.284 342.421Z" fill="#141E60"/>
<path d="M604.936 360.79C621.395 359.15 621.136 366.606 613.592 378.577C598.22 402.967 581.342 412.111 553.737 418.163C533.089 420.672 539.426 406.751 546.997 395.694C561.368 374.705 580.476 364.991 604.936 360.79ZM556.549 406.988C576.462 402.148 594.523 393.051 603.281 373.07C601.725 372.191 602.522 372.347 600.844 372.45C583.793 376.515 560.298 388.244 554.044 405.919C555.275 407.288 554.503 406.865 556.549 406.988Z" fill="#141E60"/>
<path d="M408.621 360.545C443.672 359.723 473.544 376.832 486.374 409.715C487.876 413.564 487.438 415.087 485.77 418.706C456.567 422.178 424.789 399.824 411.342 374.775C409.152 370.694 407.041 365.078 408.621 360.545ZM473.865 407.876C462.554 386.127 447.35 375.144 422.677 371.756C431.415 390.949 452.911 405.883 473.865 407.876Z" fill="#141E60"/>
<path d="M317.35 745.2C317.35 749.5 317.55 753.7 317.95 757.8C318.45 761.8 319.2 767.45 320.2 774.75C322.1 787.05 323.05 796.85 323.05 804.15C323.05 805.65 322.75 806.55 322.15 806.85C321.55 807.15 320.85 807.3 320.05 807.3C319.25 807.3 318.7 807.3 318.4 807.3C317 807.3 315.9 807.15 315.1 806.85C314.3 806.45 313.65 805.55 313.15 804.15L310 763.35C309.7 759.25 309.3 751 308.8 738.6C304.5 743.6 300.25 747.4 296.05 750C291.85 752.5 287.55 753.75 283.15 753.75C276.85 753.75 270.55 749.3 264.25 740.4C264.55 741.9 264.7 743.9 264.7 746.4C264.7 748.9 264.7 750.35 264.7 750.75L264.55 799.8C264.55 800.8 264 801.6 262.9 802.2C261.9 802.7 260.85 802.95 259.75 802.95C258.35 802.95 257.35 802.45 256.75 801.45C256.25 800.35 255.85 798.9 255.55 797.1V776.1C255.55 772.9 255.65 769.3 255.85 765.3C256.05 761.3 256.2 758.5 256.3 756.9C256.8 749.9 257.05 743.55 257.05 737.85C257.05 736.15 256.75 734.55 256.15 733.05C255.55 731.45 254.65 729.7 253.45 727.8C252.25 725.9 251.35 724.25 250.75 722.85C250.25 721.45 250 719.95 250 718.35C250 716.45 250.95 715.5 252.85 715.5C255.85 715.5 258.3 716.6 260.2 718.8C262.1 720.9 264.15 724.1 266.35 728.4C268.25 731.9 269.9 734.65 271.3 736.65C272.7 738.65 274.5 740.4 276.7 741.9C278.9 743.3 281.55 744 284.65 744C289.15 744.2 292.85 743.35 295.75 741.45C298.65 739.45 300.85 737.05 302.35 734.25C303.85 731.45 305.3 728.05 306.7 724.05C307.9 720.75 308.95 718.45 309.85 717.15C310.75 715.75 311.85 715.2 313.15 715.5C316.15 715.3 317.65 718.05 317.65 723.75C317.65 728.55 317.6 732.1 317.5 734.4L317.35 745.2ZM376.663 807C366.263 807 357.213 805.2 349.513 801.6C341.913 797.9 338.113 791.45 338.113 782.25C338.113 778.95 339.113 775.75 341.113 772.65C343.113 769.55 346.063 767.05 349.963 765.15C353.863 763.15 358.613 762.15 364.213 762.15C368.513 762.15 372.163 762.35 375.163 762.75C378.163 763.15 381.613 764.25 385.513 766.05C389.413 767.85 393.463 770.7 397.663 774.6C396.063 767.7 393.663 761.65 390.463 756.45C387.263 751.25 383.663 747.25 379.663 744.45C375.763 741.55 371.913 740.1 368.113 740.1C366.313 740.1 364.613 740.45 363.013 741.15C361.513 741.75 359.663 742.65 357.463 743.85C354.963 745.45 353.113 746.25 351.913 746.25C351.413 746.25 350.963 746.1 350.563 745.8C350.263 745.4 350.113 744.95 350.113 744.45C350.113 740.45 351.863 737.35 355.363 735.15C358.963 732.95 363.313 731.95 368.413 732.15C375.413 732.55 381.813 735.55 387.613 741.15C393.413 746.65 397.963 753.5 401.263 761.7C404.663 769.9 406.363 777.95 406.363 785.85C406.363 787.15 406.263 789 406.063 791.4L401.263 791.1C397.463 783.4 392.563 777.95 386.563 774.75C380.663 771.45 374.713 769.8 368.713 769.8C361.013 769.8 355.513 770.95 352.213 773.25C348.913 775.55 347.263 778.9 347.263 783.3C347.263 787.9 349.563 791.6 354.163 794.4C358.763 797.2 364.663 798.6 371.863 798.6C375.863 798.6 379.063 798.4 381.463 798C383.863 797.5 386.363 796.85 388.963 796.05C391.063 795.35 392.913 794.85 394.513 794.55C396.113 794.25 398.163 794.1 400.663 794.1C403.463 794.1 405.213 794.3 405.913 794.7C406.713 795.1 407.113 796 407.113 797.4C407.113 798.4 405.063 799.65 400.963 801.15C396.863 802.65 392.263 804 387.163 805.2C382.063 806.4 378.563 807 376.663 807ZM429.169 807.15C426.869 807.15 425.019 803.8 423.619 797.1C422.219 790.3 421.319 784.45 420.919 779.55C420.519 774.65 419.969 766.9 419.269 756.3C419.169 754.6 419.119 752.4 419.119 749.7C419.119 746.3 419.369 743.95 419.869 742.65C420.469 741.35 421.419 740.7 422.719 740.7C423.819 740.7 424.669 740.95 425.269 741.45C425.969 741.85 426.569 742.55 427.069 743.55L426.919 749.55C426.919 755.95 427.219 762 427.819 767.7C428.519 773.4 429.569 781.05 430.969 790.65C431.769 794.85 432.319 798.3 432.619 801C432.819 802.4 432.569 803.8 431.869 805.2C431.169 806.5 430.269 807.15 429.169 807.15ZM425.419 724.65C423.219 724.65 421.569 723.8 420.469 722.1C419.469 720.4 418.969 718.3 418.969 715.8C418.969 714.7 419.019 713.9 419.119 713.4C419.019 711.8 419.919 711 421.819 711C423.219 711 424.619 711.35 426.019 712.05C427.519 712.65 427.969 713.1 427.369 713.4C428.369 716 428.869 718.05 428.869 719.55C428.869 720.85 428.569 721.9 427.969 722.7C427.369 723.4 426.519 724.05 425.419 724.65ZM484.622 807C474.222 807 465.172 805.2 457.472 801.6C449.872 797.9 446.072 791.45 446.072 782.25C446.072 778.95 447.072 775.75 449.072 772.65C451.072 769.55 454.022 767.05 457.922 765.15C461.822 763.15 466.572 762.15 472.172 762.15C476.472 762.15 480.122 762.35 483.122 762.75C486.122 763.15 489.572 764.25 493.472 766.05C497.372 767.85 501.422 770.7 505.622 774.6C504.022 767.7 501.622 761.65 498.422 756.45C495.222 751.25 491.622 747.25 487.622 744.45C483.722 741.55 479.872 740.1 476.072 740.1C474.272 740.1 472.572 740.45 470.972 741.15C469.472 741.75 467.622 742.65 465.422 743.85C462.922 745.45 461.072 746.25 459.872 746.25C459.372 746.25 458.922 746.1 458.522 745.8C458.222 745.4 458.072 744.95 458.072 744.45C458.072 740.45 459.822 737.35 463.322 735.15C466.922 732.95 471.272 731.95 476.372 732.15C483.372 732.55 489.772 735.55 495.572 741.15C501.372 746.65 505.922 753.5 509.222 761.7C512.622 769.9 514.322 777.95 514.322 785.85C514.322 787.15 514.222 789 514.022 791.4L509.222 791.1C505.422 783.4 500.522 777.95 494.522 774.75C488.622 771.45 482.672 769.8 476.672 769.8C468.972 769.8 463.472 770.95 460.172 773.25C456.872 775.55 455.222 778.9 455.222 783.3C455.222 787.9 457.522 791.6 462.122 794.4C466.722 797.2 472.622 798.6 479.822 798.6C483.822 798.6 487.022 798.4 489.422 798C491.822 797.5 494.322 796.85 496.922 796.05C499.022 795.35 500.872 794.85 502.472 794.55C504.072 794.25 506.122 794.1 508.622 794.1C511.422 794.1 513.172 794.3 513.872 794.7C514.672 795.1 515.072 796 515.072 797.4C515.072 798.4 513.022 799.65 508.922 801.15C504.822 802.65 500.222 804 495.122 805.2C490.022 806.4 486.522 807 484.622 807ZM598.778 808.65C591.878 808.65 585.978 806.75 581.078 802.95C576.178 799.15 572.428 793.95 569.828 787.35C567.328 780.75 566.078 773.25 566.078 764.85C566.078 755.45 568.278 746.55 572.678 738.15C577.078 729.65 582.828 722.85 589.928 717.75C597.128 712.55 604.578 709.95 612.278 709.95C618.778 709.95 623.778 711.4 627.278 714.3C630.778 717.2 632.528 720.6 632.528 724.5C632.528 726.8 631.828 728.9 630.428 730.8C629.128 732.7 627.228 734.15 624.728 735.15C624.428 734.55 624.278 733.6 624.278 732.3C624.278 731.1 624.428 729.9 624.728 728.7C624.928 727.1 625.028 725.95 625.028 725.25C625.028 724.25 624.878 723.4 624.578 722.7C623.178 719.2 619.378 717.45 613.178 717.45C611.478 717.45 609.478 717.6 607.178 717.9C601.878 718.6 596.628 721.25 591.428 725.85C586.228 730.35 581.978 736 578.678 742.8C575.378 749.6 573.728 756.55 573.728 763.65C573.728 769.85 574.728 775.75 576.728 781.35C578.828 786.85 581.828 791.3 585.728 794.7C589.628 798.1 594.278 799.8 599.678 799.8C606.678 799.8 612.478 798.95 617.078 797.25C621.778 795.55 626.378 792.95 630.878 789.45C631.378 789.05 631.928 788.85 632.528 788.85C633.628 788.85 634.378 789.5 634.778 790.8C635.278 793.2 633.678 795.8 629.978 798.6C626.278 801.4 621.478 803.8 615.578 805.8C609.678 807.7 604.078 808.65 598.778 808.65ZM656.952 807.15C654.652 807.15 652.802 803.8 651.402 797.1C650.002 790.3 649.102 784.45 648.702 779.55C648.302 774.65 647.752 766.9 647.052 756.3C646.952 754.6 646.902 752.4 646.902 749.7C646.902 746.3 647.152 743.95 647.652 742.65C648.252 741.35 649.202 740.7 650.502 740.7C651.602 740.7 652.452 740.95 653.052 741.45C653.752 741.85 654.352 742.55 654.852 743.55L654.702 749.55C654.702 755.95 655.002 762 655.602 767.7C656.302 773.4 657.352 781.05 658.752 790.65C659.552 794.85 660.102 798.3 660.402 801C660.602 802.4 660.352 803.8 659.652 805.2C658.952 806.5 658.052 807.15 656.952 807.15ZM653.202 724.65C651.002 724.65 649.352 723.8 648.252 722.1C647.252 720.4 646.752 718.3 646.752 715.8C646.752 714.7 646.802 713.9 646.902 713.4C646.802 711.8 647.702 711 649.602 711C651.002 711 652.402 711.35 653.802 712.05C655.302 712.65 655.752 713.1 655.152 713.4C656.152 716 656.652 718.05 656.652 719.55C656.652 720.85 656.352 721.9 655.752 722.7C655.152 723.4 654.302 724.05 653.202 724.65ZM698.005 807C697.005 807.2 696.355 807.3 696.055 807.3C692.955 807.3 690.805 805 689.605 800.4C688.505 795.8 687.955 789.35 687.955 781.05C687.955 777.65 688.055 772.35 688.255 765.15C688.455 760.75 688.555 757.45 688.555 755.25C676.255 755.25 670.105 753.85 670.105 751.05C670.105 750.15 670.205 749.45 670.405 748.95C670.705 748.45 671.305 748.2 672.205 748.2L688.555 747.15C688.455 742.25 688.205 736.9 687.805 731.1C687.405 725.9 687.155 721.1 687.055 716.7C687.055 715.6 687.505 714.85 688.405 714.45C689.305 713.95 690.255 713.7 691.255 713.7C692.455 713.7 693.455 714.35 694.255 715.65C695.055 716.85 695.455 718.1 695.455 719.4L696.505 746.85L708.955 747.45C710.855 747.25 712.455 747.6 713.755 748.5C715.155 749.4 715.905 750.9 716.005 753C713.905 753.9 711.605 754.45 709.105 754.65C706.605 754.85 702.405 754.95 696.505 754.95C696.505 764.25 696.955 779.55 697.855 800.85C697.855 803.05 697.855 804.6 697.855 805.5C697.955 806.3 698.005 806.8 698.005 807ZM765.346 877.95C758.546 877.95 752.446 876.5 747.046 873.6C741.746 870.7 737.496 867.35 734.296 863.55C731.096 859.75 729.296 856.65 728.896 854.25C728.496 852.05 728.996 850.35 730.396 849.15C731.896 847.95 733.746 847.45 735.946 847.65C739.046 855.05 742.746 860.75 747.046 864.75C751.346 868.75 757.496 870.85 765.496 871.05C771.096 871.15 775.546 867.55 778.846 860.25C782.246 853.05 784.646 844.2 786.046 833.7C787.446 823.3 788.146 813.05 788.146 802.95C788.146 797.75 787.996 793.5 787.696 790.2C780.096 799.5 770.396 804.15 758.596 804.15C748.396 804.15 740.546 799.3 735.046 789.6C729.646 779.9 726.146 768.95 724.546 756.75C724.346 755.55 724.246 753.85 724.246 751.65C724.246 745.35 726.296 742.2 730.396 742.2C730.796 742.2 731.346 744.7 732.046 749.7C733.146 757.6 734.496 764.7 736.096 771C737.696 777.3 740.346 783.05 744.046 788.25C747.846 793.35 752.846 795.9 759.046 795.9C763.946 795.9 768.946 794.3 774.046 791.1C779.246 787.8 782.996 784.15 785.296 780.15C785.296 772.55 784.296 765.75 782.296 759.75C780.396 753.65 779.396 750.4 779.296 750C779.096 747.8 778.996 746.4 778.996 745.8C778.996 743.8 779.296 742.35 779.896 741.45C780.596 740.55 781.596 740.1 782.896 740.1C784.296 740.1 785.896 742.95 787.696 748.65C789.496 754.35 791.096 761.8 792.496 771C793.896 780.2 794.846 789.8 795.346 799.8C795.546 805 795.646 808.85 795.646 811.35C795.646 830.55 793.246 846.45 788.446 859.05C783.746 871.65 776.046 877.95 765.346 877.95Z" fill="#141E60"/>
</svg>
