<svg width="451" height="488" viewBox="0 0 451 488" fill="none" xmlns="http://www.w3.org/2000/svg">
<path d="M212.418 0.568879C219.543 -0.224121 227.62 -0.0331132 234.78 0.220887C332.809 3.68889 421.936 75.3489 444.451 171.294C446.873 181.748 448.526 192.366 449.398 203.061C450.912 223.346 449.477 247.12 449.875 267.736C450.15 281.982 450.124 297.651 449.694 311.913C449.246 316.98 447.724 322.148 445.062 326.501C436.125 341.112 408.662 338.416 393.597 338.394L352.057 338.322L306.804 338.457C272.676 338.571 261.442 339.563 232.104 320.382L225.692 315.942C215.664 343.714 192.11 338.55 167.553 338.439L117.864 338.437L62.4572 338.529C48.7672 338.601 22.2072 341.064 10.7562 332.754C-1.50685 323.855 0.00614537 303.991 0.113145 290.174C0.226145 279.492 0.26515 268.81 0.23015 258.128C0.18615 241.689 -0.393838 221.464 0.874162 205.36C4.51016 160.007 22.3122 116.947 51.7612 82.2699C94.5102 31.4329 146.856 6.19588 212.418 0.568879ZM219.118 311.378C198.004 293.457 172.474 269.483 168.599 240.6C165.877 220.311 186.377 220.833 197.341 232.389C216.452 252.531 226.727 277.1 227.517 304.833C227.549 305.826 227.569 306.819 227.576 307.813L234.347 312.835C232.3 301.5 234.311 294.681 241.222 284.695C256.429 262.747 285.423 245.985 284.444 216.064C284.393 214.511 282.853 211.778 281.528 211.051C267.321 203.256 244.918 223.639 237.666 233.436C268.007 272.99 214.124 275.799 223.395 245.569C224.536 241.829 226.277 238.3 228.55 235.118C218.777 218.282 218.467 200.355 203.646 186.608C190.048 192.015 176.668 195.387 162.853 188.511C156.568 185.384 138.514 176.499 140.859 168.127C143.656 164.458 151.848 163.218 156.338 162.652C183.969 159.171 203.36 172.92 218.688 193.674C219.478 182.353 221.161 171.028 224.65 160.198C219.83 150.332 216.949 142.761 205.931 138.981C204.935 138.641 203.935 138.313 202.931 137.996C189.076 132.669 180.19 122.165 174.193 108.963C169.581 98.2089 173.775 93.3809 184.52 98.7339C192.663 102.791 205.679 111.024 209.576 119.421C215.395 131.96 219.465 139.54 228.171 150.617C233.448 140.09 237.353 130.355 242.034 119.69C245.233 112.401 272.905 87.7599 279.348 98.9179C279.904 105.991 272.429 119.965 267.651 125.331C259.698 134.265 252.692 137.041 242.036 141.171C229.084 159.396 226.042 183.627 226.2 205.511C235.643 186.204 245.958 173.686 266.957 165.543C274.617 162.573 305.95 159.362 310.65 168.017C312.158 176.857 287.141 190.755 279.475 191.502C268.073 192.613 257.621 190.489 247.089 186.618C240.571 194.172 234.185 201.949 232.071 211.992C231.286 215.725 229.565 222.488 231.264 226.045L232.391 226.434C234.991 224.8 238.377 221.587 240.625 219.303C248.996 210.794 255.76 206.571 267.036 202.772C286.07 196.358 295.443 210.717 291.351 228.33C288.911 238.828 281.878 249.273 275.356 257.795C265.552 270.605 232.018 296.165 242.725 314.689C253.526 333.375 293.903 330.696 312.634 330.653L362.978 330.532L399.777 330.687C430.631 330.799 443.827 332.553 442.183 295.397C440.881 265.974 443.497 235.144 441.669 205.652C439.268 170.468 427.824 136.501 408.444 107.041C376.217 57.9909 325.767 23.8199 268.269 12.0989C253.766 9.09688 233.831 6.95488 219.001 7.77788C156.667 11.2659 105.993 34.1019 63.4142 80.6139C31.1972 115.809 11.4942 161.247 8.33815 208.779C7.38815 223.091 8.21416 241.073 8.08016 255.844C8.22816 272.917 7.84915 290.293 8.01015 307.33C8.05915 312.468 10.3912 323.017 14.6762 325.924C25.7142 333.411 50.2372 330.933 62.6642 330.834L112.305 330.806L170.262 330.729C179.368 330.711 188.679 331.02 197.748 330.615C209.788 330.076 215.926 322.047 219.118 311.378ZM158.944 169.873C156.061 170.336 153.177 170.753 150.332 171.412C159.779 179.922 168.606 185.259 181.922 184.589C184.231 184.475 186.533 184.243 188.818 183.895L196.915 181.443C185.869 172.989 173.141 167.913 158.944 169.873ZM246.356 131.255C255.125 127.065 267.882 117.356 269.113 107.07L268.579 106.244C260.822 110.21 246.67 121.225 245.878 130.54L246.356 131.255ZM299.983 171.211C294.543 170.254 287.405 169.14 281.954 169.865C270.476 171.4 263.296 173.781 254.324 181.313C261.979 183.913 265.298 184.536 273.455 184.586C285.207 183.181 291.599 179.594 299.983 171.211ZM182.223 106.452C187.91 118.468 194.104 128.062 207.687 131.691C202.986 122.069 195.524 110.884 184.889 107.266C184.008 106.97 183.119 106.699 182.223 106.452ZM236.501 259.233C240.162 252.896 240.18 244.781 232.917 241.183C230.886 248 226.744 257.269 236.501 259.233ZM178.335 231.722C169.515 253.841 203.583 287.738 218.486 300.849C220.023 298.859 219.712 294.406 219.343 291.946C216.555 273.377 199.519 233.747 178.335 231.722Z" fill="#040924"/>
<path d="M224.559 50.6859C232.277 53.8999 236.033 66.2199 237.869 73.3069C242.437 90.9439 236.67 102.574 230.232 117.974C228.261 122.687 232.734 126.942 227.817 134.877C217.227 133.24 224.315 120.796 220.819 114.096C216.461 105.743 213.295 101.349 212.32 91.6099C210.833 76.8869 215.233 62.1739 224.559 50.6859ZM226.713 107.751C231.247 96.4249 235.273 72.6409 225.214 63.3849C220.46 75.3619 215.438 97.9799 226.713 107.751Z" fill="#040924"/>
<path d="M292.525 121.087C304.474 119.896 304.286 125.309 298.809 134C287.649 151.707 275.396 158.345 255.355 162.739C240.365 164.56 244.966 154.454 250.462 146.427C260.895 131.189 274.767 124.137 292.525 121.087ZM257.397 154.626C271.853 151.112 284.965 144.508 291.323 130.002C290.194 129.364 290.772 129.477 289.554 129.552C277.175 132.503 260.118 141.018 255.578 153.85C256.472 154.844 255.911 154.537 257.397 154.626Z" fill="#040924"/>
<path d="M150.003 120.909C175.45 120.312 197.136 132.733 206.451 156.606C207.541 159.4 207.223 160.506 206.012 163.133C184.811 165.654 161.741 149.425 151.979 131.24C150.389 128.277 148.856 124.2 150.003 120.909ZM197.369 155.271C189.158 139.481 178.12 131.508 160.208 129.048C166.551 142.982 182.157 153.824 197.369 155.271Z" fill="#040924"/>
<path d="M89.9 397.8C89.9 400.667 90.0333 403.467 90.3 406.2C90.6333 408.867 91.1333 412.633 91.8 417.5C93.0667 425.7 93.7 432.233 93.7 437.1C93.7 438.1 93.5 438.7 93.1 438.9C92.7 439.1 92.2333 439.2 91.7 439.2C91.1667 439.2 90.8 439.2 90.6 439.2C89.6667 439.2 88.9333 439.1 88.4 438.9C87.8667 438.633 87.4333 438.033 87.1 437.1L85 409.9C84.8 407.167 84.5333 401.667 84.2 393.4C81.3333 396.733 78.5 399.267 75.7 401C72.9 402.667 70.0333 403.5 67.1 403.5C62.9 403.5 58.7 400.533 54.5 394.6C54.7 395.6 54.8 396.933 54.8 398.6C54.8 400.267 54.8 401.233 54.8 401.5L54.7 434.2C54.7 434.867 54.3333 435.4 53.6 435.8C52.9333 436.133 52.2333 436.3 51.5 436.3C50.5667 436.3 49.9 435.967 49.5 435.3C49.1667 434.567 48.9 433.6 48.7 432.4V418.4C48.7 416.267 48.7667 413.867 48.9 411.2C49.0333 408.533 49.1333 406.667 49.2 405.6C49.5333 400.933 49.7 396.7 49.7 392.9C49.7 391.767 49.5 390.7 49.1 389.7C48.7 388.633 48.1 387.467 47.3 386.2C46.5 384.933 45.9 383.833 45.5 382.9C45.1667 381.967 45 380.967 45 379.9C45 378.633 45.6333 378 46.9 378C48.9 378 50.5333 378.733 51.8 380.2C53.0667 381.6 54.4333 383.733 55.9 386.6C57.1667 388.933 58.2667 390.767 59.2 392.1C60.1333 393.433 61.3333 394.6 62.8 395.6C64.2667 396.533 66.0333 397 68.1 397C71.1 397.133 73.5667 396.567 75.5 395.3C77.4333 393.967 78.9 392.367 79.9 390.5C80.9 388.633 81.8667 386.367 82.8 383.7C83.6 381.5 84.3 379.967 84.9 379.1C85.5 378.167 86.2333 377.8 87.1 378C89.1 377.867 90.1 379.7 90.1 383.5C90.1 386.7 90.0667 389.067 90 390.6L89.9 397.8ZM129.442 439C122.509 439 116.476 437.8 111.342 435.4C106.276 432.933 103.742 428.633 103.742 422.5C103.742 420.3 104.409 418.167 105.742 416.1C107.076 414.033 109.042 412.367 111.642 411.1C114.242 409.767 117.409 409.1 121.142 409.1C124.009 409.1 126.442 409.233 128.442 409.5C130.442 409.767 132.742 410.5 135.342 411.7C137.942 412.9 140.642 414.8 143.442 417.4C142.376 412.8 140.776 408.767 138.642 405.3C136.509 401.833 134.109 399.167 131.442 397.3C128.842 395.367 126.276 394.4 123.742 394.4C122.542 394.4 121.409 394.633 120.342 395.1C119.342 395.5 118.109 396.1 116.642 396.9C114.976 397.967 113.742 398.5 112.942 398.5C112.609 398.5 112.309 398.4 112.042 398.2C111.842 397.933 111.742 397.633 111.742 397.3C111.742 394.633 112.909 392.567 115.242 391.1C117.642 389.633 120.542 388.967 123.942 389.1C128.609 389.367 132.876 391.367 136.742 395.1C140.609 398.767 143.642 403.333 145.842 408.8C148.109 414.267 149.242 419.633 149.242 424.9C149.242 425.767 149.176 427 149.042 428.6L145.842 428.4C143.309 423.267 140.042 419.633 136.042 417.5C132.109 415.3 128.142 414.2 124.142 414.2C119.009 414.2 115.342 414.967 113.142 416.5C110.942 418.033 109.842 420.267 109.842 423.2C109.842 426.267 111.376 428.733 114.442 430.6C117.509 432.467 121.442 433.4 126.242 433.4C128.909 433.4 131.042 433.267 132.642 433C134.242 432.667 135.909 432.233 137.642 431.7C139.042 431.233 140.276 430.9 141.342 430.7C142.409 430.5 143.776 430.4 145.442 430.4C147.309 430.4 148.476 430.533 148.942 430.8C149.476 431.067 149.742 431.667 149.742 432.6C149.742 433.267 148.376 434.1 145.642 435.1C142.909 436.1 139.842 437 136.442 437.8C133.042 438.6 130.709 439 129.442 439ZM164.446 439.1C162.913 439.1 161.679 436.867 160.746 432.4C159.813 427.867 159.213 423.967 158.946 420.7C158.679 417.433 158.313 412.267 157.846 405.2C157.779 404.067 157.746 402.6 157.746 400.8C157.746 398.533 157.913 396.967 158.246 396.1C158.646 395.233 159.279 394.8 160.146 394.8C160.879 394.8 161.446 394.967 161.846 395.3C162.313 395.567 162.713 396.033 163.046 396.7L162.946 400.7C162.946 404.967 163.146 409 163.546 412.8C164.013 416.6 164.713 421.7 165.646 428.1C166.179 430.9 166.546 433.2 166.746 435C166.879 435.933 166.713 436.867 166.246 437.8C165.779 438.667 165.179 439.1 164.446 439.1ZM161.946 384.1C160.479 384.1 159.379 383.533 158.646 382.4C157.979 381.267 157.646 379.867 157.646 378.2C157.646 377.467 157.679 376.933 157.746 376.6C157.679 375.533 158.279 375 159.546 375C160.479 375 161.413 375.233 162.346 375.7C163.346 376.1 163.646 376.4 163.246 376.6C163.913 378.333 164.246 379.7 164.246 380.7C164.246 381.567 164.046 382.267 163.646 382.8C163.246 383.267 162.679 383.7 161.946 384.1ZM201.415 439C194.482 439 188.448 437.8 183.315 435.4C178.248 432.933 175.715 428.633 175.715 422.5C175.715 420.3 176.382 418.167 177.715 416.1C179.048 414.033 181.015 412.367 183.615 411.1C186.215 409.767 189.382 409.1 193.115 409.1C195.982 409.1 198.415 409.233 200.415 409.5C202.415 409.767 204.715 410.5 207.315 411.7C209.915 412.9 212.615 414.8 215.415 417.4C214.348 412.8 212.748 408.767 210.615 405.3C208.482 401.833 206.082 399.167 203.415 397.3C200.815 395.367 198.248 394.4 195.715 394.4C194.515 394.4 193.382 394.633 192.315 395.1C191.315 395.5 190.082 396.1 188.615 396.9C186.948 397.967 185.715 398.5 184.915 398.5C184.582 398.5 184.282 398.4 184.015 398.2C183.815 397.933 183.715 397.633 183.715 397.3C183.715 394.633 184.882 392.567 187.215 391.1C189.615 389.633 192.515 388.967 195.915 389.1C200.582 389.367 204.848 391.367 208.715 395.1C212.582 398.767 215.615 403.333 217.815 408.8C220.082 414.267 221.215 419.633 221.215 424.9C221.215 425.767 221.148 427 221.015 428.6L217.815 428.4C215.282 423.267 212.015 419.633 208.015 417.5C204.082 415.3 200.115 414.2 196.115 414.2C190.982 414.2 187.315 414.967 185.115 416.5C182.915 418.033 181.815 420.267 181.815 423.2C181.815 426.267 183.348 428.733 186.415 430.6C189.482 432.467 193.415 433.4 198.215 433.4C200.882 433.4 203.015 433.267 204.615 433C206.215 432.667 207.882 432.233 209.615 431.7C211.015 431.233 212.248 430.9 213.315 430.7C214.382 430.5 215.748 430.4 217.415 430.4C219.282 430.4 220.448 430.533 220.915 430.8C221.448 431.067 221.715 431.667 221.715 432.6C221.715 433.267 220.348 434.1 217.615 435.1C214.882 436.1 211.815 437 208.415 437.8C205.015 438.6 202.682 439 201.415 439ZM277.519 440.1C272.919 440.1 268.985 438.833 265.719 436.3C262.452 433.767 259.952 430.3 258.219 425.9C256.552 421.5 255.719 416.5 255.719 410.9C255.719 404.633 257.185 398.7 260.119 393.1C263.052 387.433 266.885 382.9 271.619 379.5C276.419 376.033 281.385 374.3 286.519 374.3C290.852 374.3 294.185 375.267 296.519 377.2C298.852 379.133 300.019 381.4 300.019 384C300.019 385.533 299.552 386.933 298.619 388.2C297.752 389.467 296.485 390.433 294.819 391.1C294.619 390.7 294.519 390.067 294.519 389.2C294.519 388.4 294.619 387.6 294.819 386.8C294.952 385.733 295.019 384.967 295.019 384.5C295.019 383.833 294.919 383.267 294.719 382.8C293.785 380.467 291.252 379.3 287.119 379.3C285.985 379.3 284.652 379.4 283.119 379.6C279.585 380.067 276.085 381.833 272.619 384.9C269.152 387.9 266.319 391.667 264.119 396.2C261.919 400.733 260.819 405.367 260.819 410.1C260.819 414.233 261.485 418.167 262.819 421.9C264.219 425.567 266.219 428.533 268.819 430.8C271.419 433.067 274.519 434.2 278.119 434.2C282.785 434.2 286.652 433.633 289.719 432.5C292.852 431.367 295.919 429.633 298.919 427.3C299.252 427.033 299.619 426.9 300.019 426.9C300.752 426.9 301.252 427.333 301.519 428.2C301.852 429.8 300.785 431.533 298.319 433.4C295.852 435.267 292.652 436.867 288.719 438.2C284.785 439.467 281.052 440.1 277.519 440.1ZM316.302 439.1C314.768 439.1 313.535 436.867 312.602 432.4C311.668 427.867 311.068 423.967 310.802 420.7C310.535 417.433 310.168 412.267 309.702 405.2C309.635 404.067 309.602 402.6 309.602 400.8C309.602 398.533 309.768 396.967 310.102 396.1C310.502 395.233 311.135 394.8 312.002 394.8C312.735 394.8 313.302 394.967 313.702 395.3C314.168 395.567 314.568 396.033 314.902 396.7L314.802 400.7C314.802 404.967 315.002 409 315.402 412.8C315.868 416.6 316.568 421.7 317.502 428.1C318.035 430.9 318.402 433.2 318.602 435C318.735 435.933 318.568 436.867 318.102 437.8C317.635 438.667 317.035 439.1 316.302 439.1ZM313.802 384.1C312.335 384.1 311.235 383.533 310.502 382.4C309.835 381.267 309.502 379.867 309.502 378.2C309.502 377.467 309.535 376.933 309.602 376.6C309.535 375.533 310.135 375 311.402 375C312.335 375 313.268 375.233 314.202 375.7C315.202 376.1 315.502 376.4 315.102 376.6C315.768 378.333 316.102 379.7 316.102 380.7C316.102 381.567 315.902 382.267 315.502 382.8C315.102 383.267 314.535 383.7 313.802 384.1ZM343.67 439C343.004 439.133 342.57 439.2 342.37 439.2C340.304 439.2 338.87 437.667 338.07 434.6C337.337 431.533 336.97 427.233 336.97 421.7C336.97 419.433 337.037 415.9 337.17 411.1C337.304 408.167 337.37 405.967 337.37 404.5C329.17 404.5 325.07 403.567 325.07 401.7C325.07 401.1 325.137 400.633 325.27 400.3C325.47 399.967 325.87 399.8 326.47 399.8L337.37 399.1C337.304 395.833 337.137 392.267 336.87 388.4C336.604 384.933 336.437 381.733 336.37 378.8C336.37 378.067 336.67 377.567 337.27 377.3C337.87 376.967 338.504 376.8 339.17 376.8C339.97 376.8 340.637 377.233 341.17 378.1C341.704 378.9 341.97 379.733 341.97 380.6L342.67 398.9L350.97 399.3C352.237 399.167 353.304 399.4 354.17 400C355.104 400.6 355.604 401.6 355.67 403C354.27 403.6 352.737 403.967 351.07 404.1C349.404 404.233 346.604 404.3 342.67 404.3C342.67 410.5 342.97 420.7 343.57 434.9C343.57 436.367 343.57 437.4 343.57 438C343.637 438.533 343.67 438.867 343.67 439ZM388.564 486.3C384.031 486.3 379.964 485.333 376.364 483.4C372.831 481.467 369.997 479.233 367.864 476.7C365.731 474.167 364.531 472.1 364.264 470.5C363.997 469.033 364.331 467.9 365.264 467.1C366.264 466.3 367.497 465.967 368.964 466.1C371.031 471.033 373.497 474.833 376.364 477.5C379.231 480.167 383.331 481.567 388.664 481.7C392.397 481.767 395.364 479.367 397.564 474.5C399.831 469.7 401.431 463.8 402.364 456.8C403.297 449.867 403.764 443.033 403.764 436.3C403.764 432.833 403.664 430 403.464 427.8C398.397 434 391.931 437.1 384.064 437.1C377.264 437.1 372.031 433.867 368.364 427.4C364.764 420.933 362.431 413.633 361.364 405.5C361.231 404.7 361.164 403.567 361.164 402.1C361.164 397.9 362.531 395.8 365.264 395.8C365.531 395.8 365.897 397.467 366.364 400.8C367.097 406.067 367.997 410.8 369.064 415C370.131 419.2 371.897 423.033 374.364 426.5C376.897 429.9 380.231 431.6 384.364 431.6C387.631 431.6 390.964 430.533 394.364 428.4C397.831 426.2 400.331 423.767 401.864 421.1C401.864 416.033 401.197 411.5 399.864 407.5C398.597 403.433 397.931 401.267 397.864 401C397.731 399.533 397.664 398.6 397.664 398.2C397.664 396.867 397.864 395.9 398.264 395.3C398.731 394.7 399.397 394.4 400.264 394.4C401.197 394.4 402.264 396.3 403.464 400.1C404.664 403.9 405.731 408.867 406.664 415C407.597 421.133 408.231 427.533 408.564 434.2C408.697 437.667 408.764 440.233 408.764 441.9C408.764 454.7 407.164 465.3 403.964 473.7C400.831 482.1 395.697 486.3 388.564 486.3Z" fill="#040924"/>
</svg>
