<svg width="1050" height="818" viewBox="0 0 1050 818" fill="none" xmlns="http://www.w3.org/2000/svg">
<path d="M430.07 174.92C364.621 196.749 304.422 245.576 273.439 307.625C217.414 274.462 184.264 244.255 117.482 249.551C95.637 288.522 71.9495 369.503 68.2754 413.888C67.8497 419.019 66.1093 433.207 67.0672 437.85L69.6095 440.528C66.3642 444.576 63.576 444.187 62.014 446.823C41.8402 433.129 30.4431 427.623 6.89205 420.767C-4.2082 469.205 -4.01484 523.171 23.3633 566.331C33.2718 581.95 46.3852 595.095 61.2855 605.954C62.4892 606.831 67.8917 610.911 69.0489 611.48C80.3065 622.385 103.612 637.029 117.482 644.791C163.177 670.358 211.828 681.793 263.323 688.818C281.685 691.323 301.617 692.824 319.723 695.883C376.628 705.497 473.445 755.552 516.19 817.742C542.092 785.816 574.38 759.656 610.985 740.939C694.752 697.724 776.666 695.664 865.435 672.523C902.122 662.957 952.324 637.254 981.036 612.523C1048.44 567.145 1058.77 495.557 1043.46 421.061C1016.14 428.689 993.024 440.579 972.141 460.224C940.341 490.671 922.891 533.141 924.1 577.15C924.33 583.625 924.842 589.392 925.671 595.78C926.382 601.249 928.734 608.708 928.308 613.959C912.222 593.914 910.539 564.452 913.646 539.921C918.836 498.968 942.544 468.65 974.683 444.327L983.568 438.32C983.315 392.459 971.302 339.761 953.944 297.517C949.642 287.047 936.105 250.806 930.445 241.051C921.376 239.584 914.315 263.843 905.067 264.292C854.718 266.729 815.772 281.998 774.596 309.469C742.601 256.317 708.922 219.244 652.467 190.956C583.477 156.034 503.357 150.255 430.07 174.92Z" fill="#3D895A"/>
<path d="M672.081 248.304C677.584 248.297 689.209 252.048 689.516 258.179L687.431 257.997C680.42 257.645 674.301 258.864 667.815 255.708C666.278 253.663 666.488 254.729 666.785 252.503C668.695 250.007 669.249 249.893 672.081 248.304Z" fill="#1F4269"/>
<path d="M399.872 286.691C400.458 286.715 401.043 286.751 401.629 286.796C408.407 287.342 416.271 290.448 420.801 295.678C414.362 296.249 403.155 292.401 399.872 286.691Z" fill="#FBFAF0"/>
<path d="M373.989 24.3715C268.178 59.6621 170.854 138.602 120.764 238.916C76.945 320.052 138.785 343.958 145.445 343.052C149.398 331.855 168.639 316.004 185.445 346.804C189.945 355.052 195.436 363.382 202.445 366.552C215.328 372.322 213.419 361.105 222.945 366.552C237.394 374.813 238.404 362.819 239.972 379.4C249.52 386.489 313.832 387.824 325.445 391.963C334.012 395.017 350.482 386.821 361.647 379.562C411.568 350.522 448.974 335.472 507.128 327.203C580.607 318.993 631.376 324.499 701.369 348.615C731.938 361.859 754.544 373.458 782.659 391.963C807.445 391.963 821.445 378.101 829.945 391.963C829.945 378.101 879.038 367.4 882.445 366.552C923.445 339.552 954.945 321.052 930.985 241.897C879.259 155.966 824.811 96.0311 733.54 50.2978C622.003 -6.16178 492.473 -15.5043 373.989 24.3715Z" fill="#1F4269"/>
<path d="M686.754 49.7816C776.149 87.1127 845.191 141.258 897.758 223.905C902.574 231.476 911.197 244.478 915.113 252.078C911.407 255.396 908.388 258.292 904.202 261.069C893.336 242.251 890.735 233.124 869.157 226.341L863.151 228.878C863.566 230.497 864.072 231.268 863.803 232.623C895.512 253.85 853.218 270.538 832.739 271.796C821.313 254.637 807.206 214.633 786.914 206.633L784.636 207.673C784.032 219.938 817.602 273.608 826.639 285.701C830.204 290.471 845.152 286.453 850.695 285.369C840.618 319.885 823.149 319.034 805.332 345.084C795.183 359.923 799.53 374.262 782.658 391.963C754.544 373.458 731.937 361.859 701.368 348.615C700.934 332.167 702.495 307.719 689.696 296.265C675.87 283.891 656.776 293.282 640.737 295.558C631.162 296.915 624.864 297.218 615.194 297.499C600.123 289.392 584.816 268.466 575.975 254.053C580.02 241.747 579.923 233.166 581.854 220.67C583.451 210.349 596.974 203.241 603.646 195.539C610.4 187.742 616.9 179.723 624.207 172.407C629.301 170.751 684.275 161.569 690.961 164.889C695.185 166.988 697.939 176.352 699.647 181.075C709.654 188.7 717.699 192.316 729.492 196.416L745.877 188.763C752.77 191.933 794.972 213.274 785.004 180.048C783.758 175.894 769.891 176.299 764.962 174.828C754.868 171.815 757.149 159.187 747.593 157.803C742.986 159.536 741.159 162.761 737.996 166.699C726.797 149.985 720.331 145.431 702.846 136.074C708.122 141.12 719.587 149.565 719.132 156.402L717.528 157.413C710 156.647 697.337 144.423 689.088 139.198L687.629 138.289C667.936 138.597 665.946 140.671 652.409 154.546C641.363 165.866 610.5 167.746 614.358 144.042C617.508 124.691 633.314 139.891 643.898 131.581C648.187 123.121 640.51 118.795 634.422 113.705C658.727 109.464 657.03 105.184 677.16 99.0119C721.114 109.239 718.061 81.1558 703.357 76.7111C701.322 85.8234 697.577 102.478 683.449 90.1396C675.422 83.1334 666.186 89.5022 663.974 78.2985C666.749 68.6458 678.997 59.2573 686.754 49.7816Z" fill="#F5F1CE"/>
<path d="M205.036 154.732C220.767 132.778 258.799 104.918 282.117 89.5192C372.139 30.0666 498.461 4.15005 604.621 27.0712L604.07 30.5247C595.768 44.0743 592.46 47.3048 575.934 51.3011C562.074 54.5243 547.727 56.9672 534.383 61.9789C528.039 64.3612 522.067 74.6246 515.539 75.3758C508.821 76.1489 500.68 70.4489 498.618 63.7044C494.929 54.5728 510.554 36.1908 501.674 29.7371C495.213 25.0404 478.411 28.8622 470.995 30.1903C458.001 32.5217 444.863 34.5622 432.06 37.7224C422.092 40.1798 420.524 43.9556 415.893 52.2172C403.548 59.805 377.348 56.8751 360.594 71.0451L360.531 72.8506C367.254 78.238 374.173 78.6136 380.588 83.8144C382.691 85.5181 380.743 92.2214 383.939 93.4816C405.845 83.1504 404.842 68.9803 430.426 60.423C439.798 65.4275 468.446 83.6956 472.512 92.9969C471.427 105.623 438.133 105.272 427.61 105.946C430.836 110.814 434.173 115.608 437.619 120.326C429.881 129.909 420.992 121.126 413.123 124.044C385.866 134.15 363.609 154.759 341.083 172.244C336.122 176.095 332.07 195.672 329.901 202.882C324.909 193.605 322.364 187.197 314.383 180.346C301.956 180.416 289.463 181.761 277.566 181.589C261.93 191.259 250.072 208.892 258.404 227.022C264.637 240.579 290.638 213.64 296.205 217.767C296.753 224.768 295.907 228.716 294.94 235.608C299.263 236.614 307.426 237.661 309.687 242.188C313.744 250.304 307.261 260.117 318.54 264.637C344.408 274.999 348.377 240.661 379.059 253.46C387.594 257.02 402.004 257.073 411.378 264.937C420.393 270.407 430.438 275.319 439.165 281.366C444.383 285.101 448.566 292.417 454.31 295.667C479.148 306.628 496.519 294.908 507.127 327.203C448.973 335.472 411.567 350.522 361.646 379.562C347.442 363.984 330.715 349.977 318.409 333.815C304.782 315.917 333.076 296.11 329.935 281.8C323.336 272.14 312.869 275.392 305.089 270.56C294.853 264.406 281.238 248.608 270.347 245.099C245.773 237.179 226.901 242.367 222.798 210.043C221.865 202.698 217.52 188.874 214.357 181.257L204.889 208.601C204.416 191.046 204.874 172.38 205.036 154.732Z" fill="#F5F1CE"/>
<path d="M631.243 83.2957C637.9 89.3011 651.297 98.6266 644.392 107.804C639.395 110.247 638.976 110.155 633.307 110.669C623.926 96.3146 621.832 104.882 617.245 99.0507C619.397 95.0277 627.627 87.0448 631.243 83.2957Z" fill="#F5F1CE"/>
<path d="M582.465 59.5457C588.802 59.1264 603.404 57.6166 605.042 65.4274L602.337 69.1596C595.937 68.91 582.196 68.0593 579.591 61.39L582.465 59.5457Z" fill="#F5F1CE"/>
<path d="M455.451 46.9267C459.751 46.6965 461.343 46.2215 465.169 48.2233L465.812 50.5086C463.844 54.8297 461.629 55.707 457.657 58.3485C453.331 58.2564 450.052 58.5376 447.156 55.3071C448.479 51.2865 451.879 49.5755 455.451 46.9267Z" fill="#FBFAF0"/>
<path d="M144.618 335.281C147.329 329.721 149.876 323.209 155.647 320.361C167.508 314.509 190.336 322.711 189.443 338.016C189.573 338.835 189.753 344.676 190.14 345.099C194.853 350.259 196.822 351.389 199.957 357.74C199.411 367.001 197.861 370.2 193.544 377.908C185.421 386.154 179.065 387.901 168.082 389.61C168.172 395.673 168.35 401.735 168.62 407.793C165.484 408.215 162.544 408.653 159.378 408.845C158.116 401.863 157.304 394.074 153.893 387.986C142.335 385.958 132.426 383.362 126.73 371.647C123.868 365.718 123.528 358.886 125.782 352.701C129.329 342.804 136.058 339.548 144.618 335.281Z" fill="#A5C46D"/>
<path d="M888.482 404.507C892.587 392.038 895.288 390.528 905.346 382.453C907.793 380.49 910.053 374.64 912.605 372.378C918.149 367.592 927.454 365.237 934.4 368.16C945.823 372.966 949.648 381.384 949.968 392.96C967.181 402.936 956.094 417.41 944.933 426.808C938.906 429.684 933.714 430.728 927.232 432.03C927.123 436.802 929.094 452.033 918.996 445.004C917.318 441.769 917.656 435.815 917.425 431.663C899.74 428.803 890.155 423.867 888.482 404.507Z" fill="#A5C46D"/>
<path d="M208.218 375.406C205.709 366.313 206.598 357.205 213.546 350.013C218.561 344.823 231.968 336.375 239.353 336.684C254.226 337.721 252.342 347.237 256.618 355.715C260.463 363.338 267.794 358.163 264.712 374.047C259.102 385.036 252.632 387.118 240.882 388.611C240.346 393.556 240.153 400.055 237.464 404.181L235.041 404.204C230.781 397.067 232.357 395.34 230.459 387.995C220.291 386.153 213.701 385.059 208.218 375.406Z" fill="#A5C46D"/>
<path d="M6.89205 420.767C30.4432 427.623 41.8402 433.129 62.014 446.823C109.199 481.615 131.09 534.467 126.123 592.745C125.851 595.935 123.086 610.295 123.843 612.255C123.361 613.16 119.429 617.807 118.533 618.9C101.078 571.333 77.7417 518.243 40.8613 482.171C43.5011 488.585 46.9773 495.12 50.1373 501.312C70.2092 540.642 91.9239 579.895 104.268 622.605C91.092 619.328 79.8613 614.155 69.0489 611.48C67.8917 610.911 62.4892 606.831 61.2855 605.954C46.3852 595.095 33.2718 581.95 23.3633 566.33C-4.01484 523.171 -4.2082 469.205 6.89205 420.767Z" fill="#A5C46D"/>
<path d="M928.308 613.959C928.734 608.708 926.382 601.249 925.671 595.78C924.843 589.391 924.33 583.625 924.1 577.15C922.891 533.141 940.341 490.67 972.141 460.224C993.024 440.579 1016.14 428.689 1043.46 421.06C1058.77 495.557 1048.44 567.144 981.036 612.523C977.963 612.605 965.629 617.64 961.351 618.771C956.151 620.144 951.369 621.256 946.016 622.385C964.028 567.164 983.501 533.899 1009.14 482.697C973.736 515.26 947.274 573.874 932.464 618.885C930.461 616.903 929.96 616.263 928.308 613.959Z" fill="#A5C46D"/>
<path d="M818.516 346.292C823.605 336.855 827.618 329.481 838.512 325.978C855.319 320.574 874.772 331.53 879.004 348.596C880.16 353.258 879.987 357.653 880.271 362.348C893.586 377.959 891.155 385.67 880.614 402.248C870.543 410.986 859.92 410.839 847.641 410.876C847.838 435.094 848.319 455.145 839.254 478.133C833.738 475.796 831.236 474.379 826.072 471.251C832.029 455.234 837.102 436.132 836.015 418.83C835.057 403.61 823.531 405.586 812.53 400.683C809.757 399.446 806.931 397.103 804.486 395.127C798.719 386.474 795.497 379.004 797.702 368.075C799.24 360.762 803.723 354.407 810.097 350.505C812.629 348.923 815.781 347.508 818.516 346.292Z" fill="#A5C46D"/>
<path d="M726.646 410.866C728.432 400.746 732.286 379.155 747.104 379.914C750.541 380.089 752.4 380.395 755.023 377.791C759.415 373.347 767.97 372.961 773.086 376.337C781.094 381.623 781.578 388.56 783.393 396.67C788.279 401.776 791.553 405.286 791.166 413.182C790.905 418.332 788.468 423.128 784.461 426.375C778.373 431.269 772.032 431.138 764.818 429.325C764.594 435.596 765.784 445.369 762.461 449.375C759.676 450.374 761.085 450.237 758.064 449.635C754.038 446.493 755.086 437.386 754.212 432.02C745.834 431.236 737.318 429.461 731.589 422.603C728.831 419.257 727.113 415.177 726.646 410.866Z" fill="#A5C46D"/>
<path d="M301.869 374.359C304.314 367.433 305.816 362.082 313.272 358.707C317.612 356.756 322.581 356.762 326.916 358.722C334.885 362.291 338.613 370.388 337.586 378.817C346.523 383.927 346.204 384.264 347.174 394.52C342.729 411.453 335.528 410.543 323.839 413.2C320.866 413.876 322.593 425.576 319.142 429.461C316.281 430.36 317.296 430.137 314.071 429.463C312.689 424.129 312.397 419.298 310.667 413.348L310.382 412.401C291.084 408.094 275.623 395.145 292.712 376.76C296.648 375.321 297.75 374.919 301.869 374.359Z" fill="#A5C46D"/>
<path d="M69.6097 440.528C123.792 469.269 161.489 558.624 123.843 612.255C123.086 610.295 125.851 595.935 126.123 592.745C131.091 534.467 109.199 481.615 62.0142 446.823C63.5761 444.187 66.3643 444.576 69.6097 440.528Z" fill="#F5F1CE"/>
<path d="M170.654 571.666C191.176 523.394 225.314 484.282 274.698 464.358C313.644 448.801 357.176 449.365 395.705 465.923C443.347 486.274 478.338 524.761 497.379 572.524C498.855 576.233 500.262 579.97 501.594 583.733C493.484 581.399 477.342 576.744 469.206 575.632C466.895 575.717 463.479 575.043 461.073 574.661C449.464 572.385 437.836 570.203 426.192 568.113C424.473 568.048 419.452 567.212 417.501 566.944L414.993 566.65C412.999 566.5 409.62 565.881 407.529 565.571C394.608 563.232 371.115 560.781 358.079 560.642C353.941 560.661 349.181 560.294 344.999 560.074C332.051 559.327 320.686 559.189 307.663 559.135C300.4 559.404 292.003 558.987 284.208 559.191C272.838 559.369 261.48 559.976 250.155 561.011C240.138 562.396 228.278 562.919 217.762 564.247C208.981 565.355 198.041 567.53 189.77 568.347C183.405 569.492 177.032 570.598 170.654 571.666Z" fill="#69A89B"/>
<path d="M170.654 571.666C191.176 523.394 225.314 484.282 274.698 464.358C313.644 448.801 357.176 449.365 395.705 465.923C443.347 486.274 478.338 524.761 497.379 572.524C498.855 576.233 500.262 579.97 501.594 583.733C493.484 581.399 477.342 576.744 469.206 575.632C467.457 573.192 460.828 558.843 458.955 554.93C457.316 553.629 456.363 551.714 455.24 549.9C452.195 542.764 436.553 520.637 431.467 513.082C434.512 512.12 436.648 512.09 437.204 508.774C434.023 505.892 431.361 507.166 427.625 508.248C425.502 506.115 423.396 504.187 421.184 502.155C411.484 498.059 401.065 481.041 391.238 479.911C388.884 479.641 371.596 487.127 364.867 486.806C361.802 487.517 361.485 488.193 358.798 486.449C352.809 482.567 344.878 475.404 339.968 470.191C324.277 467.647 309.453 474.77 296.17 483.088C292.289 480.387 289.429 478.367 285.268 476.103C270.472 481.991 258.213 488.112 245.538 497.705C251.397 500.198 257.773 503.082 263.877 505.054C266.852 506.013 270.405 504.096 272.472 505.424C272.569 508.02 271.985 508.618 270.726 510.873C271.252 514.061 270.912 512.937 273.253 515.649C272.749 516.098 271.811 517.059 271.273 517.266C267.659 519.299 266.581 520.612 263.749 523.504C255.008 512.796 248.721 510.796 235.735 506.912C218.96 516.203 195.494 550.7 189.77 568.347C183.405 569.492 177.032 570.598 170.654 571.666Z" fill="url(#paint0_linear_1_318)"/>
<path d="M377.344 472.324C396.564 478.426 407.675 486.77 421.184 502.155C411.484 498.059 401.065 481.041 391.238 479.911C388.884 479.641 371.596 487.127 364.867 486.806C372.003 483.589 379.713 481.958 387.333 480.168C383.53 477.503 380.629 475.629 377.344 472.324Z" fill="#6DB3A8"/>
<path d="M455.24 549.9C458.721 548.774 461.658 547.434 465.222 547.762L466.633 548.623C466.048 552.115 461.968 553.412 458.955 554.93C457.316 553.629 456.363 551.714 455.24 549.9Z" fill="#85B7A6"/>
<path d="M423.398 513.418C432.975 523.483 441.935 538.176 449.5 550.135C451.155 551.813 452.881 553.554 453.146 556.085C454.757 559.404 461.564 572.214 461.073 574.661C449.464 572.385 437.836 570.203 426.192 568.113C424.473 568.048 419.453 567.212 417.501 566.944L414.993 566.65C408.025 557.196 398.769 538.761 391.382 527.504C400.136 522.256 413.608 516.613 423.398 513.418Z" fill="#F5F1CE"/>
<path d="M426.192 568.113C430.344 565.542 448.814 557.008 453.146 556.085C454.757 559.404 461.564 572.214 461.073 574.661C449.464 572.385 437.836 570.203 426.192 568.113Z" fill="#F5F1CE"/>
<path d="M449.5 550.135C451.155 551.813 452.881 553.554 453.146 556.085C448.814 557.008 430.344 565.542 426.192 568.113C424.473 568.048 419.452 567.212 417.501 566.944C422.972 563.709 446.89 552.328 449.5 550.135Z" fill="#85B7A6"/>
<path d="M298.436 493.901C303.968 500.045 311.874 508.699 316.297 515.5C307.862 524.565 299.22 533.367 292.629 543.895C286.812 535.722 278.378 524.127 271.273 517.266C271.811 517.059 272.749 516.098 273.253 515.649C276.639 514.7 293.043 498.104 298.436 493.901Z" fill="#BEDCC4"/>
<path d="M358.08 560.642L357.459 559.293C361.824 550.212 377.751 537.235 385.837 531.098C389.483 536.272 406.804 560.847 407.529 565.571C394.608 563.232 371.115 560.781 358.08 560.642Z" fill="#F5F1CE"/>
<path d="M323.547 526.149C327.964 531.406 342.596 553.835 344.999 560.074C332.05 559.327 320.686 559.189 307.663 559.135C305.434 558.792 303.085 558.85 301.631 557.654C302.692 551.27 318.388 531.616 323.547 526.149Z" fill="#F5F1CE"/>
<path d="M266.575 528.02C271.721 536.13 282.58 550.891 284.208 559.191C272.838 559.369 261.48 559.976 250.154 561.011L249.736 560.225C249.447 554.527 262.565 533.385 266.575 528.02Z" fill="#BEDCC4"/>
<path d="M357.117 496.966C361.797 498.726 378.475 520.819 382.373 525.763C372.157 531.259 362.077 541.436 353.506 549.422L352.059 550.49C349.147 549.413 333.858 524.061 330.027 518.845C339.628 510.198 346.182 504.078 357.117 496.966Z" fill="#F5F1CE"/>
<path d="M391.932 484.474C397.019 485.809 414.852 503.415 419.724 508.402C409.854 511.51 400.188 515.99 390.843 520.423L389.045 521.216C385.654 519.99 368.688 497.749 364.513 492.855C374.548 489.014 381.527 486.874 391.932 484.474Z" fill="#FBFAF0"/>
<path d="M332.028 472.952C335.285 473.932 348.783 487.789 351.938 490.897C341.455 496.879 333.398 501.568 323.759 509.053C317.975 502.594 310.39 495.228 304.208 488.939C314.49 481.853 321.007 478.392 332.028 472.952Z" fill="#F5F1CE"/>
<path d="M386.166 412.733C396.543 404.214 406.057 396.919 417.249 389.716C514.427 327.156 647.603 340.716 729.893 422.006C737.126 429.151 745.37 436.307 751.892 444.279C744.656 446.207 737.326 447.969 730.398 450.789C728.863 451.201 725.194 452.056 723.967 452.702C710.493 458.382 700.831 462.995 687.999 470.593C685.727 472.106 683.127 473.933 680.818 475.303C671.864 482.025 663.274 489.221 655.083 496.856C643.427 492.725 633.798 489.715 621.53 487.715C617.405 487.451 613.911 487.438 609.925 486.329L596.318 486.369L589.916 486.494C575.747 487.506 564.662 489.527 551.539 495.317C547.431 496.669 543.339 498.071 539.263 499.524C532.615 502.16 526.443 504.634 519.648 506.86C512.213 508.455 508.566 508.242 501.124 506.761L492.817 504.839C475.251 502.661 453.855 490.835 441.451 478.387C430.981 469.353 421.795 461.675 410.321 453.987C405.727 451.422 401.216 448.712 396.795 445.863C386.269 439.788 378.349 435.938 367.445 431.001C373.258 424.306 379.458 418.501 386.166 412.733Z" fill="#6DB3A8"/>
<path d="M386.166 412.733C396.543 404.214 406.057 396.919 417.249 389.716C514.427 327.156 647.603 340.716 729.893 422.006C737.126 429.151 745.37 436.307 751.892 444.279C744.656 446.207 737.326 447.969 730.398 450.789C728.863 451.201 725.194 452.056 723.967 452.702C710.493 458.382 700.831 462.995 687.999 470.593C683.177 465.572 657.412 436.29 657.478 431.361C665.156 423.053 679.92 420.069 689.108 416.294L688.559 415.291C677.531 416.98 660.291 426.642 653.743 426.655C649.204 424.925 624.603 399.1 618.746 393.457C617.44 389.944 616 389.916 612.747 389.034C598.722 376.508 591.68 371.587 573.407 367.67L572.391 367.461C582.584 375.251 593.234 383.058 602.625 391.762C591.369 397.816 579.203 404.922 569.292 413.026C560.617 403.129 551.761 393.391 542.731 383.818C551.866 377.674 560.121 373.572 568.696 368.025C554.308 368.283 546.089 370.042 532.647 375.598C528.387 373.618 526.663 372.476 522.003 372.094L520.497 372.974C521.156 375.777 524.344 377.786 526.739 379.755C515.16 388.214 504.529 396.635 493.317 405.593C485.933 399.421 479.909 394.359 473.006 387.572L490.563 375.608C456.091 386.007 443.749 389.817 411.38 407.463C417.835 411.63 424.38 415.654 431.011 419.534C425.644 424.12 420.023 430.391 413.283 430.632C404.255 431.538 401.304 438.747 396.795 445.863C386.269 439.788 378.349 435.938 367.445 431.001C373.258 424.306 379.458 418.501 386.166 412.733Z" fill="url(#paint1_linear_1_318)"/>
<path d="M657.478 431.361C670.322 426.469 676.874 421.9 691.778 417.181C699.908 423.944 720.279 443.453 723.967 452.702C710.493 458.382 700.831 462.995 687.998 470.593C683.177 465.572 657.412 436.29 657.478 431.361Z" fill="#F5F1CE"/>
<path d="M642.513 383.193C660.593 393.311 671.074 399.962 687.524 412.948C679.409 415.504 660.463 421.551 653.743 426.656C649.204 424.925 624.603 399.1 618.746 393.457C626.855 389.15 634.389 386.881 642.513 383.193Z" fill="#FBFAF0"/>
<path d="M612.747 389.034C619.225 386.216 635.014 382.494 642.191 380.726C649.55 383.795 698.218 410.12 701.518 414.836L699.665 417.027C700.878 418.782 728.884 449.545 730.398 450.789C728.863 451.201 725.194 452.056 723.968 452.702C720.279 443.453 699.908 423.944 691.778 417.181C676.874 421.9 670.322 426.469 657.478 431.361C665.156 423.053 679.92 420.069 689.108 416.294L688.559 415.291C677.531 416.98 660.291 426.642 653.743 426.655C660.464 421.551 679.409 415.504 687.524 412.948C671.074 399.962 660.593 393.311 642.513 383.193C634.389 386.881 626.855 389.15 618.746 393.457C617.44 389.944 616 389.916 612.747 389.034Z" fill="#85B7A6"/>
<path d="M386.166 412.733C398.505 417.739 402.88 422.033 413.283 430.632C404.255 431.538 401.304 438.747 396.795 445.863C386.269 439.788 378.349 435.938 367.445 431.001C373.258 424.306 379.458 418.501 386.166 412.733Z" fill="#BEDCC4"/>
<path d="M609.528 473.478C622.67 459.259 633.39 447.378 649.743 436.658C660.239 449.329 671.06 462.085 680.818 475.303C671.864 482.025 663.274 489.221 655.083 496.856C643.427 492.725 633.798 489.715 621.53 487.715C615.751 482.242 613.979 479.904 609.528 473.478Z" fill="#F5F1CE"/>
<path d="M567.72 429.054C578.786 442.836 589.094 458.247 599.172 472.857C596.115 477.42 593.029 481.967 589.916 486.494C575.747 487.506 564.662 489.527 551.539 495.317C546.275 487.092 541.214 478.74 536.358 470.268C542.562 459.088 558.693 437.685 567.72 429.054Z" fill="url(#paint2_linear_1_318)"/>
<path d="M466.99 466.455C473.88 455.657 484.222 439.691 492.966 430.754C503.644 442.576 512.382 457.077 522.523 469.809C519.507 475.405 504.886 503.855 501.124 506.761L492.817 504.839C483.93 493.071 475.691 478.894 466.99 466.455Z" fill="#BEDCC4"/>
<path d="M424.372 433.401C431.902 445.052 440.549 455.526 448.969 466.548C446.434 470.921 444.575 474.368 441.451 478.387C430.981 469.353 421.795 461.675 410.321 453.987C414.277 447.354 419.471 439.378 424.372 433.401Z" fill="#BEDCC4"/>
<path d="M529.648 481.704L539.263 499.524C532.614 502.16 526.442 504.634 519.647 506.86C519.205 506.499 519.535 506.83 518.479 505.263C520.922 496.694 525.269 489.403 529.648 481.704Z" fill="#BEDCC4"/>
<path d="M596.318 486.369L603.758 478.647C605.373 480.369 609.482 484.386 609.925 486.329L596.318 486.369Z" fill="#85B7A6"/>
<path d="M609.285 397.201C616.88 402.151 638.094 424.614 644.589 431.694C629.881 442.593 621.004 451.116 608.208 463.788L605.916 465.036C601.666 462.748 579.523 428.889 574.517 421.925C585.577 411.119 595.836 404.561 609.285 397.201Z" fill="#F5F1CE"/>
<path d="M533.825 390.134C541.335 395.613 555.06 412.705 561.494 420.352C547.149 434.415 540.638 442.169 529.424 458.188C527.662 457.016 505.091 423.964 501.998 419.56C511.501 407.294 521.057 398.851 533.825 390.134Z" fill="#F5F1CE"/>
<path d="M453.924 402.634C457.086 399.962 460.527 397.168 463.581 394.413C471.316 401.24 479.75 408.722 486.127 416.82C482.737 420.447 478.869 424.42 475.619 428.106L470.043 435.105C465.639 441.428 461.291 447.792 456.995 454.19C448.92 443.918 440.731 433.737 432.424 423.651C436.897 418.71 441.044 414.558 445.807 409.888C448.156 407.562 451.391 404.871 453.924 402.634Z" fill="#BEDCC4"/>
<path d="M453.924 402.634C457.086 399.962 460.527 397.168 463.581 394.413C471.316 401.24 479.75 408.722 486.127 416.82C482.737 420.447 478.868 424.42 475.619 428.106L470.043 435.105C463.11 429.572 467.592 426.832 463.746 422.73C458.068 416.67 450.118 418.683 445.807 409.888C448.156 407.562 451.39 404.871 453.924 402.634Z" fill="#FBFAF0"/>
<path d="M598.278 609.201C604.598 588.729 608.988 575.347 620.192 556.417C641.289 521.429 675.348 496.187 714.962 486.182C754.976 476.352 797.255 482.681 832.638 503.799C868.182 525.485 892.015 560.328 901.9 600.501C896.569 599.15 889.8 597.979 884.313 596.875C881.681 596.489 879.052 596.082 876.426 595.654C863.333 592.799 848.2 591.009 834.9 589.406C828.199 589.068 819.093 588.874 812.632 587.925C800.622 586.987 790.35 586.795 778.372 586.897C769.817 587.056 760.736 586.899 752.14 586.888C741.328 586.965 730.523 587.501 719.755 588.495C712.584 589.345 705.398 590.063 698.201 590.648C687.543 591.943 676.9 593.347 666.27 594.863C647.456 598.625 631.318 601.4 612.637 606.248C607.71 606.492 603.06 607.946 598.278 609.201Z" fill="#6DB3A8"/>
<path d="M598.278 609.201C604.598 588.729 608.988 575.347 620.192 556.417C641.289 521.429 675.348 496.187 714.962 486.182C754.976 476.352 797.255 482.681 832.638 503.799C868.182 525.485 892.015 560.328 901.9 600.501C896.569 599.15 889.8 597.979 884.313 596.875C881.681 596.489 879.052 596.082 876.426 595.654L876.713 594.106C872.473 582.794 868.74 575.314 861.459 565.47L860.518 565.02C859.379 562.98 858.658 562.183 858.806 559.859L856.872 557.54C849.818 547.966 843.384 539.035 835.162 530.38C833.795 529.032 832.204 527.881 830.681 526.702C831.329 526.665 830.873 526.734 831.914 526.077L828.006 523.3C817.596 526.23 806.367 529.152 797.352 535.442C788.97 527.242 780.511 519.12 771.975 511.078C778.61 507.065 786.78 503.655 793.949 500.498C785.486 500.753 773.327 503.845 765.522 507.073C758.802 502.568 750.863 496.716 742.645 497.113L742.385 498.017C745.33 500.999 754.776 507.094 758.944 510.192C750.416 516.637 741.954 523.163 733.555 529.772C729.531 526.331 724.266 522.492 720.001 519.201L715.186 515.073C722.418 508.193 729.165 502.871 737.261 497.001C721.571 500.323 718.49 501.213 704.656 509.419C702.311 507.863 699.943 506.215 697.516 504.808C682.793 511.556 668.724 520.126 656.695 531.053C662.055 532.829 682.133 538.192 683.836 543.093L683.244 547.524C692.278 554.731 699.102 562.228 706.726 570.876L707.14 571.758C705.177 575.752 704.557 577.324 701.529 580.747C699.604 579.621 685.031 560.711 681.751 557.428L680.082 557.719C677.201 563.85 664.764 589.625 666.27 594.863C647.456 598.625 631.318 601.4 612.637 606.248C607.71 606.492 603.06 607.946 598.278 609.201Z" fill="url(#paint3_linear_1_318)"/>
<path d="M612.637 606.248C618.575 585.412 630.627 555.61 647.507 541.19C660.786 543.108 666.828 544.259 675.578 554.999C678.012 551.556 679.696 549.66 683.244 547.524C692.279 554.731 699.102 562.228 706.726 570.876L707.14 571.758C705.178 575.752 704.557 577.324 701.529 580.747C699.604 579.621 685.031 560.711 681.751 557.428L680.083 557.719C677.201 563.85 664.764 589.625 666.271 594.863C647.456 598.625 631.318 601.4 612.637 606.248Z" fill="url(#paint4_linear_1_318)"/>
<path d="M861.545 556.495C864.967 560.394 867.19 557.752 872.761 558.723L872.97 559.84C870.52 562.198 870.344 562.249 867.19 563.661C871.53 571.213 881.875 589.249 884.314 596.875C881.681 596.489 879.052 596.082 876.426 595.654L876.714 594.106C872.473 582.794 868.74 575.314 861.46 565.47L860.518 565.02C859.379 562.98 858.658 562.183 858.806 559.859L856.873 557.54C860.128 558.019 858.613 558.294 861.545 556.495Z" fill="#69A89B"/>
<path d="M828.006 523.3C822.302 518.555 797.044 502.241 795.498 499.321C801.121 497.025 829.962 517.513 834.96 521.583C836.949 523.202 839.418 521.492 843.185 524.781L842.926 525.899L838.962 528.3C837.459 530.155 837.385 529.302 835.162 530.38C833.795 529.032 832.204 527.881 830.681 526.702C831.329 526.665 830.873 526.734 831.914 526.077L828.006 523.3Z" fill="#69A89B"/>
<path d="M835.162 530.38C837.385 529.302 837.459 530.155 838.962 528.3C848.454 538.005 853.683 545.611 861.545 556.495C858.613 558.294 860.128 558.018 856.872 557.54C849.818 547.966 843.384 539.035 835.162 530.38Z" fill="#85B7A6"/>
<path d="M830.682 526.702C832.205 527.881 833.795 529.032 835.162 530.38C843.384 539.035 849.818 547.966 856.873 557.54L858.806 559.859C858.658 562.183 859.379 562.98 860.518 565.02L861.46 565.47C868.74 575.314 872.473 582.794 876.714 594.106L876.426 595.654C863.333 592.799 848.201 591.009 834.9 589.406C834.342 587.519 832.271 584.406 831.154 582.572C829.228 580.607 828.618 579.88 826.955 577.68C820.338 566.663 808.985 552.004 801.102 541.387C811.667 533.04 817.862 531.08 830.682 526.702Z" fill="#F5F1CE"/>
<path d="M831.154 582.572C839.982 575.567 851.22 570.008 861.46 565.47C868.74 575.314 872.473 582.794 876.714 594.106L876.426 595.654C863.333 592.799 848.201 591.009 834.9 589.406C834.342 587.519 832.271 584.406 831.154 582.572Z" fill="#F5F1CE"/>
<path d="M858.806 559.859C858.658 562.183 859.379 562.98 860.518 565.02L861.46 565.47C851.22 570.008 839.982 575.568 831.154 582.572C829.228 580.607 828.617 579.88 826.955 577.68C836.661 570.966 848.447 565.578 858.806 559.859Z" fill="#85B7A6"/>
<path d="M795.39 544.583C801.722 551.884 817.158 572.394 822.259 580.98L812.632 587.925C800.622 586.987 790.351 586.795 778.372 586.897C775.257 585.681 771.222 578.805 768.778 575.545C775.68 563.917 785.173 553.409 795.39 544.583Z" fill="#F5F1CE"/>
<path d="M683.836 543.093C684.344 545.734 683.652 544.877 685.302 546.269C691.115 541.889 699.988 527.092 709.095 520.834C714.655 525.572 720.053 530.921 725.343 535.992L726.603 537.944C725.491 542.439 709.174 562.465 706.726 570.876C699.102 562.228 692.279 554.731 683.244 547.524L683.836 543.093Z" fill="#BEDCC4"/>
<path d="M735.497 547.16C744.347 557.103 750.806 565.595 758.493 576.435L752.14 586.888C741.328 586.965 730.523 587.501 719.755 588.495L714.891 581.961C719.462 571.865 728.6 556.07 735.497 547.16Z" fill="#BEDCC4"/>
<path d="M680.083 557.719C685.849 563.307 695.399 575.722 700.615 582.264C699.925 584.413 698.448 588.558 698.201 590.648C687.543 591.943 676.9 593.347 666.271 594.863C664.764 589.625 677.201 563.85 680.083 557.719Z" fill="#BEDCC4"/>
<path d="M765.236 514.958C775.354 523.707 782.558 530.484 791.848 539.918C781.64 548.494 774.023 556.768 765.924 567.252C765.152 568.131 765.008 568.135 764.05 568.831C762.178 567.059 757.177 559.579 755.257 557.059C750.607 550.957 745.909 544.863 741.186 538.798C748.018 529.075 756.119 522.28 765.236 514.958Z" fill="#F5F1CE"/>
<path d="M470.977 684.333C490.127 673.863 517.5 663.379 537.764 655.882C636.992 619.174 746.975 600.529 852.294 616.855C869.815 619.571 888.031 621.327 905.304 625.962L904.619 627.455C901.371 628.206 900.878 627.819 898.401 628.221C901.27 628.844 905.526 629.288 907.825 630.496C884.985 636.185 847.533 642.782 824.054 643.858C802.017 644.869 779.668 643.176 756.354 644.981C697.365 649.547 639.224 664.942 584.085 686.029C563.707 693.821 542.96 704.014 523.376 713.377L493.179 695.891C485.782 692.149 478.335 688.177 470.977 684.333Z" fill="#C6D57B"/>
<path d="M493.179 695.891C517.868 687.471 540.621 676.882 566.95 668.784C658.533 640.617 746.591 628.435 842.321 627.423C861.53 627.221 879.43 628.063 898.401 628.221C901.27 628.844 905.526 629.288 907.826 630.496C884.985 636.185 847.534 642.782 824.054 643.858C802.017 644.869 779.668 643.176 756.354 644.981C697.365 649.547 639.224 664.942 584.085 686.029C563.708 693.821 542.96 704.014 523.376 713.377L493.179 695.891Z" fill="#A5C46D"/>
<path d="M268.279 583.484C364.419 577.476 460.803 590.439 551.939 621.635L559.923 623.818L559.146 624.035C548.914 626.849 537.484 628.603 526.856 631.342C495.417 639.21 465.367 651.839 437.746 668.793C426.063 664.023 414.414 658.807 402.686 654.259L389.724 649.701C414.069 634.887 440.355 623.523 467.826 615.936C479.266 612.851 492.279 611.198 503.341 607.393C496.594 607.122 490.767 606.987 484.054 607.585C446.525 613.03 410.403 623.727 379.019 645.939C368.104 642.62 356.88 639.345 346.047 635.846L336.197 633.22C351.328 620.791 374.813 608.08 393.002 600.667C400.343 597.677 408.334 595.524 416.015 592.358C409.64 592.784 404.931 593.187 398.64 594.16C368.28 601.499 351.473 612.424 326.413 630.289C315.29 627.243 304.088 624.902 292.824 622.451C290.289 621.757 287.518 621.392 284.906 620.955C298.542 607.191 320.049 595.278 337.288 586.536C332.135 586.96 325.873 588.398 320.705 589.438C305.397 595.266 286.62 607.66 274.514 619.03C258.455 616.159 243.601 613.941 227.539 611.454L227.373 610.456L228.119 610.019C241.844 597.615 255.544 593.358 268.279 583.484Z" fill="#C6D57B"/>
<path d="M402.686 654.259C407.357 652.885 419.518 644.32 425.011 641.385C444.96 630.318 464.891 622.593 486.746 616.846C502.126 612.8 543.592 626.096 551.939 621.635L559.923 623.818L559.146 624.035C548.914 626.849 537.484 628.603 526.856 631.342C495.417 639.21 465.367 651.839 437.746 668.793C426.063 664.023 414.414 658.807 402.686 654.259Z" fill="#A5C46D"/>
<path d="M346.047 635.846C370.189 621.461 398.601 598.102 428.298 599.595C445.954 600.484 463.248 606.459 481.194 606.215C481.991 606.204 483.422 607.18 484.054 607.585C446.525 613.029 410.403 623.727 379.019 645.939C368.103 642.62 356.88 639.345 346.047 635.846Z" fill="#A5C46D"/>
<path d="M292.824 622.451C298.218 617.393 309.589 611.557 315.8 606.366C332.754 592.195 347.559 589.042 369.169 591.679C378.193 592.781 388.099 592.836 397.631 594.04L398.64 594.16C368.28 601.499 351.473 612.424 326.413 630.289C315.29 627.243 304.088 624.902 292.824 622.451Z" fill="#A5C46D"/>
<path d="M228.119 610.02C237.29 612.09 254.76 595.226 266.459 592.295C280.646 588.741 306.452 587.327 320.705 589.438C305.397 595.266 286.62 607.66 274.514 619.03C258.455 616.159 243.601 613.941 227.539 611.454L227.373 610.456L228.119 610.02Z" fill="#A5C46D"/>
<path d="M134.744 625.456L135.935 625.324C151.213 623.782 184.994 625.794 200.402 627.012C295.175 634.398 387.426 661.138 471.46 705.576C498.272 719.767 525.172 736.184 548.798 755.3C546.22 757.503 543.654 759.721 541.099 761.953C538.646 763.993 536.021 766.504 533.634 768.679C494.456 733.746 437.801 703.875 388.117 688.823C312.716 666.162 239.413 640.184 159.815 636.663C151.617 636.3 136.345 635.668 134.744 625.456Z" fill="#A5C46D"/>
<path d="M94.6882 445.715C105.803 437.691 124.111 429.112 137.226 425.237C194.051 408.451 246.576 413.066 298.876 439.404C280.126 444.004 267.684 448.882 250.039 456.395C205.956 444.298 183.298 443.51 137.106 444.685L136.712 446.003C138.906 446.713 139.554 446.641 141.834 446.79C170.192 446.646 212.189 452.948 238.828 463.012C227.344 470.561 216.229 478.657 205.521 487.272C173.508 470.291 146.997 458.567 110.518 453.451C106.09 452.831 98.5992 448.169 94.6882 445.715Z" fill="url(#paint5_linear_1_318)"/>
<path d="M121.587 446.058C126.754 445.535 131.927 445.076 137.106 444.685L136.712 446.003C138.906 446.713 139.554 446.641 141.834 446.79C135.175 447.037 128.166 447.082 121.587 446.058Z" fill="#578352"/>
<path d="M561.93 510.762C581.999 511.377 589.669 523.487 590.686 542.276C597.418 549.378 600.611 557.932 597.107 567.245C590.63 584.469 571.11 594.969 560.879 574.646C560.854 581.97 561.128 595.792 560.336 602.607C558.58 603.814 558.65 603.352 555.989 603.218C554.408 603.028 552.829 602.814 551.254 602.577C547.769 599.672 547.658 589.375 546.01 584.046C539.152 583.124 532.97 582.569 526.754 579.269C507.475 569.032 502.624 549.72 521.139 535.764C524.2 520.849 530.647 511.657 547.136 517.59C553.02 513.232 554.49 511.889 561.93 510.762Z" fill="#A5C46D"/>
<path d="M536.289 722.618C543.122 718.379 561.35 710.688 569.005 707.495C617.648 686.816 668.375 671.428 720.31 661.599C730.49 659.627 750.91 655.791 760.95 655.254C756.057 657.315 748.651 658.727 743.28 659.937L742.009 660.491C733.899 663.98 723.037 666.342 715.399 670.153C672.61 691.502 626.851 706.721 585.743 731.307C579.915 734.792 571.7 739.526 566.622 743.698C561.003 739.748 553.858 735.006 548.684 730.686C544.721 728.343 540.194 725.195 536.289 722.618Z" fill="#8CB36D"/>
<path d="M536.289 722.618C543.122 718.379 561.35 710.688 569.005 707.495C617.648 686.816 668.375 671.428 720.31 661.599C730.49 659.627 750.91 655.791 760.95 655.254C756.057 657.315 748.651 658.727 743.28 659.937C737.02 659.024 728.153 664.271 721.749 665.993C660.119 682.56 606.097 702.657 548.684 730.686C544.721 728.343 540.194 725.195 536.289 722.618Z" fill="#A5C46D"/>
<path d="M898.298 455.328C913.546 453.607 925.309 455.917 939.863 459.887C937.995 462.326 935.334 465.421 933.231 467.696C921.593 480.3 914.102 494.704 905.91 509.611C896.565 505.95 888.361 505.004 878.464 504.379C886.977 495.448 891.795 491.472 901.893 484.45C906.662 481.165 911.327 477.734 915.883 474.159C897.412 480.36 886.823 488.212 871.421 499.654C862.447 493.304 855.228 487.933 845.885 481.759C861.35 467.194 877.208 458.328 898.298 455.328Z" fill="#A5C46D"/>
<path d="M257.77 584.353C259.552 584.056 258.958 584.122 260.808 584.413C257.656 586.744 247.233 590.246 242.964 592.232C231.703 597.47 224.261 602.841 214.919 610.809C198.744 607.882 170.867 607.51 153.799 607.05C150.846 606.864 147.332 606.955 144.331 606.955C176.121 592.344 223.037 586.312 257.77 584.353Z" fill="#C6D57B"/>
<path d="M118.536 466.043C137.463 466.839 158.698 474.797 175.341 483.492C172.155 484.55 167.945 486.377 164.737 487.653C157.762 490.645 148.376 496.181 141.294 499.846C133.559 487.597 127.968 477.292 118.536 466.043Z" fill="#A5C46D"/>
<path d="M905.304 625.962C909.083 626.805 912.85 627.702 916.604 628.648L907.826 630.496C905.526 629.288 901.27 628.844 898.401 628.221C900.878 627.819 901.371 628.206 904.619 627.455L905.304 625.962Z" fill="#A5C46D"/>
<defs>
<linearGradient id="paint0_linear_1_318" x1="335.318" y1="581.228" x2="344.888" y2="454.33" gradientUnits="userSpaceOnUse">
<stop stop-color="#F3EFC0"/>
<stop offset="1" stop-color="#FCFAEE"/>
</linearGradient>
<linearGradient id="paint1_linear_1_318" x1="567.304" y1="452.332" x2="582.791" y2="353.235" gradientUnits="userSpaceOnUse">
<stop stop-color="#EFEEC9"/>
<stop offset="1" stop-color="#FDFCF0"/>
</linearGradient>
<linearGradient id="paint2_linear_1_318" x1="561.485" y1="494.217" x2="576.228" y2="434.285" gradientUnits="userSpaceOnUse">
<stop stop-color="#D6E3C9"/>
<stop offset="1" stop-color="#FBF8DC"/>
</linearGradient>
<linearGradient id="paint3_linear_1_318" x1="748.857" y1="616.835" x2="758.223" y2="482.626" gradientUnits="userSpaceOnUse">
<stop stop-color="#F2EFC2"/>
<stop offset="1" stop-color="#FAFAEE"/>
</linearGradient>
<linearGradient id="paint4_linear_1_318" x1="616.498" y1="572.116" x2="704.288" y2="577.462" gradientUnits="userSpaceOnUse">
<stop stop-color="#538E8C"/>
<stop offset="1" stop-color="#68B3AA"/>
</linearGradient>
<linearGradient id="paint5_linear_1_318" x1="169.584" y1="487.615" x2="222.584" y2="396.121" gradientUnits="userSpaceOnUse">
<stop stop-color="#82AA6A"/>
<stop offset="1" stop-color="#BCD271"/>
</linearGradient>
</defs>
</svg>
