<svg width="1050" height="817" viewBox="0 0 1050 817" fill="none" xmlns="http://www.w3.org/2000/svg">
<path d="M548.971 0.0849609C556.799 1.31356 568.37 1.59124 576.723 2.4209C592.553 4.12274 608.289 6.6183 623.87 9.89746C734.262 32.6681 832.177 95.8516 898.431 187.068C908.614 200.927 918.231 215.192 927.263 229.828C930.116 234.486 934.636 241.67 936.578 246.576C941.983 256.806 946.558 270.628 951.116 281.476C972.945 333.427 985.395 381.08 986.917 437.698C952.2 461.731 925.558 489.895 917.738 532.993C913.017 559.05 914.329 589.255 929.842 611.639C930.371 612.401 930.927 613.143 931.501 613.865C931.912 610.492 928.329 594.328 927.792 588.771C919.999 507.965 969.882 441.383 1047.21 420.243C1048.06 425.057 1048.99 429.855 1050 434.636V0H1050L1050 817V512.225C1041.19 551.517 1026.5 580.483 993.745 605.567C991.503 607.281 986.644 611.001 984.366 612.082C953.312 636.917 918.112 656.045 880.379 668.575C854.758 677.014 810.894 685.278 784.296 690.012C695.346 705.843 609.399 726.303 542.381 791.78C534.31 799.666 527.062 808.295 519.801 817H519.509C505.925 795.178 475.924 769.579 455.082 755.059C420.551 731.001 379.067 709.573 338.202 698.774C315.155 692.684 287.031 691.34 263.285 687.93C209.437 680.197 157.984 667.491 111.225 638.54C96.9335 629.692 84.8397 622.076 72.3442 610.691C55.6304 600.766 37.3867 582.383 26.9077 565.934C10.9206 540.837 3.36238 506.992 3.15283 477.464C3.03367 460.664 6.782 436.362 10.3716 420.077C33.4063 426.495 45.81 432.345 65.2681 445.907C112.363 482.071 134.392 530.894 129.958 590.054C129.665 593.98 126.59 608.941 127.724 611.276C128.57 610.034 129.389 608.773 130.18 607.495C146.833 580.685 144.704 542.91 134.07 514.326C121.991 481.86 102.409 458.057 73.2271 439.897C72.3924 439.261 71.1198 438.368 70.9438 437.369C70.0229 432.143 70.8725 424.338 71.3745 419.185C75.4416 377.433 86.967 335.469 101.189 296.068C103.668 289.2 107.847 277.879 110.903 271.69C119.793 243.579 141.037 207.096 158.627 183.302C223.727 95.9476 317.983 34.8404 424.281 11.0752C441.543 7.2884 458.985 4.37557 476.54 2.34668C485.114 1.41704 496.026 1.22503 504.21 0H548.46L548.971 0.0849609Z" fill="#3D895A"/>
<path d="M390.013 411.975C405.024 399.966 417.228 390.755 434.195 381.223C479.581 356.241 531.553 345.835 583.054 351.418C639.588 357.686 691.586 380.867 732.205 420.528C739.123 427.283 748.158 435.161 754.087 442.621C754.464 443.096 754.83 443.578 755.187 444.068C747.088 445.959 741.913 447.132 734.134 450.202L727.65 452.578C715.257 456.802 702.757 463.553 691.501 470.21C689.039 471.637 686.028 473.822 684.018 474.945C673.843 482.604 667.658 487.794 658.385 496.578C644.538 491.5 638.958 489.874 624.612 487.36C615.546 485.85 602.274 486.054 593.163 486.168C580.202 487.391 567.251 489.138 555.275 494.802C551.16 496.221 546.922 497.621 542.866 499.18C536.397 501.341 528.915 504.697 522.819 506.563C516.975 507.629 509.955 507.433 504.097 506.574L496.486 504.777C474.196 499.707 461.812 492.612 444.447 477.876C434.076 468.73 424.953 461.273 413.442 453.749C408.931 451.033 404.477 448.409 400.044 445.555C389.801 439.974 381.153 435.691 370.629 430.728C374.586 425.203 384.724 416.371 390.013 411.975Z" fill="#6DAE9F"/>
<path d="M390.013 411.975C405.024 399.966 417.228 390.755 434.195 381.223C479.581 356.241 531.553 345.835 583.054 351.418C639.588 357.686 691.586 380.867 732.205 420.528C739.123 427.283 748.158 435.161 754.087 442.621C754.464 443.096 754.83 443.578 755.187 444.068C747.088 445.959 741.913 447.132 734.134 450.201C729.99 447.595 708.132 422.518 703.741 417.429C703.397 415.403 703.703 416.15 704.878 413.84C691.309 403.643 661.341 388.293 645.888 380.302C636.907 382.453 625.325 384.798 617.139 388.585C614.841 387.112 610.266 383.362 607.948 381.548C597.562 373.415 589.166 369.506 576.223 367.224C586.583 375.559 595.682 382.474 606.049 391.233C594.147 397.11 582.937 404.296 572.626 412.659C564.115 402.006 555.272 393.365 546.193 383.373C554.661 378.082 563.182 372.876 571.753 367.757C555.226 368.463 551.757 368.95 536.452 375.152C533.738 373.988 527.941 371.048 525.215 372.657L525.022 373.767C526.027 376.14 528.18 377.734 530.139 379.535C520.19 386.352 506.08 397.2 496.987 405.387C491.331 400.887 481.783 392.312 476.635 387.295C482.223 383.533 488.417 379.547 493.613 375.349C462.381 383.71 442.849 391.748 414.706 406.989C420.696 411.097 428.321 415.39 434.673 419.088C428.832 423.749 425.871 427.388 418.955 430.144C413.878 430.759 410.842 431.402 407.232 435.562C405.465 437.6 401.453 444.681 400.044 445.555C389.801 439.974 381.153 435.691 370.629 430.728C374.586 425.203 384.724 416.371 390.013 411.975Z" fill="url(#paint0_linear_4_853)"/>
<path d="M370.629 430.728C374.586 425.203 384.724 416.371 390.013 411.975C394.124 414.101 396.358 415.471 400.12 417.84C405.058 420.95 413.854 429.301 418.955 430.144C413.878 430.759 410.842 431.402 407.232 435.562C405.465 437.6 401.453 444.681 400.044 445.555C389.801 439.974 381.153 435.691 370.629 430.728Z" fill="#BCDCC1"/>
<path d="M612.785 473.005C618.374 467.463 623.637 461.367 629.387 455.754C637.198 448.131 643.892 442.717 652.636 436.265C662.602 446.873 671.552 458.961 680.698 470.303C681.902 471.796 682.987 473.326 684.018 474.945C673.843 482.604 667.658 487.794 658.385 496.578C644.538 491.5 638.959 489.874 624.612 487.36C620.272 483.169 616.35 477.859 612.785 473.005Z" fill="#F1EFCD"/>
<path d="M539.588 469.805C548.129 456.319 559.727 439.855 571.185 428.696C580.842 440.002 593.872 459.824 602.226 472.389C600.035 476.324 595.837 481.78 593.163 486.168C580.202 487.391 567.252 489.138 555.275 494.802C551.399 490.304 543.041 475.643 539.588 469.805Z" fill="url(#paint1_linear_4_853)"/>
<path d="M496.305 429.849C506.647 441.758 515.82 456.579 525.726 468.958C523.677 473.499 507.114 505.274 504.43 506.453C504.322 506.501 504.209 506.533 504.097 506.574L496.486 504.777C492.619 500.486 487.662 492.485 484.36 487.396C479.782 480.34 474.594 472.764 470.319 465.598C479.323 453.205 486.228 442.015 496.305 429.849Z" fill="#BCDCC1"/>
<path d="M694.915 416.536C704.207 423.619 722.162 442.39 727.65 452.578C715.257 456.802 702.757 463.553 691.501 470.21C684.953 465.309 664.704 438.927 660.308 431.447C672.334 425.575 682.517 421.438 694.915 416.536Z" fill="#F1EFCD"/>
<path d="M427.895 433.021C435.535 444.601 443.884 454.906 452.315 465.906C450.896 468.296 446.316 476.437 444.447 477.875C434.076 468.73 424.953 461.273 413.442 453.749C416.755 448.066 423.491 437.99 427.895 433.021Z" fill="#BCDCC1"/>
<path d="M532.693 481.351C536.134 487.265 539.526 493.209 542.866 499.18C536.397 501.341 528.915 504.697 522.819 506.563C522.25 506.27 521.772 506.204 521.815 505.683C522.303 499.728 529.972 486.206 532.693 481.351Z" fill="#BCDCC1"/>
<path d="M612.403 396.904C617.234 398.564 642.792 425.675 647.955 431.12C634.491 440.798 623.446 451.355 611.683 462.948C610.206 464.266 610.72 464.185 609.032 464.49C604.875 461.726 581.694 427.134 577.878 421.343C586.814 412.804 601.483 402.688 612.403 396.904Z" fill="#F1EFCD"/>
<path d="M537.349 389.734C543.463 394.297 559.613 413.13 564.853 419.848C550.199 434.461 544.673 441.047 532.949 457.722C528.955 454.586 509.183 424.788 505.23 419.171C514.282 407.692 525.128 397.752 537.349 389.734Z" fill="#F1EFCD"/>
<path d="M448.583 410.158C453.374 405.2 461.404 398.423 466.883 393.935C473.693 399.527 483.985 409.428 489.736 416.076C483.73 422.643 478.454 428.402 472.897 435.364C469.241 441.455 464.329 447.223 460.352 454.095C453.156 444.121 443.623 432.43 435.691 423.117C439.552 419.009 444.537 413.979 448.583 410.158Z" fill="#BCDCC1"/>
<path d="M448.583 410.158C453.374 405.2 461.404 398.423 466.883 393.935C473.693 399.527 483.985 409.428 489.736 416.076C483.73 422.643 478.454 428.402 472.897 435.364C468.836 431.829 469.739 424.802 466.288 421.669C460.287 416.222 454.483 417.12 448.583 410.158Z" fill="#FEFEFE"/>
<path d="M645.28 383.039C650.11 382.533 685.224 408.046 690.905 412.492C681.678 415.4 673.678 417.955 664.832 421.805C661.811 423.033 658.979 424.632 656.107 426.177C644.524 415.821 632.739 403.785 621.764 392.731C629.113 389.973 638.102 386.207 645.28 383.039Z" fill="#FEFEFE"/>
<path d="M606.99 479.946C608.59 481.123 611.096 482.781 611.202 484.906C609.988 486.026 610.368 485.667 608.185 485.691C606.378 485.731 604.791 485.962 603.176 485.258L603.05 484.465C604.358 482.875 605.616 481.465 606.99 479.946Z" fill="#85B6A1"/>
<path d="M174.295 571.215C193.385 523.633 227.717 485.437 275.188 465.125C313.766 448.644 357.34 448.334 396.149 464.262C449.909 485.868 485.951 529.509 504.824 583.344C495.46 580.6 481.988 576.597 472.436 575.427C469.408 574.908 465.685 574.703 463.12 574.189L430.023 568.009C427.254 567.249 421.723 567.531 418.492 566.267L417.98 566.163C416.365 566.153 412.51 565.511 410.717 565.252C392.61 562.423 378.528 561.044 360.332 560.011C356.328 559.642 352.229 559.619 348.203 559.532C333.637 559.137 319.07 558.825 304.501 558.598C299.697 559.045 292.428 559.144 287.53 559.001C275.782 559.244 264.041 559.813 252.323 560.706C249.249 561.288 245.635 561.505 242.489 561.774C225.954 563.185 209.436 565.607 193.045 568.19C186.63 568.85 180.619 570.034 174.295 571.215Z" fill="#6DAE9F"/>
<path d="M174.295 571.215C193.385 523.633 227.717 485.437 275.188 465.125C313.766 448.644 357.34 448.334 396.149 464.262C449.909 485.868 485.951 529.509 504.824 583.344C495.46 580.6 481.988 576.597 472.436 575.427C468.795 569.902 465.701 560.826 461.687 554.38C459.817 553.413 458.907 551.407 458.417 549.458C454.724 540.929 440.48 521.191 434.771 513.084C436.948 511.998 440.762 510.648 439.474 507.768C436.393 505.998 434.281 506.917 430.734 507.637C415.327 492.028 402.534 478.338 380.924 472.043C384.206 475.304 387.193 477.223 391.046 479.667C381.798 481.314 373.221 484.399 364.38 487.45C358.125 483.813 348.038 474.298 342.742 469.296C324.537 468.705 314.762 473.016 299.667 482.741C296.693 480.263 292.297 477.556 288.963 475.654C274.124 480.851 261.523 488.067 248.918 497.287C260.456 502.35 263.498 504.936 276.073 504.791C275.934 505.225 275.798 505.66 275.665 506.097C274.348 510.392 273.949 511.529 276.028 515.403L275.055 516.626C271.538 519.148 270.091 520.337 267.012 523.369C259.096 513.457 251.058 509.297 238.589 506.685C220.827 519.141 199.527 547.69 193.045 568.19C186.63 568.85 180.619 570.034 174.295 571.215Z" fill="url(#paint2_linear_4_853)"/>
<path d="M458.417 549.458C461.868 548.248 464.197 546.981 467.704 547.87L468.789 548.808C468.757 552.124 464.379 553.323 461.687 554.38C459.817 553.413 458.907 551.407 458.417 549.458Z" fill="#85B6A1"/>
<path d="M394.564 527.313C404.276 521.415 416.077 516.957 426.666 512.876C435.552 522.604 443.739 535.47 450.888 546.562L452.965 550.209C454.861 551.894 455.105 552.763 456.096 555.021C459.184 560.691 461.013 564.475 463.615 570.443L464.3 573.179C463.683 574.084 464.111 573.798 463.12 574.189L430.023 568.009C427.254 567.249 421.723 567.531 418.492 566.267L417.98 566.163C410.048 554.382 402.293 539.688 394.564 527.313Z" fill="#F1EFCD"/>
<path d="M430.023 568.009C433.932 564.552 450.639 557.587 456.096 555.021C459.184 560.691 461.013 564.475 463.615 570.443L464.3 573.179C463.683 574.084 464.111 573.798 463.12 574.189L430.023 568.009Z" fill="#F1EFCD"/>
<path d="M452.965 550.209C454.861 551.894 455.105 552.763 456.096 555.021C450.639 557.587 433.931 564.552 430.023 568.009C427.254 567.249 421.723 567.531 418.492 566.267C421.26 566.751 447.545 552.489 452.965 550.209Z" fill="#85B6A1"/>
<path d="M301.544 493.49C306.285 497.515 315.941 509.785 319.578 515.078C309.28 526.068 304.623 531 295.742 543.252C289.187 534.116 282.288 525.235 275.055 516.626L276.028 515.403C280.535 514.412 296.247 497.949 301.544 493.49Z" fill="#BCDCC1"/>
<path d="M388.972 530.836C393.495 536.921 408.895 558.666 410.717 565.252C392.609 562.423 378.527 561.044 360.332 560.011C364.145 550.446 380.441 536.758 388.972 530.836Z" fill="#F1EFCD"/>
<path d="M304.501 558.598C306.068 550.174 320.81 532.108 326.899 525.551C334.148 535.262 342.449 548.83 348.202 559.532C333.637 559.137 319.069 558.825 304.501 558.598Z" fill="#F1EFCD"/>
<path d="M269.742 527.623C275.006 535.624 285.267 550.137 287.53 559.001C275.782 559.244 264.041 559.813 252.323 560.706C254.156 551.293 264.287 536.161 269.742 527.623Z" fill="#BCDCC1"/>
<path d="M450.888 546.562C455.772 548.37 457.244 552.321 459.326 556.794C460.672 559.688 463.992 567.375 463.615 570.443C461.013 564.475 459.184 560.691 456.096 555.021C455.105 552.763 454.861 551.894 452.965 550.209L450.888 546.562Z" fill="#85B6A1"/>
<path d="M360.764 496.339C368.379 502.974 379.68 516.949 385.479 525.314C373.143 532.852 367.204 539.145 356.663 549.057C355.554 549.899 356.151 549.717 354.856 549.745C351.255 546.721 337.005 523.829 333.502 518.408C342.937 509.636 350.043 503.407 360.764 496.339Z" fill="#F1EFCD"/>
<path d="M392.796 484.754C399.937 483.646 417.395 502.535 423.012 507.886C413.382 510.812 405.46 514.471 396.441 518.834C395.229 519.435 393.093 520.245 391.775 520.797C385.095 514.134 374.299 500.303 367.919 492.517C375.227 489.303 385.077 486.613 392.796 484.754Z" fill="#FEFEFE"/>
<path d="M334.118 472.758L335.783 472.784C341 475.311 351.063 486.011 355.352 490.513C344.611 496.152 337.541 500.935 327.96 508.301L327.524 508.501C326.438 508.041 310 490.883 307.645 488.505C316.127 482.705 325.166 477.795 334.118 472.758Z" fill="#F1EFCD"/>
<path d="M601.604 608.75C607.418 586.896 615.862 565.83 628.791 547.186C652.342 513.777 688.055 490.943 728.255 483.592C768.542 476.391 810.041 485.36 843.763 508.554C868.158 525.74 886.988 549.694 897.931 577.461C900.77 584.498 903.53 592.406 904.842 599.882C899.099 598.646 893.335 597.508 887.553 596.464C884.876 596.102 882.049 595.772 879.419 595.219C865.838 592.555 852.131 590.579 838.351 589.298C831.08 588.398 822.876 588.342 815.414 587.853C807.866 586.949 798.28 586.712 790.687 586.639C781.947 587.282 765.09 586.58 755.257 586.723C746.224 586.794 737.542 587.441 728.567 587.793C724.573 588.449 705.323 590.265 700.731 590.446C691.625 591.52 678.176 592.829 669.435 594.706C650.933 597.592 633.987 601.873 615.97 605.817C611.067 606.464 606.416 607.632 601.604 608.75Z" fill="url(#paint3_linear_4_853)"/>
<path d="M601.604 608.75C607.418 586.896 615.862 565.83 628.791 547.186C652.342 513.777 688.055 490.943 728.255 483.592C768.542 476.391 810.041 485.36 843.763 508.554C868.158 525.74 886.988 549.694 897.931 577.461C900.77 584.498 903.53 592.406 904.842 599.882C899.099 598.646 893.335 597.508 887.553 596.464C884.876 596.102 882.049 595.772 879.419 595.219C880.017 594.809 879.75 595.006 880.107 594.172C878.007 585.665 869.816 572.233 864.829 564.959C864.44 563.757 863.122 561.8 862.411 560.649C861.895 560.098 862.063 560.279 861.77 559.536C854.509 549.316 843.574 533.462 833.65 525.933L832.747 525.67C833.342 524.865 832.971 525.222 834.386 524.982C837.681 527.94 842.334 529.376 844.792 524.672L843.882 523.656C835.664 522.043 829.808 515.603 822.717 511.211C816.525 507.377 809.954 502.932 803.179 500.187L802.489 499.912L802.548 499.244C800.675 498.787 800.784 498.456 799.569 499.151C800.868 502.111 826.694 519.593 831.191 522.844C819.507 525.897 810.934 528.438 800.463 534.859C792.116 526.649 783.644 518.566 775.051 510.615C782.227 506.575 789.762 503.77 796.788 499.755C785.627 501.276 779.496 502.669 768.879 506.591C764.711 503.951 751.641 495.301 746.819 496.721C746.534 499.992 759.255 507.668 762.326 509.701C753.594 515.981 745.128 522.623 736.95 529.609C731.361 525.085 723.684 519.264 718.5 514.666C725.658 507.547 732.757 503.151 739.722 496.859C724.465 499.827 721.877 500.952 708.426 508.822C705.863 507.369 703.311 505.897 700.769 504.407C684.757 511.725 673.657 518.622 660.332 530.528C667.654 533.183 683.114 536.98 687.224 542.716C687.103 543.967 687.068 546.569 686.475 547.401C682.775 549.725 681.38 550.981 678.81 554.555C670.37 544.999 664.111 541.767 650.926 540.732C634.21 553.226 621.418 586.293 615.97 605.817C611.067 606.464 606.416 607.632 601.604 608.75Z" fill="url(#paint4_linear_4_853)"/>
<path d="M862.411 560.649C863.083 559.67 863.512 559.007 864.105 557.981L866.77 558.262C869.268 558.124 872.722 557.687 874.928 558.612L875.528 559.392C874.92 561.19 873.401 561.834 871.739 562.658C871.318 562.869 870.895 563.075 870.471 563.277C876.222 573.507 883.392 585.628 887.553 596.465C884.875 596.102 882.049 595.772 879.418 595.219C880.016 594.809 879.75 595.006 880.107 594.172C878.007 585.665 869.815 572.234 864.829 564.959C864.44 563.757 863.122 561.8 862.411 560.649Z" fill="#6DAE9F"/>
<path d="M833.65 525.934L832.746 525.67C833.342 524.865 832.971 525.222 834.386 524.982C837.681 527.94 842.334 529.376 844.792 524.672L843.882 523.656C835.664 522.043 829.808 515.603 822.717 511.211C816.525 507.377 809.954 502.932 803.179 500.187L802.489 499.912L802.548 499.244C810.232 501.455 819.833 508.312 826.578 512.739C830.778 515.497 836.516 520.845 841.074 521.948C843.017 522.418 844.52 522.666 845.975 523.959L846.191 525.045C845.118 526.533 843.782 527.028 842.136 527.911C851.033 536.748 859.135 548.149 866.77 558.262L864.105 557.981C863.512 559.007 863.083 559.67 862.411 560.649C861.895 560.098 862.063 560.279 861.77 559.536C854.508 549.316 843.574 533.463 833.65 525.934Z" fill="#85B6A1"/>
<path d="M804.38 541.074C817.105 531.336 820.223 532.224 833.65 525.934C843.573 533.463 854.508 549.316 861.77 559.536C862.062 560.279 861.895 560.098 862.411 560.649C863.121 561.8 864.439 563.757 864.829 564.959C869.815 572.234 878.007 585.665 880.107 594.172C879.75 595.006 880.016 594.809 879.418 595.219C865.838 592.555 852.131 590.579 838.351 589.298C837.443 587.465 835.252 584.012 834.137 582.12C831.267 580.908 831.371 580.009 830.425 577.22C821.737 564.554 813.357 553.406 804.38 541.074Z" fill="#F1EFCD"/>
<path d="M834.137 582.12C835.795 581.114 837.539 579.707 839.208 578.604C847.346 573.223 856.049 569.183 864.829 564.959C869.815 572.234 878.007 585.665 880.107 594.172C879.75 595.006 880.016 594.809 879.418 595.219C865.838 592.555 852.131 590.579 838.351 589.298C837.443 587.465 835.252 584.012 834.137 582.12Z" fill="#F1EFCD"/>
<path d="M861.77 559.536C862.062 560.279 861.895 560.098 862.411 560.649C863.122 561.8 864.44 563.757 864.829 564.959C856.049 569.183 847.346 573.223 839.208 578.604C837.539 579.707 835.795 581.114 834.137 582.12C831.267 580.908 831.371 580.009 830.425 577.22C840.896 569.982 850.398 565.271 861.77 559.536Z" fill="#85B6A1"/>
<path d="M798.571 544.202C808.167 555.854 817.145 568.002 825.469 580.593C822.094 582.98 818.742 585.4 815.414 587.853C807.866 586.949 798.28 586.712 790.687 586.64C787 586.384 783.796 586.329 780.122 586.305C777.053 582.524 774.737 579.106 771.999 575.088C781.915 560.106 785.119 556.171 798.571 544.202Z" fill="#F1EFCD"/>
<path d="M712.138 520.348C718.501 525.671 724.522 531.389 730.165 537.47C722.454 549.222 716.171 557.871 709.767 570.434C704.021 564.209 692.986 551.906 686.475 547.401C687.068 546.569 687.103 543.967 687.224 542.716L687.7 546.153C690.126 545.623 701.44 531.267 704.001 528.466C706.6 525.648 709.314 522.94 712.138 520.348Z" fill="#BCDCC1"/>
<path d="M738.623 546.732C746.755 555.585 754.377 566.071 761.34 575.893C759.357 579.566 757.126 582.896 755.257 586.723C746.223 586.794 737.542 587.441 728.566 587.793C721.797 588.118 721.982 587.226 718.148 581.469C723.342 570.363 731.264 556.588 738.623 546.732Z" fill="#BCDCC1"/>
<path d="M669.435 594.706L669.069 593.955C669.043 587.424 680.067 562.871 683.48 556.939C689.354 563.517 698.798 575.025 703.998 582.259L700.731 590.446C691.624 591.52 678.176 592.829 669.435 594.706Z" fill="#BCDCC1"/>
<path d="M768.494 514.834C773.071 517.661 790.823 535.027 794.786 539.341C783.102 549.984 778.988 554.567 769.042 566.903C767.93 568.236 768.592 567.927 767.213 568.246C764.497 565.543 758.542 556.888 755.909 553.402C752.635 549.063 746.882 542.305 744.248 537.989C753.292 527.332 757.105 523.336 768.494 514.834Z" fill="#F1EFCD"/>
<path d="M570.345 499.123C571.246 499.103 601.669 510.318 604.007 511.603C606.096 512.751 608.576 514.444 609.167 516.896C612.718 531.636 552.77 537.542 545.835 550.852C545.161 552.146 545.104 553.418 545.61 554.784C548.446 562.45 570.511 569.534 577.955 573.216C583.801 576.11 592.717 580.639 594.765 587.392C602.482 612.834 520.405 634.293 507.529 658.934C505.777 662.286 505.193 665.982 506.445 669.614C508.006 674.14 511.857 677.625 515.71 680.243C531.448 690.938 565.975 700.507 585.281 707.546C593.997 710.687 602.476 714.451 610.652 718.809C583.942 733.002 558.739 747.228 536.775 768.458C532.907 764.945 529.598 762.045 525.517 758.789C493.967 733.39 450.318 710.095 412.481 696.251C405.109 693.543 397.667 691.031 390.163 688.717C383.52 686.737 376.086 684.956 369.768 682.246C369.105 681.261 368.692 680.475 368.446 679.3C364.204 659.03 404.814 642.653 419.43 637.066C444.202 627.597 516.191 609.214 528.745 588.416C537.008 574.726 506.929 568.047 504.336 555.763C500.292 536.601 557.437 526.333 569.875 521.431C571.867 520.646 574.655 519.401 575.676 517.43C576.227 516.366 576.192 515.2 575.718 514.113C573.31 508.592 559.959 505.143 554.496 503.132C559.95 501.62 564.821 500.326 570.345 499.123Z" fill="#26BCD7"/>
<path d="M542.71 677.82C537.75 675.805 525.361 670.795 526.807 663.386C527.151 661.626 527.894 660.596 529.545 659.811C534.385 657.509 539.619 655.79 544.677 653.984C558.92 648.818 573.307 644.059 587.821 639.714C676.469 613.33 764.907 602.698 856.601 616.502C876.618 619.515 892.153 621.563 912.023 626.465L918.813 628.202C889.193 635.828 851.974 642.735 821.465 643.923C797.835 644.843 778.14 643.336 753.627 645.468C689.507 651.043 634.124 667.434 574.814 690.777C563.892 686.798 553.488 681.997 542.71 677.82Z" fill="#C6D680"/>
<path d="M912.023 626.465L918.814 628.202C889.193 635.828 851.974 642.735 821.465 643.923C797.835 644.843 778.14 643.336 753.627 645.468C689.507 651.043 634.124 667.434 574.814 690.777C563.892 686.799 553.488 681.997 542.71 677.82C544.857 677.412 559.77 671.86 562.719 670.862C573.395 667.344 584.175 664.152 595.045 661.29C640.453 648.612 686.768 639.442 733.58 633.86C772.738 629.341 812.125 627.094 851.542 627.129C862.163 627.055 872.783 627.208 883.397 627.585C891.827 627.84 903.483 628.394 911.786 627.42L912.023 626.465Z" fill="#A7C56F"/>
<path d="M231.351 609.716C242.304 599.853 256.934 592.558 269.443 584.75C273.873 581.986 290.611 582.067 296.602 581.885C342.356 580.497 389.028 583.567 434.214 591.004C450.391 593.668 473.694 597.499 489.351 602.088C485.141 603.655 481.399 605.15 477.009 606.173C471.413 608.168 465.433 609.754 459.67 611.272C429.73 619.153 400.896 628.208 373.824 643.574C365.087 640.771 356.326 638.04 347.543 635.382L339.214 632.872C355.378 620.46 373.059 610.159 391.827 602.218C399.061 599.163 410.169 595.55 416.619 592.446L417.158 592.183C412.969 592.311 407.768 592.968 403.537 593.419C386.258 596.87 366.587 605.343 351.621 614.707C343.815 619.591 336.703 625.201 329.199 630.116C318.455 627.399 306.588 624.27 295.686 622.261L287.895 620.611C301.693 607.015 322.73 595.584 339.567 586.443C334.826 587.245 330.076 587.991 325.318 588.682C307.665 595.59 291.506 605.829 277.719 618.841C268.037 617.094 258.331 615.48 248.605 614C245.623 613.557 231.992 612.253 230.502 610.791C230.89 610.149 230.802 610.079 231.351 609.716Z" fill="#C6D680"/>
<path d="M347.542 635.382C360.3 630.277 369.006 621.697 381.065 615.101C392.839 608.661 410.528 599.574 424.138 599.169C431.866 598.939 446.256 601.154 453.901 602.48C460.408 603.609 471.067 604.521 477.009 606.173C471.413 608.168 465.433 609.754 459.67 611.272C429.73 619.153 400.896 628.208 373.824 643.574C365.087 640.771 356.326 638.04 347.542 635.382Z" fill="#A7C56F"/>
<path d="M295.686 622.261C300.547 618.175 307.869 614.221 312.443 610.211C343.204 583.252 365.568 591.659 403.537 593.419C386.258 596.87 366.587 605.343 351.621 614.707C343.815 619.591 336.703 625.201 329.199 630.116C318.455 627.399 306.588 624.27 295.686 622.261Z" fill="#A7C56F"/>
<path d="M231.351 609.716C237.473 612.72 260.488 593.92 269.518 592.13C284.419 589.177 310.855 586.269 325.318 588.682C307.665 595.59 291.506 605.829 277.719 618.841C268.037 617.094 258.331 615.48 248.605 614C245.623 613.557 231.992 612.253 230.502 610.791C230.89 610.149 230.802 610.079 231.351 609.716Z" fill="#A7C56F"/>
<path d="M98.6472 445.196C111.921 436.229 126.455 429.289 141.77 424.601C194.915 407.858 252.544 413.048 301.845 439.017C282.335 443.919 270.816 448.663 252.396 456.51C217.216 443.03 171.686 442.725 134.675 444.771L134.37 445.37C137.771 446.35 142.17 445.565 145.746 446.135C172.161 446.013 217.706 452.991 242.041 462.839C228.789 471.635 221.271 477.295 208.797 487.196C190.735 475.411 162.257 464.131 141.391 458.322C130.697 455.345 119.49 454.72 109.309 451.231C106.993 450.438 100.983 446.629 98.6472 445.196Z" fill="url(#paint5_linear_4_853)"/>
<path d="M145.746 446.135C143.458 446.34 128.596 446.531 127.798 445.404L128.814 445.251L129.053 445.667L129.359 445.189C131.068 444.997 132.946 444.898 134.675 444.771L134.37 445.37C137.771 446.35 142.17 445.565 145.746 446.135Z" fill="#8BB46E"/>
<path d="M149.802 624.401C211.671 622.521 300.032 636.842 358.748 656.984C355.402 661.421 352.504 665.535 351.472 671.118C351.167 672.77 351.391 674.855 350.783 676.15L349.464 675.949C339.562 672.302 323.613 667.757 313.346 664.74C281.743 655.15 249.571 647.549 217.018 641.98C194.976 638.372 172.971 637.342 150.855 634.88C145.629 634.297 138.936 631.837 138.496 625.676C140.108 624.066 147.18 624.441 149.802 624.401Z" fill="#A7C56F"/>
<path d="M927.518 366.8C944.972 365.865 951.407 376.175 953.212 391.987C954.698 393.198 956.63 394.717 957.942 396.041C968.852 407.034 955.272 422.326 945.009 427.463C940.652 429.643 935.256 430.593 930.553 431.597C930.507 436.684 931.1 442.793 927.718 446.633C926.251 446.392 923.981 446.278 922.96 445.195C920.026 442.093 920.782 435.357 920.773 431.337C908.102 428.864 895.114 424.912 892.316 410.917C889.316 395.905 900.437 390.015 908.893 381.672C917.337 373.344 913.144 369.773 927.518 366.8Z" fill="#A7C56F"/>
<path d="M904.297 454.613C916.289 453.247 931.319 456.41 942.885 459.514C937.781 465.485 931.264 472.823 926.734 479.107C920.117 488.29 914.128 499.548 908.76 509.568C900.396 505.088 890.911 504.623 881.584 504.106C889.14 495.41 899.881 487.619 909.209 481.058C912.862 478.451 915.733 476.364 919.196 473.46C901.935 478.993 888.592 488.501 874.622 499.617C865.704 492.731 858.464 487.711 849.099 481.575C862.186 466.932 884.837 456.462 904.297 454.613Z" fill="#A7C56F"/>
<path d="M593.53 698.132C641.89 679.858 679.687 669.574 730.473 659.81L730.994 659.985C733.107 660.683 733.649 660.805 735.908 661.067L736.065 661.64L735.855 661.887L739.508 661.968C732.766 664.869 725.49 667.044 718.58 669.966C686.775 683.499 655.221 697.617 623.935 712.312C618.922 709.526 614.209 707.161 609.059 704.626L593.53 698.132Z" fill="#A7C56F"/>
<path d="M735.856 661.886L739.508 661.968C732.766 664.869 725.491 667.044 718.581 669.966C686.775 683.499 655.222 697.617 623.935 712.312C618.922 709.526 614.209 707.161 609.059 704.626C610.975 703.582 626.622 697.701 629.684 696.472C664.422 682.526 700.186 673.14 735.856 661.886Z" fill="#8BB46E"/>
<path d="M260.187 583.859C261.521 583.738 261.677 583.625 262.959 584.085C261.753 585.944 254.698 588.273 252.347 589.134C239.235 593.942 228.67 601.431 218.086 610.307C201.626 607.566 173.05 607.162 155.731 606.688L148.368 606.519C175.675 592.142 228.662 586.145 260.187 583.859Z" fill="#C6D680"/>
<path d="M122.138 465.636C138.883 465.523 164.064 474.975 178.494 483.158L166.121 488.266C158.927 491.514 151.455 495.775 144.677 499.802C137.075 486.749 131.346 477.827 122.138 465.636Z" fill="#A7C56F"/>
<path d="M730.474 659.81C739.81 658.001 754.584 655.036 763.908 654.791C761.394 655.85 742.37 661.525 739.508 661.968L735.856 661.886L736.065 661.64L735.909 661.067C733.649 660.805 733.108 660.683 730.994 659.985L730.474 659.81Z" fill="#8BB46E"/>
<path d="M549.462 0H505.212C497.027 1.22503 486.115 1.4168 477.541 2.34645C459.987 4.37534 442.545 7.28875 425.283 11.0755C318.985 34.8408 224.729 95.9473 159.629 183.302C142.039 207.096 120.795 243.579 111.905 271.691C111.905 271.691 88 325 146 368C230 420.5 361.513 382.196 366.632 379.324C412.067 349.763 458.782 334.957 511.825 326.749C529.333 325.505 544.456 323.453 562.548 323.208C609.469 322.572 662.07 331.22 705.927 348.261C720.591 353.898 747.554 366.885 761.336 375.639C820.002 429.5 914.511 353.734 928.265 339C946.002 320 949.955 298 946.002 271C944.99 264.089 941.502 255.5 937.635 247.096L937.58 246.576C935.639 241.67 931.118 234.485 928.265 229.828C919.232 215.192 909.616 200.927 899.433 187.068C833.179 95.8516 735.264 32.6681 624.872 9.89746C609.291 6.6183 593.555 4.12308 577.725 2.42124C569.372 1.59155 557.801 1.31324 549.973 0.0846258L549.462 0Z" fill="#1F4269"/>
<path d="M210.688 367.498C210.786 359.742 212.896 353.642 218.704 348.336C224.868 342.706 235.266 336.03 243.813 336.284C255.946 336.764 256.474 345.265 259.953 354.308C261.09 357.262 266.584 360.95 268.35 364.392C272.031 371.573 265.582 379.313 260.083 383.498C254.157 386.563 251.045 387.069 244.602 388.43C244.046 392.811 243.684 400.041 240.686 403.104C235.996 404.12 234.876 391.109 234.302 387.726C221.537 384.635 211.822 382.742 210.688 367.498Z" fill="#A7C56F"/>
<path d="M706.99 76.2345C705.853 81.0079 703.269 94.5486 696.669 94.1528C690.973 93.5182 686.48 88.9249 681.346 86.6676C678.178 85.275 674.646 85.7002 671.787 84.3113C665.061 81.0433 668.38 74.3584 671.635 70.0267C677.271 62.5256 684.581 56.6191 690.241 49.256C712.12 58.8381 732.403 68.2687 753.113 80.367C822.842 121.355 880.084 180.58 918.686 251.674C915.149 254.668 911.558 257.781 907.922 260.64C897.052 243.592 894.172 231.909 872.148 225.746C870.308 226.644 868.414 227.366 867.022 228.811C865.584 234.883 880.965 238.32 878.495 248.684C874.752 264.391 849.341 269.604 836.256 271.518C830.085 261.583 801.581 199.754 788.633 207.59C786.143 215.978 824.424 280.137 831.728 286.75C839.93 288.344 846.333 286.561 854.41 284.828C842.391 321.961 826.905 317.336 808.619 344.803C798.737 359.646 802.889 371.501 786.79 390.818L786.418 390.982C785.177 389.806 784.902 387.888 784.263 386.295C779.491 374.406 772.321 370.598 760.333 375.639C746.551 366.885 719.589 353.898 704.925 348.261C704.926 343.286 705.12 337.022 704.53 332.194C704.227 320.183 703.005 304.781 693.747 296.067C681.049 284.116 662.51 291.48 647.775 294.293C638.352 296.092 628.206 297.185 618.578 296.907C603.885 288.238 588.231 268.087 579.667 253.506C583.347 241.524 582.939 228.836 586.39 218.099C587.214 215.537 588.322 213.827 590.065 211.796C595.153 205.865 601.506 201.105 606.879 195.426C613.759 188.157 619.634 179.708 627.038 172.982C631.619 168.822 684.395 163.342 691.831 163.947C694.272 164.146 695.953 164.921 697.509 166.885C700.404 170.536 700.711 175.562 703.052 179.451C707.392 186.663 724.826 192.959 732.822 195.845C738.539 193.307 743.851 190.655 749.455 188.085C761.773 194.067 797.064 210.86 788.504 180.017C786.723 173.6 768.383 177.198 764.504 172.05C755.492 162.012 754.537 148.66 741.749 166.066L741.465 165.737C738.618 162.386 736.369 158.695 733.359 155.193C725.981 146.612 716.79 140.823 706.766 135.838C710.718 139.456 724.043 150.83 722.639 156.372C717.01 159.166 697.049 141.818 691.495 137.895C685.432 138.056 676.826 138.111 671.824 140.881C658.185 148.447 652.765 163.353 634.395 162.076C629.151 161.712 627.201 161.877 622.146 157.966C615.803 153.059 616.245 136.143 624.752 133.614C629.224 132.286 647.798 136.912 649.649 128.281C650.463 123.301 641.755 116.02 638.183 113.054C655.495 111.126 664.692 103.387 680.626 99.1506C684.18 99.1934 690.121 100.273 693.373 100.592C698.905 101.135 711.407 100.475 714.986 95.3491C720.086 88.0423 714.126 78.7752 706.99 76.2345Z" fill="#F1EFCD"/>
<path d="M208.988 154.465C225.59 129.811 282.596 90.0325 309.4 75.1359C385.318 33.0004 471.795 13.7214 558.416 19.621C572.575 20.6825 595.089 23.0259 608.792 26.933C608.754 27.0312 608.715 27.1294 608.677 27.2275L608.476 27.7149C600.647 47.2072 586.945 49.6349 568.549 53.402C558.83 55.7563 547.01 57.6481 537.888 61.8089C526.381 67.0569 523.561 82.0031 508.08 71.2778C493.415 61.1175 510.119 44.1887 507.996 33.673C507.629 31.7612 506.469 30.0946 504.805 29.0865C495.094 23.307 450.754 34.7051 438.418 36.8412C426.801 38.8529 424.677 43.3464 419.158 52.3997C409.657 56.5358 367.374 61.8802 364.726 71.5012C365.882 76.1538 380.139 79.4624 385.293 84.1989C385.589 86.7075 385.727 90.6352 387.385 92.4386C395.41 92.8088 411.946 72.6866 418.105 68.094C423.347 64.1853 427.969 62.3344 433.991 60.0794C441.217 64.1007 474.685 83.9371 475.716 92.5316C477.196 104.877 440.583 105.093 431.439 105.399C433.78 109.347 439.858 116.873 440.977 120.493C435.976 128.273 426.177 122.233 419.129 123.16C414.124 123.818 408.011 127.431 403.529 129.79C392.357 135.667 348.797 165.383 342.72 175.224C337.879 183.063 336.481 193.913 333.735 202.703C329.341 193.206 326.358 186.866 318.332 179.857C306.128 180.02 294.121 181.072 281.668 181.092C266.707 189.644 253.973 208.771 262.206 226.134C268.918 240.287 292.846 214.794 299.551 216.923C301.097 219.372 299.536 231.432 299.3 235.342C328.828 241.121 304.4 254.643 323.103 264.419C336.809 271.583 349.539 256.966 360.982 251.988C370.607 247.8 378.261 251.34 387.571 254.565C396.635 257.174 403.923 257.153 412.405 262.639C422.677 269.283 434.206 274.322 444.064 281.668C448.727 285.111 453.652 293.553 459.016 295.637C486.224 306.21 498.498 294.481 510.823 326.749C457.78 334.957 411.065 349.763 365.63 379.324C352.267 365.834 326.973 342.191 319.672 328.839C308.843 309.034 361.348 278.37 312.971 271.725C310.275 271.355 302.128 265.501 300.117 263.296C283.452 245.038 267.15 242.425 244.527 236.891C229.534 233.024 228.294 215.829 225.321 202.431C223.69 195.102 221.38 187.94 218.424 181.038C215.3 189.879 212.12 199.402 208.647 208.058L208.988 154.465Z" fill="#F1EFCD"/>
<path d="M635.113 82.948C645.256 91.2961 662.298 107.876 637.114 110.38C632.235 103.52 631.745 103.443 623.777 100.113C622.279 99.488 622.074 99.0257 621.729 97.8157C622.721 94.5267 632.11 85.9259 635.113 82.948Z" fill="#F1EFCD"/>
<path d="M591.381 58.6766C596.802 58.5192 606.978 58.8966 608.828 65.401C607.94 69.0294 604.418 68.92 601.313 68.7457C596.925 68.1883 584.967 66.2653 584.002 61.0753L584.905 59.98C586.989 58.836 589.024 58.8592 591.381 58.6766Z" fill="#F1EFCD"/>
<path d="M461.709 46.2272C475.82 46.6928 467.559 56.7094 460.103 58.1969C456.545 57.9322 453.517 58.1466 451.959 54.534C452.273 50.1094 457.873 47.2771 461.709 46.2272Z" fill="#F1EFCD"/>
<path d="M10.3713 420.077C33.4063 426.496 45.81 432.345 65.2684 445.908C112.364 482.072 134.392 530.894 129.958 590.053C129.665 593.98 126.591 608.941 127.724 611.276C125.951 613.912 123.923 616.435 121.966 618.945C105.812 577.094 91.3172 538.646 62.7793 502.441C57.5829 495.85 51.3925 488.109 44.8951 482.809C49.4828 494.289 57.5728 508.413 63.2142 519.634C79.6727 552.37 98.051 587.053 107.712 622.541C100.41 620.128 93.1328 617.644 85.8804 615.086C81.9361 613.712 76.3102 611.542 72.3441 610.692C55.6301 600.766 37.3862 582.383 26.9072 565.934C10.9199 540.837 3.36239 506.992 3.15292 477.463C3.03375 460.664 6.78171 436.362 10.3713 420.077Z" fill="#A7C56F"/>
<path d="M931.501 613.865C931.911 610.492 928.329 594.328 927.791 588.77C919.999 507.965 969.883 441.383 1047.21 420.243C1048.06 425.057 1048.99 429.855 1050 434.636V512.224C1041.19 551.517 1026.5 580.483 993.745 605.567C991.502 607.281 986.644 611.002 984.366 612.082C981.686 612.088 969.19 616.629 965.681 617.709C960.066 619.437 954.397 620.97 948.673 622.306C965.845 568.897 988.385 531.358 1012.06 482.512C977.22 513.795 949.448 574.336 935.329 618.931L931.501 613.865Z" fill="#A7C56F"/>
<path d="M822.378 345.462C829.308 333.307 834.001 324.669 850.024 324.143C858.931 323.904 867.554 327.287 873.923 333.52C882.787 342.099 883.219 350.049 883.389 361.479C884.416 362.863 885.584 364.303 886.65 365.671C890.761 372.064 893.819 377.344 891.735 385.064C885.447 408.357 871.757 410.347 851.056 410.364C851.065 434.241 851.14 455.352 842.431 477.979C838.704 475.945 832.662 472.883 829.248 470.7C833.848 459.289 837.362 447.173 838.48 434.877C839.493 423.752 842.12 408.297 828.303 404.285C816.856 400.962 810.437 399.685 804.281 388.939C799.361 378.423 798.871 367.398 805.666 357.558C809.865 351.477 816.041 348.74 822.378 345.462Z" fill="#A7C56F"/>
<path d="M148.08 335.259C151.445 328.44 153.918 321.604 161.998 318.961C172.878 315.402 188.578 321.119 192.484 332.489C193.426 335.232 193.623 341 193.859 344.041C198.382 349.683 204.159 353.729 203.311 361.498C203.165 362.722 202.997 363.943 202.807 365.161C196.267 382.653 189.508 385.894 171.774 389.279C171.758 394.823 172.19 401.748 172.736 407.231C169.252 407.828 166.595 407.993 163.051 408.218C162.003 401.707 160.856 393.13 157.567 387.569C148.66 385.603 139.163 383.552 133.189 376.012C126.861 368.028 126.457 356.495 131.77 347.873C134.182 343.959 136.041 342.23 139.655 339.453C142.362 338.118 145.459 336.683 148.08 335.259Z" fill="#A7C56F"/>
<path d="M760.333 375.639C772.321 370.598 779.491 374.406 784.263 386.295C784.902 387.888 785.177 389.806 786.418 390.982C783.357 396.829 798.11 403.784 794.214 415.681C789.952 428.698 780.591 431.83 768.174 428.865C768.17 432.863 769.477 449.466 763.837 449.429C757.361 449.386 757.846 435.92 757.753 431.503C744.749 430.479 730.973 424.904 730.545 409.269C730.325 401.215 734.658 389.385 740.239 383.504C744.167 379.366 749.811 379.565 755.166 379.671C756.764 378.534 758.754 376.881 760.333 375.639Z" fill="#A7C56F"/>
<path d="M305.523 373.884C307.871 367.385 310.022 361.665 316.816 358.442C320.899 356.498 325.596 356.291 329.834 357.869C338.882 361.247 341.237 369.651 341.52 378.372C345.73 381.113 348.724 382.736 350.222 387.851C351.558 406.3 341.8 409.839 326.243 413.291C325.682 416.852 324.786 430.583 319.708 429.964C315.878 427.085 315.112 416.893 314.369 412.096C301.209 408.948 285.985 402.655 289.959 386.177C294 377.589 295.95 375.713 305.523 373.884Z" fill="#A7C56F"/>
<defs>
<linearGradient id="paint0_linear_4_853" x1="568.089" y1="453.531" x2="584.834" y2="351.989" gradientUnits="userSpaceOnUse">
<stop stop-color="#EFEFCB"/>
<stop offset="1" stop-color="#FCFDF1"/>
</linearGradient>
<linearGradient id="paint1_linear_4_853" x1="562.941" y1="495.308" x2="582.442" y2="433.884" gradientUnits="userSpaceOnUse">
<stop stop-color="#D3E2C8"/>
<stop offset="1" stop-color="#F9F8DA"/>
</linearGradient>
<linearGradient id="paint2_linear_4_853" x1="338.263" y1="584.579" x2="350.583" y2="453.783" gradientUnits="userSpaceOnUse">
<stop stop-color="#F0EFC0"/>
<stop offset="1" stop-color="#FBFCF0"/>
</linearGradient>
<linearGradient id="paint3_linear_4_853" x1="680.823" y1="650.059" x2="796.763" y2="489.589" gradientUnits="userSpaceOnUse">
<stop stop-color="#57978E"/>
<stop offset="1" stop-color="#7BBEAC"/>
</linearGradient>
<linearGradient id="paint4_linear_4_853" x1="752.025" y1="617.679" x2="761.999" y2="481.956" gradientUnits="userSpaceOnUse">
<stop stop-color="#EFEFC0"/>
<stop offset="1" stop-color="#FBFCF2"/>
</linearGradient>
<linearGradient id="paint5_linear_4_853" x1="173.113" y1="487.372" x2="226.302" y2="395.818" gradientUnits="userSpaceOnUse">
<stop stop-color="#84AB68"/>
<stop offset="1" stop-color="#BED578"/>
</linearGradient>
</defs>
</svg>
