<svg width="1152" height="1152" viewBox="0 0 1152 1152" fill="none" xmlns="http://www.w3.org/2000/svg">
<circle cx="576" cy="576" r="576" fill="#FBFAF0"/>
<path d="M286.23 797.408C288.557 799.798 290.619 801.861 292.418 803.597C294.289 805.258 295.787 806.631 296.912 807.716L300.172 810.862C301.069 811.583 302.117 812.522 303.317 813.679C304.366 814.692 305.64 815.922 307.139 817.368C308.638 818.815 310.326 820.516 312.203 822.472C310.777 825.149 309.463 827.862 308.259 830.609C307.203 833.353 306.215 835.802 305.296 837.955C304.237 840.552 303.287 843.037 302.445 845.409C301.603 847.782 300.586 850.636 299.393 853.972C298.412 856.789 297.184 860.237 295.71 864.315C294.307 868.318 292.732 872.95 290.984 878.212C294.051 876.684 296.862 875.271 299.418 873.973C302.048 872.747 304.312 871.676 306.212 870.758C308.403 869.687 310.336 868.658 312.013 867.671C313.69 866.683 315.694 865.432 318.024 863.917C319.99 862.63 322.319 861.041 325.011 859.152C327.778 857.334 330.907 855.142 334.398 852.575C336.571 854.673 338.52 856.554 340.244 858.217C341.968 859.881 343.503 861.29 344.85 862.445C346.274 863.819 347.585 865.012 348.781 866.022C349.981 867.179 351.665 868.659 353.833 870.462C355.702 871.976 358.096 874.07 361.017 876.744C364.085 879.415 367.864 882.699 372.353 886.597C369.694 886.203 367.335 886.097 365.276 886.281C363.363 886.463 361.747 886.713 360.427 887.031C358.887 887.427 357.608 888.002 356.59 888.757C355.717 889.362 353.903 890.941 351.149 893.495C348.47 896.121 345.247 899.235 341.481 902.839C337.861 906.439 333.989 910.302 329.863 914.427C325.813 918.625 322.016 922.634 318.475 926.454C314.933 930.274 311.899 933.643 309.372 936.561C306.993 939.477 305.629 941.49 305.281 942.601C304.938 944.007 304.637 945.744 304.379 947.811C304.191 949.656 304.083 951.868 304.055 954.447C304.102 957.098 304.417 960.297 305 964.044C301.407 960.866 298.413 958.194 296.017 956.027C293.696 953.932 291.749 952.198 290.178 950.826C288.382 949.238 286.959 947.937 285.909 946.924C284.785 945.839 283.212 944.394 281.191 942.588C279.395 941 277 938.906 274.007 936.307C271.086 933.633 267.269 930.239 262.554 926.124C264.761 925.937 266.893 925.678 268.95 925.347C271.006 925.015 272.805 924.652 274.345 924.256C276.179 923.855 277.865 923.383 279.403 922.84C281.302 921.922 284.21 919.734 288.126 916.276C291.536 913.342 296.21 908.949 302.146 903.097C308.155 897.17 316.003 889.037 325.691 878.699C322.024 879.648 318.508 880.742 315.141 881.981C311.922 883.217 308.996 884.374 306.363 885.452C303.366 886.758 300.516 888.061 297.813 889.361C295.038 890.737 292.009 892.301 288.725 894.054C285.878 895.504 282.483 897.222 278.54 899.208C274.672 901.266 270.365 903.479 265.619 905.847L261.129 901.949C263.423 898.372 265.427 895.095 267.142 892.118C268.93 889.065 270.355 886.388 271.419 884.085C272.698 881.41 273.759 878.96 274.604 876.735C275.373 874.438 276.248 871.881 277.23 869.064C277.996 866.619 278.865 863.694 279.836 860.288C280.882 856.954 281.993 853.177 283.17 848.957C275.043 855.879 268.589 861.667 263.81 866.319C259.103 870.897 255.559 874.57 253.177 877.338C250.289 880.631 248.307 883.134 247.233 884.847C246.453 886.556 245.791 888.667 245.246 891.181C244.769 893.326 244.338 896.023 243.954 899.271C243.717 902.517 243.675 906.385 243.829 910.876C242.18 909.285 240.456 907.621 238.657 905.885C236.858 904.149 235.173 902.595 233.601 901.224C231.73 899.563 229.932 897.9 228.208 896.237C226.337 894.575 224.13 892.663 221.586 890.498C219.343 888.622 216.687 886.349 213.619 883.678C210.551 881.007 206.925 878.014 202.74 874.7C205.402 875.242 207.728 875.532 209.718 875.57C211.78 875.534 213.508 875.392 214.904 875.146C216.594 874.895 218.096 874.463 219.411 873.851C220.215 873.468 221.668 872.337 223.771 870.458C225.949 868.651 228.523 866.358 231.494 863.58C234.54 860.873 237.837 857.757 241.384 854.232C245.005 850.779 248.626 847.252 252.245 843.651C256.012 840.048 259.633 836.521 263.107 833.07C266.654 829.545 269.802 826.358 272.551 823.509C275.447 820.658 277.835 818.259 279.716 816.31C281.596 814.361 282.79 813.124 283.296 812.599C284.156 811.258 284.904 809.808 285.539 808.25C286.105 806.914 286.482 805.323 286.67 803.478C286.858 801.633 286.712 799.61 286.23 797.408Z" fill="#1F4269"/>
<path d="M357.748 922.97C358.556 922.596 359.401 921.609 360.283 920.01C361.317 918.357 362.655 916.595 364.296 914.725C366.04 912.903 368.297 911.198 371.065 909.609C373.834 908.019 377.559 907.072 382.241 906.766C386.82 906.412 390.906 906.833 394.5 908.029C398.093 909.225 401.264 910.914 404.013 913.097C406.761 915.279 409.109 917.776 411.056 920.588C413.106 923.449 414.825 926.342 416.214 929.267C417.174 931.234 417.557 933.621 417.363 936.428C417.218 939.132 416.721 942.048 415.872 945.176C415.022 948.303 413.945 951.511 412.641 954.802C411.488 958.037 410.257 961.173 408.947 964.208C407.685 967.141 406.47 969.843 405.301 972.314C404.283 974.732 403.563 976.786 403.141 978.477C402.481 980.938 402.276 983.236 402.527 985.371C402.826 987.403 403.325 989.277 404.025 990.995C404.774 992.61 405.62 994.018 406.563 995.221C407.507 996.423 408.369 997.399 409.15 998.146C409.621 998.747 410.09 999.221 410.557 999.568C411.391 1000.47 412.112 1000.81 412.719 1000.59C411.419 1001.74 410.268 1002.71 409.266 1003.49C408.264 1004.28 407.438 1004.96 406.788 1005.54C405.986 1006.17 405.309 1006.66 404.756 1007.03C404.155 1007.5 403.526 1007.9 402.871 1008.22C402.318 1008.59 401.638 1008.96 400.831 1009.34C400.024 1009.71 399.192 1010.14 398.336 1010.61C397.241 1009.46 396.246 1008.24 395.351 1006.93C394.559 1005.67 393.846 1004.52 393.211 1003.46C392.42 1002.2 391.731 1001 391.145 999.837C390.559 998.678 390.074 997.44 389.688 996.123C389.357 994.958 388.999 993.717 388.613 992.4C388.331 991.132 388.2 989.81 388.221 988.434C386.97 989.48 384.575 990.679 381.037 992.03C377.602 993.43 373.544 994.283 368.861 994.588C364.228 994.791 359.245 994.135 353.912 992.62C348.681 991.154 343.594 988.054 338.65 983.32C336.465 981.278 334.605 978.948 333.07 976.331C331.584 973.612 330.553 970.729 329.977 967.684C329.504 964.687 329.589 961.577 330.233 958.352C331.028 955.073 332.638 951.802 335.065 948.538C337.491 945.275 340.216 942.845 343.239 941.251C346.262 939.656 349.426 938.695 352.732 938.369C356.038 938.042 359.482 938.222 363.064 938.909C366.646 939.595 370.21 940.588 373.755 941.887C376.481 943.051 379.086 944.472 381.569 946.151C383.639 947.635 385.643 949.528 387.578 951.83C389.563 954.029 390.919 956.624 391.646 959.616C394.126 954.108 395.966 949.685 397.168 946.347C398.521 942.954 399.509 940.333 400.131 938.485C400.694 936.23 401.015 934.618 401.096 933.648C400.922 932.683 400.746 931.591 400.566 930.372C400.49 929.201 400.21 928.061 399.727 926.95C399.293 925.736 398.58 924.58 397.588 923.48C396.596 922.381 395.251 921.492 393.555 920.816C391.755 920.09 390.146 919.896 388.726 920.233C387.306 920.569 386.02 921.158 384.866 921.999C383.863 922.785 383.018 923.771 382.331 924.959C381.643 926.146 381.183 927.251 380.95 928.276C380.864 928.991 380.856 929.807 380.927 930.723C381.047 931.535 381.297 932.473 381.676 933.535C382.056 934.597 382.742 935.678 383.735 936.777C381.22 935.966 378.987 935.224 377.035 934.553C375.133 933.779 373.463 933.178 372.027 932.751C370.385 932.226 368.973 931.747 367.791 931.314C366.61 930.881 365.173 930.454 363.482 930.032C362.046 929.604 360.277 929.082 358.174 928.465C356.071 927.849 353.61 927.189 350.792 926.485C351.751 926.057 352.634 925.655 353.441 925.281C354.297 924.804 355.053 924.405 355.709 924.085C356.413 923.662 357.093 923.291 357.748 922.97ZM372.223 952.317C370.321 951.543 368.248 951.129 366.004 951.076C363.809 950.92 361.65 951.222 359.526 951.981C357.451 952.638 355.46 953.65 353.553 955.016C351.797 956.328 350.408 958.066 349.385 960.229C348.362 962.391 347.975 964.54 348.226 966.675C348.628 968.756 349.46 970.726 350.724 972.584C352.09 974.491 353.755 976.035 355.717 977.215C357.782 978.444 359.991 979.237 362.343 979.594C364.641 979.798 367.031 979.543 369.513 978.826C372.043 978.007 374.365 976.962 376.477 975.693C378.639 974.321 380.416 972.83 381.808 971.22C383.249 969.507 384.055 967.935 384.228 966.504C384.671 963.437 383.694 960.706 381.298 958.312C378.95 955.814 375.925 953.816 372.223 952.317Z" fill="#1F4269"/>
<path d="M488.698 977.693C489.281 977.126 489.711 976.019 489.987 974.372C490.378 972.632 490.998 970.707 491.846 968.596C492.798 966.496 494.228 964.341 496.134 962.131C498.04 959.921 500.966 957.974 504.912 956.291C508.754 954.597 512.406 953.721 515.868 953.663C519.331 953.605 522.578 954.101 525.61 955.15C528.643 956.199 531.425 957.642 533.957 959.477C536.592 961.322 538.952 963.296 541.037 965.399C542.461 966.804 543.516 968.747 544.199 971.227C544.894 973.604 545.349 976.27 545.565 979.224C545.78 982.179 545.824 985.274 545.697 988.507C545.683 991.647 545.572 994.725 545.362 997.741C545.163 1000.65 544.934 1003.35 544.675 1005.84C544.53 1008.23 544.532 1010.22 544.681 1011.81C544.858 1014.13 545.377 1016.18 546.241 1017.94C547.115 1019.6 548.114 1021.07 549.238 1022.34C550.374 1023.5 551.53 1024.46 552.709 1025.21C553.887 1025.96 554.926 1026.54 555.827 1026.95C556.416 1027.33 556.964 1027.59 557.471 1027.75C558.464 1028.27 559.189 1028.35 559.647 1027.98C558.874 1029.36 558.175 1030.55 557.548 1031.53C556.922 1032.51 556.416 1033.35 556.03 1034.04C555.529 1034.83 555.096 1035.46 554.731 1035.95C554.356 1036.54 553.934 1037.07 553.465 1037.55C553.1 1038.03 552.626 1038.56 552.044 1039.13C551.461 1039.69 550.872 1040.31 550.279 1040.98C548.986 1040.33 547.756 1039.57 546.588 1038.71C545.524 1037.87 544.558 1037.09 543.691 1036.37C542.627 1035.53 541.666 1034.69 540.809 1033.87C539.953 1033.05 539.158 1032.13 538.427 1031.11C537.788 1030.2 537.103 1029.24 536.371 1028.22C535.743 1027.21 535.229 1026.11 534.83 1024.92C534.068 1026.2 532.366 1027.96 529.724 1030.2C527.185 1032.45 523.943 1034.42 519.997 1036.1C516.062 1037.68 511.565 1038.62 506.505 1038.93C501.55 1039.25 496.222 1038.12 490.521 1035.54C488.018 1034.44 485.707 1032.99 483.59 1031.2C481.483 1029.31 479.72 1027.13 478.3 1024.68C476.984 1022.24 476.114 1019.53 475.692 1016.55C475.383 1013.48 475.781 1010.17 476.884 1006.62C477.987 1003.07 479.601 1000.15 481.725 997.86C483.85 995.568 486.288 993.78 489.04 992.496C491.792 991.212 494.817 990.323 498.115 989.829C501.414 989.335 504.788 989.111 508.24 989.157C510.944 989.334 513.622 989.77 516.272 990.466C518.508 991.118 520.81 992.143 523.178 993.542C525.556 994.838 527.513 996.665 529.047 999.024C529.516 993.523 529.763 989.15 529.787 985.905C529.925 982.568 529.983 980.008 529.959 978.226C529.761 976.11 529.55 974.622 529.325 973.761C528.883 972.981 528.399 972.093 527.875 971.096C527.454 970.109 526.867 969.21 526.114 968.399C525.372 967.484 524.406 966.702 523.217 966.054C522.027 965.407 520.598 965.048 518.93 964.979C517.158 964.899 515.711 965.219 514.588 965.94C513.466 966.661 512.534 967.559 511.794 968.634C511.168 969.616 510.738 970.723 510.505 971.955C510.272 973.188 510.21 974.281 510.32 975.235C510.462 975.878 510.703 976.584 511.042 977.353C511.391 978.017 511.891 978.75 512.54 979.551C513.19 980.352 514.109 981.076 515.299 981.724C512.883 981.786 510.733 981.824 508.846 981.837C506.97 981.746 505.348 981.734 503.98 981.8C502.404 981.846 501.041 981.861 499.891 981.845C498.74 981.83 497.372 981.897 495.785 982.046C494.417 982.112 492.732 982.199 490.731 982.304C488.73 982.41 486.408 982.586 483.764 982.834C484.461 982.174 485.101 981.56 485.684 980.992C486.277 980.321 486.808 979.748 487.277 979.273C487.756 978.695 488.23 978.168 488.698 977.693ZM510.081 998.618C508.205 998.527 506.292 998.799 504.34 999.433C502.4 999.964 500.629 1000.88 499.027 1002.18C497.436 1003.37 496.026 1004.85 494.795 1006.61C493.679 1008.27 493.007 1010.19 492.781 1012.37C492.554 1014.54 492.872 1016.51 493.735 1018.28C494.713 1019.95 496.028 1021.4 497.681 1022.62C499.438 1023.85 501.342 1024.67 503.392 1025.1C505.546 1025.53 507.692 1025.55 509.829 1025.14C511.873 1024.62 513.857 1023.68 515.78 1022.31C517.714 1020.83 519.4 1019.23 520.838 1017.49C522.286 1015.65 523.367 1013.83 524.079 1012.02C524.803 1010.1 525.022 1008.5 524.737 1007.22C524.189 1004.44 522.519 1002.38 519.726 1001.04C516.944 999.595 513.729 998.789 510.081 998.618Z" fill="#1F4269"/>
<path d="M436.651 955.624L466.376 965.887C462.45 971.905 459.28 977.093 456.867 981.453C454.562 985.849 452.779 989.578 451.519 992.641C449.898 996.064 448.782 999.054 448.17 1001.61C447.738 1003.99 447.468 1006.6 447.36 1009.45C447.289 1011.83 447.433 1014.64 447.794 1017.88C448.155 1021.12 448.948 1024.51 450.174 1028.04C449.02 1027.17 447.723 1026.38 446.282 1025.66C444.841 1024.94 443.49 1024.31 442.229 1023.77C440.751 1023.16 439.238 1022.65 437.689 1022.26C436.139 1021.86 434.41 1021.47 432.5 1021.07C430.915 1020.78 428.987 1020.44 426.718 1020.04C424.448 1019.65 422.034 1019.32 419.476 1019.07C422.718 1014.75 425.365 1010.95 427.418 1007.67C429.579 1004.43 431.272 1001.69 432.497 999.453C433.865 996.787 434.892 994.607 435.576 992.914C436.296 990.752 437.107 988.32 438.007 985.618C438.943 982.807 439.843 980.105 440.708 977.511C441.572 974.916 442.274 972.629 442.814 970.647C443.39 968.557 443.606 967.188 443.462 966.54L442.381 964.378C441.912 963.621 441.192 962.541 440.219 961.136C439.39 959.659 438.201 957.822 436.651 955.624ZM456.481 934.49C459.147 934.057 461.525 934.489 463.615 935.786C465.813 937.119 467.308 938.758 468.101 940.703C468.894 942.648 468.733 944.576 467.616 946.486C466.607 948.431 464.212 949.855 460.429 950.756C456.682 951.55 453.71 951.28 451.512 949.947C449.314 948.614 448.017 946.921 447.62 944.868C447.223 942.814 447.727 940.76 449.132 938.707C450.573 936.545 453.023 935.139 456.481 934.49Z" fill="#1F4269"/>
<path d="M749.961 940.988L777.494 925.792C779.331 932.738 781.061 938.568 782.681 943.28C784.401 947.936 785.975 951.758 787.405 954.745C788.861 958.242 790.333 961.074 791.823 963.242C793.299 965.155 795.058 967.106 797.099 969.092C798.816 970.738 801 972.513 803.649 974.417C806.298 976.322 809.344 978.001 812.786 979.456C811.372 979.733 809.915 980.166 808.414 980.753C806.914 981.341 805.541 981.922 804.295 982.496C802.851 983.183 801.463 983.969 800.131 984.854C798.799 985.739 797.347 986.758 795.773 987.91C794.498 988.894 792.953 990.096 791.138 991.517C789.324 992.937 787.466 994.512 785.565 996.243C784.527 990.939 783.478 986.427 782.418 982.706C781.458 978.929 780.559 975.838 779.721 973.432C778.658 970.63 777.727 968.407 776.928 966.765C775.805 964.782 774.542 962.551 773.139 960.073C771.68 957.495 770.276 955.016 768.929 952.637C767.582 950.257 766.354 948.203 765.244 946.475C764.078 944.647 763.206 943.57 762.628 943.243L760.299 942.597C759.424 942.438 758.138 942.25 756.444 942.031C754.792 941.657 752.631 941.309 749.961 940.988ZM747.553 912.107C749.018 909.838 750.932 908.362 753.294 907.678C755.756 906.939 757.975 906.927 759.951 907.641C761.926 908.356 763.249 909.767 763.919 911.875C764.688 913.928 764.14 916.66 762.275 920.072C760.354 923.386 758.163 925.412 755.701 926.151C753.239 926.89 751.113 926.719 749.323 925.638C747.532 924.557 746.345 922.807 745.761 920.388C745.121 917.87 745.719 915.11 747.553 912.107Z" fill="#1F4269"/>
<path d="M775.612 880.306C778.528 878.492 780.959 876.979 782.903 875.769C784.938 874.49 786.576 873.443 787.819 872.63C789.243 871.677 790.361 870.888 791.173 870.262C792.055 869.727 793.138 868.893 794.423 867.76C795.526 866.766 796.991 865.493 798.817 863.943C800.574 862.303 802.757 860.19 805.367 857.604C805.431 858.993 805.56 860.188 805.755 861.188C805.881 862.098 806.017 862.928 806.163 863.678L806.602 865.929C806.839 866.609 807.075 867.29 807.312 867.97C807.479 868.561 807.716 869.241 808.022 870.012C808.418 870.714 808.849 871.46 809.315 872.252L830.166 856.192L836.717 868.619L816.793 882.24C819.887 887.191 822.317 890.999 824.083 893.666C825.849 896.332 827.094 898.322 827.817 899.634L829.424 902.28C831.795 905.918 834.409 909.873 837.267 914.143C840.055 918.323 842.815 922.093 845.547 925.454C848.279 928.814 850.82 931.459 853.169 933.389C855.449 935.228 857.265 935.627 858.619 934.584C859.973 933.541 860.959 932.207 861.576 930.581C862.193 928.955 862.526 927.333 862.573 925.714C862.711 924.026 862.623 922.512 862.31 921.171C861.927 919.74 861.527 918.754 861.11 918.213C860.693 917.671 860.071 917.144 859.244 916.63C857.75 915.624 855.616 914.534 852.844 913.362C855.948 911.978 858.736 910.837 861.209 909.939C862.48 909.536 863.661 909.201 864.751 908.937C865.932 908.603 867.283 908.209 868.804 907.757C870.144 907.443 871.825 907.012 873.846 906.462C875.867 905.912 878.263 905.288 881.035 904.592C879.327 906.482 878.335 908.182 878.058 909.689C877.794 910.467 877.701 911.186 877.778 911.846C877.911 913.326 878.231 915.236 878.74 917.577C879.179 919.827 879.212 922.39 878.838 925.266C878.465 928.142 877.366 931.29 875.541 934.709C873.807 938.058 870.707 941.596 866.243 945.322C861.598 949.187 857.317 951.19 853.399 951.332C849.571 951.404 846.167 950.718 843.186 949.275C840.226 947.672 837.752 945.767 835.764 943.559C833.776 941.351 832.424 939.876 831.708 939.133C830.992 938.39 829.427 936.36 827.015 933.041C824.602 929.722 821.992 926.052 819.183 922.032C816.304 917.921 813.565 913.991 810.964 910.241C808.295 906.402 806.299 903.624 804.978 901.909C804.283 901.007 803.598 900.024 802.924 898.962C802.298 898.149 801.638 897.292 800.942 896.389C800.268 895.327 799.583 894.344 798.888 893.442L779.151 908.427L772.395 901.336L792.58 886.652C791.634 885.798 790.713 885.069 789.817 884.466C788.941 883.702 788.204 883.119 787.607 882.716C786.849 882.293 786.161 881.96 785.543 881.717C784.834 881.544 784.046 881.361 783.177 881.167C782.378 881.063 781.34 880.928 780.062 880.762C778.783 880.596 777.3 880.444 775.612 880.306Z" fill="#1F4269"/>
<path d="M842.32 872.683C843.912 871.513 845.33 870.447 846.576 869.483C847.683 868.52 848.686 867.659 849.586 866.902C850.555 866.076 851.455 865.25 852.286 864.423C853.047 863.666 853.982 862.667 855.09 861.427C855.991 860.393 857.168 859.084 858.623 857.5C860.077 855.778 861.774 853.745 863.714 851.402C863.851 851.817 864.435 852.958 865.466 854.825C866.428 856.623 867.734 858.767 869.385 861.257C870.967 863.679 872.824 866.307 874.957 869.144C877.091 871.843 879.363 874.404 881.773 876.827C884.184 879.113 886.734 881.053 889.423 882.648C892.043 884.174 894.63 884.975 897.185 885.051C902.502 885.134 906.44 884.454 908.999 883.011C911.627 881.499 913.358 879.639 914.192 877.431C915.027 875.224 915.24 872.945 914.832 870.597C914.424 868.248 913.842 866.278 913.087 864.688C910.957 860.47 908.24 856.492 904.936 852.754C902.044 849.57 898.427 846.419 894.085 843.3C889.743 840.181 884.466 837.854 878.255 836.318C880.193 834.666 881.854 833.22 883.239 831.981C884.623 830.742 885.834 829.674 886.873 828.78C888.049 827.747 889.087 826.852 889.987 826.095C890.818 825.406 891.718 824.511 892.687 823.409C893.587 822.513 894.626 821.411 895.803 820.102C896.981 818.655 898.297 817.071 899.752 815.348C906.778 821.858 913.047 827.675 918.558 832.8C923.999 837.855 928.787 842.391 932.919 846.407C937.052 850.285 940.599 853.712 943.561 856.689C946.453 859.597 948.898 862.055 950.895 864.063C955.578 868.909 958.504 872.266 959.673 874.133C961.254 876.831 962.385 879.976 963.066 883.568C963.816 887.092 963.945 890.752 963.451 894.549C963.027 898.415 961.843 902.21 959.9 905.933C958.094 909.657 955.392 913.034 951.793 916.063C948.264 919.023 945.22 921.155 942.661 922.46C940.241 923.766 938.098 924.589 936.233 924.929C934.437 925.201 932.883 925.162 931.572 924.813C930.33 924.396 929.158 923.84 928.055 923.147C927.021 922.523 926.021 921.933 925.056 921.378C924.09 920.823 923.021 920.579 921.847 920.644C920.465 920.779 919.049 920.948 917.598 921.151C916.286 921.355 914.904 921.627 913.453 921.969C912.071 922.241 910.793 922.618 909.618 923.098L930.499 899.848C930.702 901.298 931.01 902.508 931.421 903.475C931.833 904.443 932.245 905.204 932.658 905.758C933.209 906.45 933.76 906.934 934.312 907.212C935.415 907.767 936.795 908.185 938.452 908.466C940.246 908.747 942.008 908.579 943.736 907.962C945.532 907.414 947.124 906.245 948.51 904.453C949.965 902.592 950.973 899.867 951.535 896.278C951.957 893.241 951.311 889.683 949.595 885.604C948.085 882.148 945.369 877.894 941.446 872.842C937.524 867.791 931.531 861.975 923.47 855.393C926.493 860.925 928.068 865.901 928.195 870.321C928.321 874.741 927.828 878.538 926.714 881.711C925.462 885.437 923.519 888.677 920.888 891.432C917.15 894.875 913.621 897.49 910.302 899.276C906.914 900.994 903.7 901.986 900.661 902.255C897.622 902.523 894.688 902.204 891.859 901.299C889.031 900.256 886.238 898.764 883.481 896.823C880.724 894.882 878.175 892.735 875.833 890.381C873.423 887.957 871.185 885.707 869.119 883.63C867.122 881.484 865.297 879.58 863.644 877.919C861.922 876.188 860.372 874.975 858.992 874.281C857.544 873.656 855.957 873.168 854.232 872.818C852.782 872.469 851.057 872.257 849.054 872.183C846.914 872.108 844.669 872.275 842.32 872.683Z" fill="#1F4269"/>
<path d="M660.507 911.321C663.882 909.197 667.283 907.864 670.712 907.322C674.176 906.623 677.489 906.221 680.653 906.114C683.913 905.947 686.968 905.775 689.818 905.597C692.607 905.322 695.11 904.487 697.328 903.092C699.003 901.903 700.828 900.418 702.803 898.636C704.489 897.037 706.343 895.063 708.364 892.714C710.422 890.207 712.526 887.133 714.676 883.492C713.436 888.58 712.471 892.822 711.781 896.217C711.127 899.456 710.694 902.084 710.483 904.102C710.2 906.433 710.043 908.215 710.01 909.447C710.099 910.872 710.233 913.009 710.411 915.859C710.564 918.455 710.756 921.968 710.987 926.4C711.157 930.735 711.483 936.386 711.963 943.353C707.776 936.699 703.854 931.965 700.198 929.151C696.639 926.275 693.481 924.359 690.724 923.401C687.497 922.336 684.544 922.243 681.865 923.121C679.562 924.166 677.683 925.887 676.229 928.283C674.715 930.582 673.504 933.364 672.596 936.627C671.785 939.83 671.264 943.388 671.035 947.302C670.841 951.058 670.883 954.869 671.161 958.732C671.535 962.535 672.18 966.235 673.097 969.831C673.953 973.331 675.026 976.425 676.314 979.114C677.421 981.514 679.011 984.148 681.085 987.016C683.098 989.787 685.413 992.503 688.03 995.164C690.586 997.729 693.305 1000.12 696.186 1002.35C699.067 1004.57 702.008 1006.36 705.007 1007.7C708.042 1008.89 711.027 1009.57 713.962 1009.74C716.837 1009.81 719.545 1008.99 722.088 1007.25C724.86 1005.24 727.158 1002.58 728.983 999.276C730.605 996.506 731.851 993.03 732.719 988.848C733.527 984.571 733.3 979.397 732.037 973.326L755.901 963.759C754.463 975.164 751.987 984.598 748.471 992.06C745.052 999.462 741.514 1005.39 737.856 1009.85C733.549 1014.98 728.954 1019.02 724.072 1021.95C717.572 1025.1 710.73 1026.85 703.546 1027.2C696.361 1027.55 689.505 1026.81 682.978 1025C676.487 1023.03 670.572 1020.15 665.234 1016.38C659.897 1012.6 655.825 1008.16 653.02 1003.06C651.149 999.662 649.427 995.429 647.854 990.361C646.219 985.197 644.91 979.694 643.926 973.852C643.038 967.949 642.597 961.9 642.602 955.705C642.607 949.509 643.204 943.614 644.395 938.019C645.524 932.327 647.398 927.177 650.017 922.567C652.671 917.801 656.168 914.052 660.507 911.321Z" fill="#1F4269"/>
<path d="M599.971 101.085C607.799 102.314 619.37 102.591 627.724 103.421C643.554 105.123 659.289 107.618 674.869 110.897C785.262 133.668 883.177 196.852 949.431 288.068C959.614 301.927 969.23 316.192 978.263 330.828C981.116 335.486 985.637 342.67 987.578 347.576C992.983 357.806 997.558 371.628 1002.12 382.476C1023.94 434.427 1036.4 482.08 1037.92 538.698C1003.2 562.731 976.559 590.895 968.739 633.993C964.017 660.05 965.329 690.255 980.842 712.639C981.371 713.401 981.927 714.143 982.501 714.865C982.911 711.492 979.329 695.328 978.791 689.771C970.998 608.965 1020.88 542.383 1098.21 521.243C1099.06 526.057 1099.99 530.855 1101 535.636V918H1101V613.225C1092.19 652.517 1077.5 681.483 1044.74 706.567C1042.5 708.281 1037.64 712.001 1035.37 713.082C1004.31 737.917 969.112 757.045 931.379 769.575C905.758 778.014 861.893 786.278 835.296 791.012C746.346 806.843 660.399 827.303 593.381 892.78C585.31 900.666 578.062 909.295 570.801 918H570.509C556.925 896.178 526.924 870.579 506.081 856.059C471.551 832.001 430.067 810.573 389.202 799.774C366.155 793.684 338.031 792.34 314.284 788.93C260.436 781.197 208.983 768.491 162.225 739.54C147.933 730.692 135.839 723.076 123.344 711.691C106.63 701.766 88.3864 683.383 77.9075 666.934C61.9203 641.837 54.3621 607.992 54.1526 578.464C54.0334 561.664 57.7817 537.362 61.3713 521.077C84.4063 527.496 96.8103 533.345 116.269 546.907C163.364 583.071 185.392 631.894 180.958 691.054C180.665 694.98 177.591 709.941 178.725 712.276C179.571 711.035 180.389 709.773 181.18 708.495C197.833 681.685 195.704 643.91 185.07 615.326C172.991 582.86 153.408 559.057 124.227 540.897C123.392 540.261 122.12 539.367 121.944 538.369C121.023 533.143 121.872 525.338 122.374 520.185C126.441 478.433 137.968 436.469 152.19 397.068C154.669 390.2 158.846 378.879 161.903 372.69C170.793 344.579 192.037 308.096 209.627 284.302C274.727 196.948 368.984 135.84 475.281 112.075C492.543 108.288 509.985 105.376 527.539 103.347C536.113 102.417 547.025 102.225 555.21 101H599.46L599.971 101.085Z" fill="#3D895A"/>
<path d="M441.013 512.975C456.024 500.966 468.228 491.755 485.195 482.223C530.581 457.241 582.553 446.835 634.054 452.418C690.588 458.686 742.586 481.867 783.205 521.528C790.123 528.283 799.158 536.161 805.087 543.621C805.464 544.096 805.83 544.578 806.187 545.068C798.088 546.959 792.913 548.132 785.134 551.202L778.65 553.578C766.257 557.802 753.757 564.553 742.501 571.21C740.039 572.637 737.028 574.822 735.018 575.945C724.843 583.604 718.658 588.794 709.385 597.578C695.538 592.5 689.958 590.874 675.612 588.36C666.546 586.85 653.274 587.054 644.163 587.168C631.202 588.391 618.251 590.138 606.275 595.802C602.16 597.221 597.922 598.621 593.866 600.18C587.397 602.341 579.915 605.697 573.819 607.563C567.975 608.629 560.955 608.433 555.097 607.574L547.486 605.777C525.196 600.707 512.812 593.612 495.447 578.876C485.076 569.73 475.953 562.273 464.442 554.749C459.931 552.033 455.477 549.409 451.044 546.555C440.801 540.974 432.153 536.691 421.629 531.728C425.586 526.203 435.724 517.371 441.013 512.975Z" fill="#6DAE9F"/>
<path d="M441.013 512.975C456.024 500.966 468.228 491.755 485.195 482.223C530.581 457.241 582.553 446.835 634.054 452.418C690.588 458.686 742.586 481.867 783.205 521.528C790.123 528.283 799.158 536.161 805.087 543.621C805.464 544.096 805.83 544.578 806.187 545.068C798.088 546.959 792.913 548.132 785.134 551.201C780.99 548.595 759.132 523.518 754.741 518.429C754.397 516.403 754.703 517.15 755.878 514.84C742.309 504.643 712.341 489.293 696.888 481.302C687.907 483.453 676.325 485.798 668.139 489.585C665.841 488.112 661.266 484.362 658.948 482.548C648.562 474.415 640.166 470.506 627.223 468.224C637.583 476.559 646.682 483.474 657.049 492.233C645.147 498.11 633.937 505.296 623.626 513.659C615.115 503.006 606.272 494.365 597.193 484.373C605.661 479.082 614.182 473.876 622.753 468.757C606.226 469.463 602.757 469.95 587.452 476.152C584.738 474.988 578.941 472.048 576.215 473.657L576.022 474.767C577.027 477.14 579.18 478.734 581.139 480.535C571.19 487.352 557.08 498.2 547.987 506.387C542.331 501.887 532.783 493.312 527.635 488.295C533.223 484.533 539.417 480.547 544.613 476.349C513.381 484.71 493.849 492.748 465.706 507.989C471.696 512.097 479.321 516.39 485.673 520.088C479.832 524.749 476.871 528.388 469.955 531.144C464.878 531.759 461.842 532.402 458.232 536.562C456.465 538.6 452.453 545.681 451.044 546.555C440.801 540.974 432.153 536.691 421.629 531.728C425.586 526.203 435.724 517.371 441.013 512.975Z" fill="url(#paint0_linear_4_1018)"/>
<path d="M421.629 531.728C425.586 526.203 435.724 517.371 441.013 512.975C445.124 515.101 447.358 516.471 451.12 518.84C456.058 521.95 464.854 530.301 469.955 531.144C464.878 531.759 461.842 532.402 458.232 536.562C456.465 538.6 452.453 545.681 451.044 546.555C440.801 540.974 432.153 536.691 421.629 531.728Z" fill="#BCDCC1"/>
<path d="M663.785 574.005C669.374 568.463 674.637 562.367 680.387 556.754C688.198 549.131 694.892 543.717 703.636 537.265C713.602 547.873 722.552 559.961 731.698 571.303C732.902 572.796 733.987 574.326 735.018 575.945C724.843 583.604 718.658 588.794 709.385 597.578C695.538 592.5 689.959 590.874 675.612 588.36C671.272 584.169 667.35 578.859 663.785 574.005Z" fill="#F1EFCD"/>
<path d="M590.588 570.805C599.129 557.319 610.727 540.855 622.185 529.696C631.842 541.002 644.872 560.824 653.226 573.389C651.035 577.324 646.837 582.78 644.163 587.168C631.202 588.391 618.252 590.138 606.275 595.802C602.399 591.304 594.041 576.643 590.588 570.805Z" fill="url(#paint1_linear_4_1018)"/>
<path d="M547.305 530.849C557.647 542.758 566.82 557.579 576.726 569.958C574.677 574.499 558.114 606.274 555.43 607.453C555.322 607.501 555.209 607.533 555.097 607.574L547.486 605.777C543.619 601.486 538.662 593.485 535.36 588.396C530.782 581.34 525.594 573.764 521.319 566.598C530.323 554.205 537.228 543.015 547.305 530.849Z" fill="#BCDCC1"/>
<path d="M745.915 517.536C755.207 524.619 773.162 543.39 778.65 553.578C766.257 557.802 753.757 564.553 742.501 571.21C735.953 566.309 715.704 539.927 711.308 532.447C723.334 526.575 733.517 522.438 745.915 517.536Z" fill="#F1EFCD"/>
<path d="M478.895 534.021C486.535 545.601 494.884 555.906 503.315 566.906C501.896 569.296 497.316 577.437 495.447 578.875C485.076 569.73 475.953 562.273 464.442 554.749C467.755 549.066 474.491 538.99 478.895 534.021Z" fill="#BCDCC1"/>
<path d="M583.693 582.351C587.134 588.265 590.526 594.209 593.866 600.18C587.397 602.341 579.915 605.697 573.819 607.563C573.25 607.27 572.772 607.204 572.815 606.683C573.303 600.728 580.972 587.206 583.693 582.351Z" fill="#BCDCC1"/>
<path d="M663.403 497.904C668.234 499.564 693.792 526.675 698.955 532.12C685.491 541.798 674.446 552.355 662.683 563.948C661.206 565.266 661.72 565.185 660.032 565.49C655.875 562.726 632.694 528.134 628.878 522.343C637.814 513.804 652.483 503.688 663.403 497.904Z" fill="#F1EFCD"/>
<path d="M588.349 490.734C594.463 495.297 610.613 514.13 615.853 520.848C601.199 535.461 595.673 542.047 583.949 558.722C579.955 555.586 560.183 525.788 556.23 520.171C565.282 508.692 576.128 498.752 588.349 490.734Z" fill="#F1EFCD"/>
<path d="M499.583 511.158C504.374 506.2 512.404 499.423 517.883 494.935C524.693 500.527 534.985 510.428 540.736 517.076C534.73 523.643 529.454 529.402 523.897 536.364C520.241 542.455 515.329 548.223 511.352 555.095C504.156 545.121 494.623 533.43 486.691 524.117C490.552 520.009 495.537 514.979 499.583 511.158Z" fill="#BCDCC1"/>
<path d="M499.583 511.158C504.374 506.2 512.404 499.423 517.883 494.935C524.693 500.527 534.985 510.428 540.736 517.076C534.73 523.643 529.454 529.402 523.897 536.364C519.836 532.829 520.739 525.802 517.288 522.669C511.287 517.222 505.483 518.12 499.583 511.158Z" fill="#FEFEFE"/>
<path d="M696.28 484.039C701.11 483.533 736.224 509.046 741.905 513.492C732.678 516.4 724.678 518.955 715.832 522.805C712.811 524.033 709.979 525.632 707.107 527.177C695.524 516.821 683.739 504.785 672.764 493.731C680.113 490.973 689.102 487.207 696.28 484.039Z" fill="#FEFEFE"/>
<path d="M657.99 580.946C659.59 582.123 662.096 583.781 662.202 585.906C660.988 587.026 661.368 586.667 659.185 586.691C657.378 586.731 655.791 586.962 654.176 586.258L654.05 585.465C655.358 583.875 656.616 582.465 657.99 580.946Z" fill="#85B6A1"/>
<path d="M225.295 672.215C244.385 624.633 278.717 586.437 326.188 566.125C364.766 549.644 408.34 549.334 447.149 565.262C500.909 586.868 536.951 630.509 555.824 684.344C546.46 681.6 532.988 677.597 523.436 676.427C520.408 675.908 516.685 675.703 514.12 675.189L481.023 669.009C478.254 668.249 472.723 668.531 469.492 667.267L468.98 667.163C467.365 667.153 463.51 666.511 461.717 666.252C443.61 663.423 429.528 662.044 411.332 661.011C407.328 660.642 403.229 660.619 399.203 660.532C384.637 660.137 370.07 659.825 355.501 659.598C350.697 660.045 343.428 660.144 338.53 660.001C326.782 660.244 315.041 660.813 303.323 661.706C300.249 662.288 296.635 662.505 293.489 662.774C276.954 664.185 260.436 666.607 244.045 669.19C237.63 669.85 231.619 671.034 225.295 672.215Z" fill="#6DAE9F"/>
<path d="M225.295 672.215C244.385 624.633 278.717 586.437 326.188 566.125C364.766 549.644 408.34 549.334 447.149 565.262C500.909 586.868 536.951 630.509 555.824 684.344C546.46 681.6 532.988 677.597 523.436 676.427C519.795 670.902 516.701 661.826 512.687 655.38C510.817 654.413 509.907 652.407 509.417 650.458C505.724 641.929 491.48 622.191 485.771 614.084C487.948 612.998 491.762 611.648 490.474 608.768C487.393 606.998 485.281 607.917 481.734 608.637C466.327 593.028 453.534 579.338 431.924 573.043C435.206 576.304 438.193 578.223 442.046 580.667C432.798 582.314 424.221 585.399 415.38 588.45C409.125 584.813 399.038 575.298 393.742 570.296C375.537 569.705 365.762 574.016 350.667 583.741C347.693 581.263 343.297 578.556 339.963 576.654C325.124 581.851 312.523 589.067 299.918 598.287C311.456 603.35 314.498 605.936 327.073 605.791C326.934 606.225 326.798 606.66 326.665 607.097C325.348 611.392 324.949 612.529 327.028 616.403L326.055 617.626C322.538 620.148 321.091 621.337 318.012 624.369C310.096 614.457 302.058 610.297 289.589 607.685C271.827 620.141 250.527 648.69 244.045 669.19C237.63 669.85 231.619 671.034 225.295 672.215Z" fill="url(#paint2_linear_4_1018)"/>
<path d="M509.417 650.458C512.868 649.248 515.197 647.981 518.704 648.87L519.789 649.808C519.757 653.124 515.379 654.323 512.687 655.38C510.817 654.413 509.907 652.407 509.417 650.458Z" fill="#85B6A1"/>
<path d="M445.564 628.313C455.276 622.415 467.077 617.957 477.666 613.876C486.552 623.604 494.739 636.47 501.888 647.562L503.965 651.209C505.861 652.894 506.105 653.763 507.096 656.021C510.184 661.691 512.013 665.475 514.615 671.443L515.3 674.179C514.683 675.084 515.111 674.798 514.12 675.189L481.023 669.009C478.254 668.249 472.723 668.531 469.492 667.267L468.98 667.163C461.048 655.382 453.293 640.688 445.564 628.313Z" fill="#F1EFCD"/>
<path d="M481.023 669.009C484.932 665.552 501.639 658.587 507.096 656.021C510.184 661.691 512.013 665.475 514.615 671.443L515.3 674.179C514.683 675.084 515.111 674.798 514.12 675.189L481.023 669.009Z" fill="#F1EFCD"/>
<path d="M503.965 651.209C505.861 652.894 506.105 653.763 507.096 656.021C501.639 658.587 484.931 665.552 481.023 669.009C478.254 668.249 472.723 668.531 469.492 667.267C472.26 667.751 498.545 653.489 503.965 651.209Z" fill="#85B6A1"/>
<path d="M352.544 594.49C357.285 598.515 366.941 610.785 370.578 616.078C360.28 627.068 355.623 632 346.742 644.252C340.187 635.116 333.288 626.235 326.055 617.626L327.028 616.403C331.535 615.412 347.247 598.949 352.544 594.49Z" fill="#BCDCC1"/>
<path d="M439.972 631.836C444.495 637.921 459.895 659.666 461.717 666.252C443.609 663.423 429.527 662.044 411.332 661.011C415.145 651.446 431.441 637.758 439.972 631.836Z" fill="#F1EFCD"/>
<path d="M355.501 659.598C357.068 651.174 371.81 633.108 377.899 626.551C385.148 636.262 393.449 649.83 399.202 660.532C384.637 660.137 370.069 659.825 355.501 659.598Z" fill="#F1EFCD"/>
<path d="M320.742 628.623C326.006 636.624 336.267 651.137 338.53 660.001C326.782 660.244 315.041 660.813 303.323 661.706C305.156 652.293 315.287 637.161 320.742 628.623Z" fill="#BCDCC1"/>
<path d="M501.888 647.562C506.772 649.37 508.244 653.321 510.326 657.794C511.672 660.688 514.992 668.375 514.615 671.443C512.013 665.475 510.184 661.691 507.096 656.021C506.105 653.763 505.861 652.894 503.965 651.209L501.888 647.562Z" fill="#85B6A1"/>
<path d="M411.764 597.339C419.379 603.974 430.68 617.949 436.479 626.314C424.143 633.852 418.204 640.145 407.663 650.057C406.554 650.899 407.151 650.717 405.856 650.745C402.255 647.721 388.005 624.829 384.502 619.408C393.937 610.636 401.043 604.407 411.764 597.339Z" fill="#F1EFCD"/>
<path d="M443.796 585.754C450.937 584.646 468.395 603.535 474.012 608.886C464.382 611.812 456.46 615.471 447.441 619.834C446.229 620.435 444.093 621.245 442.775 621.797C436.095 615.134 425.299 601.303 418.919 593.517C426.227 590.303 436.077 587.613 443.796 585.754Z" fill="#FEFEFE"/>
<path d="M385.118 573.758L386.783 573.784C392 576.311 402.063 587.011 406.352 591.513C395.611 597.152 388.541 601.935 378.96 609.301L378.524 609.501C377.438 609.041 361 591.883 358.645 589.505C367.127 583.705 376.166 578.795 385.118 573.758Z" fill="#F1EFCD"/>
<path d="M652.604 709.75C658.418 687.896 666.862 666.83 679.791 648.186C703.342 614.777 739.055 591.943 779.255 584.592C819.542 577.391 861.041 586.36 894.763 609.554C919.158 626.74 937.988 650.694 948.931 678.461C951.77 685.498 954.53 693.406 955.842 700.882C950.099 699.646 944.335 698.508 938.553 697.464C935.876 697.102 933.049 696.772 930.419 696.219C916.838 693.555 903.131 691.579 889.351 690.298C882.08 689.398 873.876 689.342 866.414 688.853C858.866 687.949 849.28 687.712 841.687 687.639C832.947 688.282 816.09 687.58 806.257 687.723C797.224 687.794 788.542 688.441 779.567 688.793C775.573 689.449 756.323 691.265 751.731 691.446C742.625 692.52 729.176 693.829 720.435 695.706C701.933 698.592 684.987 702.873 666.97 706.817C662.067 707.464 657.416 708.632 652.604 709.75Z" fill="url(#paint3_linear_4_1018)"/>
<path d="M652.604 709.75C658.418 687.896 666.862 666.83 679.791 648.186C703.342 614.777 739.055 591.943 779.255 584.592C819.542 577.391 861.041 586.36 894.763 609.554C919.158 626.74 937.988 650.694 948.931 678.461C951.77 685.498 954.53 693.406 955.842 700.882C950.099 699.646 944.335 698.508 938.553 697.464C935.876 697.102 933.049 696.772 930.419 696.219C931.017 695.809 930.75 696.006 931.107 695.172C929.007 686.665 920.816 673.233 915.829 665.959C915.44 664.757 914.122 662.8 913.411 661.649C912.895 661.098 913.063 661.279 912.77 660.536C905.509 650.316 894.574 634.462 884.65 626.933L883.747 626.67C884.342 625.865 883.971 626.222 885.386 625.982C888.681 628.94 893.334 630.376 895.792 625.672L894.882 624.656C886.664 623.043 880.808 616.603 873.717 612.211C867.525 608.377 860.954 603.932 854.179 601.187L853.489 600.912L853.548 600.244C851.675 599.787 851.784 599.456 850.569 600.151C851.868 603.111 877.694 620.593 882.191 623.844C870.507 626.897 861.934 629.438 851.463 635.859C843.116 627.649 834.644 619.566 826.051 611.615C833.227 607.575 840.762 604.77 847.788 600.755C836.627 602.276 830.496 603.669 819.879 607.591C815.711 604.951 802.641 596.301 797.819 597.721C797.534 600.992 810.255 608.668 813.326 610.701C804.594 616.981 796.128 623.623 787.95 630.609C782.361 626.085 774.684 620.264 769.5 615.666C776.658 608.547 783.757 604.151 790.722 597.859C775.465 600.827 772.877 601.952 759.426 609.822C756.863 608.369 754.311 606.897 751.769 605.407C735.757 612.725 724.657 619.622 711.332 631.528C718.654 634.183 734.114 637.98 738.224 643.716C738.103 644.967 738.068 647.569 737.475 648.401C733.775 650.725 732.38 651.981 729.81 655.555C721.37 645.999 715.111 642.767 701.926 641.732C685.21 654.226 672.418 687.293 666.97 706.817C662.067 707.464 657.416 708.632 652.604 709.75Z" fill="url(#paint4_linear_4_1018)"/>
<path d="M913.411 661.649C914.083 660.67 914.512 660.007 915.105 658.981L917.77 659.262C920.268 659.124 923.722 658.687 925.928 659.612L926.528 660.392C925.92 662.19 924.401 662.834 922.739 663.658C922.318 663.869 921.895 664.075 921.471 664.277C927.222 674.507 934.392 686.628 938.553 697.465C935.875 697.102 933.049 696.772 930.418 696.219C931.016 695.809 930.75 696.006 931.107 695.172C929.007 686.665 920.815 673.234 915.829 665.959C915.44 664.757 914.122 662.8 913.411 661.649Z" fill="#6DAE9F"/>
<path d="M884.65 626.934L883.746 626.67C884.342 625.865 883.971 626.222 885.386 625.982C888.681 628.94 893.334 630.376 895.792 625.672L894.882 624.656C886.664 623.043 880.808 616.603 873.717 612.211C867.525 608.377 860.954 603.932 854.179 601.187L853.489 600.912L853.548 600.244C861.232 602.455 870.833 609.312 877.578 613.739C881.778 616.497 887.516 621.845 892.074 622.948C894.017 623.418 895.52 623.666 896.975 624.959L897.191 626.045C896.118 627.533 894.782 628.028 893.136 628.911C902.033 637.748 910.135 649.149 917.77 659.262L915.105 658.981C914.512 660.007 914.083 660.67 913.411 661.649C912.895 661.098 913.063 661.279 912.77 660.536C905.508 650.316 894.574 634.463 884.65 626.934Z" fill="#85B6A1"/>
<path d="M855.38 642.074C868.105 632.336 871.223 633.224 884.65 626.934C894.573 634.463 905.508 650.316 912.77 660.536C913.062 661.279 912.895 661.098 913.411 661.649C914.121 662.8 915.439 664.757 915.829 665.959C920.815 673.234 929.007 686.665 931.107 695.172C930.75 696.006 931.016 695.809 930.418 696.219C916.838 693.555 903.131 691.579 889.351 690.298C888.443 688.465 886.252 685.012 885.137 683.12C882.267 681.908 882.371 681.009 881.425 678.22C872.737 665.554 864.357 654.406 855.38 642.074Z" fill="#F1EFCD"/>
<path d="M885.137 683.12C886.795 682.114 888.539 680.707 890.208 679.604C898.346 674.223 907.049 670.183 915.829 665.959C920.815 673.234 929.007 686.665 931.107 695.172C930.75 696.006 931.016 695.809 930.418 696.219C916.838 693.555 903.131 691.579 889.351 690.298C888.443 688.465 886.252 685.012 885.137 683.12Z" fill="#F1EFCD"/>
<path d="M912.77 660.536C913.062 661.279 912.895 661.098 913.411 661.649C914.122 662.8 915.44 664.757 915.829 665.959C907.049 670.183 898.346 674.223 890.208 679.604C888.539 680.707 886.795 682.114 885.137 683.12C882.267 681.908 882.371 681.009 881.425 678.22C891.896 670.982 901.398 666.271 912.77 660.536Z" fill="#85B6A1"/>
<path d="M849.571 645.202C859.167 656.854 868.145 669.002 876.469 681.593C873.094 683.98 869.742 686.4 866.414 688.853C858.866 687.949 849.28 687.712 841.687 687.64C838 687.384 834.796 687.329 831.122 687.305C828.053 683.524 825.737 680.106 822.999 676.088C832.915 661.106 836.119 657.171 849.571 645.202Z" fill="#F1EFCD"/>
<path d="M763.138 621.348C769.501 626.671 775.522 632.389 781.165 638.47C773.454 650.222 767.171 658.871 760.767 671.434C755.021 665.209 743.986 652.906 737.475 648.401C738.068 647.569 738.103 644.967 738.224 643.716L738.7 647.153C741.126 646.623 752.44 632.267 755.001 629.466C757.6 626.648 760.314 623.94 763.138 621.348Z" fill="#BCDCC1"/>
<path d="M789.623 647.732C797.755 656.585 805.377 667.071 812.34 676.893C810.357 680.566 808.126 683.896 806.257 687.723C797.223 687.794 788.542 688.441 779.566 688.793C772.797 689.118 772.982 688.226 769.148 682.469C774.342 671.363 782.264 657.588 789.623 647.732Z" fill="#BCDCC1"/>
<path d="M720.435 695.706L720.069 694.955C720.043 688.424 731.067 663.871 734.48 657.939C740.354 664.517 749.798 676.025 754.998 683.259L751.731 691.446C742.624 692.52 729.176 693.829 720.435 695.706Z" fill="#BCDCC1"/>
<path d="M819.494 615.834C824.071 618.661 841.823 636.027 845.786 640.341C834.102 650.984 829.988 655.567 820.042 667.903C818.93 669.236 819.592 668.927 818.213 669.246C815.497 666.543 809.542 657.888 806.909 654.402C803.635 650.063 797.882 643.305 795.248 638.989C804.292 628.332 808.105 624.336 819.494 615.834Z" fill="#F1EFCD"/>
<path d="M621.345 600.123C622.246 600.103 652.669 611.318 655.007 612.603C657.096 613.751 659.576 615.444 660.167 617.896C663.718 632.636 603.77 638.542 596.835 651.852C596.161 653.146 596.104 654.418 596.61 655.784C599.446 663.45 621.511 670.534 628.955 674.216C634.801 677.11 643.717 681.639 645.765 688.392C653.482 713.834 571.405 735.293 558.529 759.934C556.777 763.286 556.193 766.982 557.445 770.614C559.006 775.14 562.857 778.625 566.71 781.243C582.448 791.938 616.975 801.507 636.281 808.546C644.997 811.687 653.476 815.451 661.652 819.809C634.942 834.002 609.739 848.228 587.775 869.458C583.907 865.945 580.598 863.045 576.517 859.789C544.967 834.39 501.318 811.095 463.481 797.251C456.109 794.543 448.667 792.031 441.163 789.717C434.52 787.737 427.086 785.956 420.768 783.246C420.105 782.261 419.692 781.475 419.446 780.3C415.204 760.03 455.814 743.653 470.43 738.066C495.202 728.597 567.191 710.214 579.745 689.416C588.008 675.726 557.929 669.047 555.336 656.763C551.292 637.601 608.437 627.333 620.875 622.431C622.867 621.646 625.655 620.401 626.676 618.43C627.227 617.366 627.192 616.2 626.718 615.113C624.31 609.592 610.959 606.143 605.496 604.132C610.95 602.62 615.821 601.326 621.345 600.123Z" fill="#26BCD7"/>
<path d="M593.71 778.82C588.75 776.805 576.361 771.795 577.807 764.386C578.151 762.626 578.894 761.596 580.545 760.811C585.385 758.509 590.619 756.79 595.677 754.984C609.92 749.818 624.307 745.059 638.821 740.714C727.469 714.33 815.907 703.698 907.601 717.502C927.618 720.515 943.153 722.563 963.023 727.465L969.813 729.202C940.193 736.828 902.974 743.735 872.465 744.923C848.835 745.843 829.14 744.336 804.627 746.468C740.507 752.043 685.124 768.434 625.814 791.777C614.892 787.798 604.488 782.997 593.71 778.82Z" fill="#C6D680"/>
<path d="M963.023 727.465L969.814 729.202C940.193 736.828 902.974 743.735 872.465 744.923C848.835 745.843 829.14 744.336 804.627 746.468C740.507 752.043 685.124 768.434 625.814 791.777C614.892 787.799 604.488 782.997 593.71 778.82C595.857 778.412 610.77 772.86 613.719 771.862C624.395 768.344 635.175 765.152 646.045 762.29C691.453 749.612 737.768 740.442 784.58 734.86C823.738 730.341 863.125 728.094 902.542 728.129C913.163 728.055 923.783 728.208 934.397 728.585C942.827 728.84 954.483 729.394 962.786 728.42L963.023 727.465Z" fill="#A7C56F"/>
<path d="M282.351 710.716C293.304 700.853 307.934 693.558 320.443 685.75C324.873 682.986 341.611 683.067 347.602 682.885C393.356 681.497 440.028 684.567 485.214 692.004C501.391 694.668 524.694 698.499 540.351 703.088C536.141 704.655 532.399 706.15 528.009 707.173C522.413 709.168 516.433 710.754 510.67 712.272C480.73 720.153 451.896 729.208 424.824 744.574C416.087 741.771 407.326 739.04 398.543 736.382L390.214 733.872C406.378 721.46 424.059 711.159 442.827 703.218C450.061 700.163 461.169 696.55 467.619 693.446L468.158 693.183C463.969 693.311 458.768 693.968 454.537 694.419C437.258 697.87 417.587 706.343 402.621 715.707C394.815 720.591 387.703 726.201 380.199 731.116C369.455 728.399 357.588 725.27 346.686 723.261L338.895 721.611C352.693 708.015 373.73 696.584 390.567 687.443C385.826 688.245 381.076 688.991 376.318 689.682C358.665 696.59 342.506 706.829 328.719 719.841C319.037 718.094 309.331 716.48 299.605 715C296.623 714.557 282.992 713.253 281.502 711.791C281.89 711.149 281.802 711.079 282.351 710.716Z" fill="#C6D680"/>
<path d="M398.542 736.382C411.3 731.277 420.006 722.697 432.065 716.101C443.839 709.661 461.528 700.574 475.138 700.169C482.866 699.939 497.256 702.154 504.901 703.48C511.408 704.609 522.067 705.521 528.009 707.173C522.413 709.168 516.433 710.754 510.67 712.272C480.73 720.153 451.896 729.208 424.824 744.574C416.087 741.771 407.326 739.04 398.542 736.382Z" fill="#A7C56F"/>
<path d="M346.686 723.261C351.547 719.175 358.869 715.221 363.443 711.211C394.204 684.252 416.568 692.659 454.537 694.419C437.258 697.87 417.587 706.343 402.621 715.707C394.815 720.591 387.703 726.201 380.199 731.116C369.455 728.399 357.588 725.27 346.686 723.261Z" fill="#A7C56F"/>
<path d="M282.351 710.716C288.473 713.72 311.488 694.92 320.518 693.13C335.419 690.177 361.855 687.269 376.318 689.682C358.665 696.59 342.506 706.829 328.719 719.841C319.037 718.094 309.331 716.48 299.605 715C296.623 714.557 282.992 713.253 281.502 711.791C281.89 711.149 281.802 711.079 282.351 710.716Z" fill="#A7C56F"/>
<path d="M149.647 546.196C162.921 537.229 177.455 530.289 192.77 525.601C245.915 508.858 303.544 514.048 352.845 540.017C333.335 544.919 321.816 549.663 303.396 557.51C268.216 544.03 222.686 543.725 185.675 545.771L185.37 546.37C188.771 547.35 193.17 546.565 196.746 547.135C223.161 547.013 268.706 553.991 293.041 563.839C279.789 572.635 272.271 578.295 259.797 588.196C241.735 576.411 213.257 565.131 192.391 559.322C181.697 556.345 170.49 555.72 160.309 552.231C157.993 551.438 151.983 547.629 149.647 546.196Z" fill="url(#paint5_linear_4_1018)"/>
<path d="M196.746 547.135C194.458 547.34 179.596 547.531 178.798 546.404L179.814 546.251L180.053 546.667L180.359 546.189C182.068 545.997 183.946 545.898 185.675 545.771L185.37 546.37C188.771 547.35 193.17 546.565 196.746 547.135Z" fill="#8BB46E"/>
<path d="M200.802 725.401C262.671 723.521 351.032 737.842 409.748 757.984C406.402 762.421 403.504 766.535 402.472 772.118C402.167 773.77 402.391 775.855 401.783 777.15L400.464 776.949C390.562 773.302 374.613 768.757 364.346 765.74C332.743 756.15 300.571 748.549 268.018 742.98C245.976 739.372 223.971 738.342 201.855 735.88C196.629 735.297 189.936 732.837 189.496 726.676C191.108 725.066 198.18 725.441 200.802 725.401Z" fill="#A7C56F"/>
<path d="M978.518 467.8C995.972 466.865 1002.41 477.175 1004.21 492.987C1005.7 494.198 1007.63 495.717 1008.94 497.041C1019.85 508.034 1006.27 523.326 996.009 528.463C991.652 530.643 986.256 531.593 981.553 532.597C981.507 537.684 982.1 543.793 978.718 547.633C977.251 547.392 974.981 547.278 973.96 546.195C971.026 543.093 971.782 536.357 971.773 532.337C959.102 529.864 946.114 525.912 943.316 511.917C940.316 496.905 951.437 491.015 959.893 482.672C968.337 474.344 964.144 470.773 978.518 467.8Z" fill="#A7C56F"/>
<path d="M955.297 555.613C967.289 554.247 982.319 557.41 993.885 560.514C988.781 566.485 982.264 573.823 977.734 580.107C971.117 589.29 965.128 600.548 959.76 610.568C951.396 606.088 941.911 605.623 932.584 605.106C940.14 596.41 950.881 588.619 960.209 582.058C963.862 579.451 966.733 577.364 970.196 574.46C952.935 579.993 939.592 589.501 925.622 600.617C916.704 593.731 909.464 588.711 900.099 582.575C913.186 567.932 935.837 557.462 955.297 555.613Z" fill="#A7C56F"/>
<path d="M644.53 799.132C692.89 780.858 730.687 770.574 781.473 760.81L781.994 760.985C784.107 761.683 784.649 761.805 786.908 762.067L787.065 762.64L786.855 762.887L790.508 762.968C783.766 765.869 776.49 768.044 769.58 770.966C737.775 784.499 706.221 798.617 674.935 813.312C669.922 810.526 665.209 808.161 660.059 805.626L644.53 799.132Z" fill="#A7C56F"/>
<path d="M786.856 762.886L790.508 762.968C783.766 765.869 776.491 768.044 769.581 770.966C737.775 784.499 706.222 798.617 674.935 813.312C669.922 810.526 665.209 808.161 660.059 805.626C661.975 804.582 677.622 798.701 680.684 797.472C715.422 783.526 751.186 774.14 786.856 762.886Z" fill="#8BB46E"/>
<path d="M311.187 684.859C312.521 684.738 312.677 684.625 313.959 685.085C312.753 686.944 305.698 689.273 303.347 690.134C290.235 694.942 279.67 702.431 269.086 711.307C252.626 708.566 224.05 708.162 206.731 707.688L199.368 707.519C226.675 693.142 279.662 687.145 311.187 684.859Z" fill="#C6D680"/>
<path d="M173.138 566.636C189.883 566.523 215.064 575.975 229.494 584.158L217.121 589.266C209.927 592.514 202.455 596.775 195.677 600.802C188.075 587.749 182.346 578.827 173.138 566.636Z" fill="#A7C56F"/>
<path d="M781.474 760.81C790.81 759.001 805.584 756.036 814.908 755.791C812.394 756.85 793.37 762.525 790.508 762.968L786.856 762.886L787.065 762.64L786.909 762.067C784.649 761.805 784.108 761.683 781.994 760.985L781.474 760.81Z" fill="#8BB46E"/>
<path d="M600.462 101H556.212C548.027 102.225 537.115 102.417 528.541 103.346C510.987 105.375 493.545 108.289 476.283 112.076C369.985 135.841 275.729 196.947 210.629 284.302C193.039 308.096 171.795 344.579 162.905 372.691C162.905 372.691 139 426 197 469C281 521.5 412.513 483.196 417.632 480.324C463.067 450.763 509.782 435.957 562.825 427.749C580.333 426.505 595.456 424.453 613.548 424.208C660.469 423.572 713.07 432.22 756.927 449.261C771.591 454.898 798.554 467.885 812.336 476.639C871.002 530.5 965.511 454.734 979.265 440C997.002 421 1000.95 399 997.002 372C995.99 365.089 992.502 356.5 988.635 348.096L988.58 347.576C986.639 342.67 982.118 335.485 979.265 330.828C970.232 316.192 960.615 301.927 950.433 288.068C884.179 196.852 786.264 133.668 675.871 110.897C660.291 107.618 644.555 105.123 628.725 103.421C620.372 102.592 608.801 102.313 600.973 101.085L600.462 101Z" fill="#1F4269"/>
<path d="M261.688 468.498C261.786 460.742 263.896 454.642 269.704 449.336C275.868 443.706 286.266 437.03 294.813 437.284C306.946 437.764 307.474 446.265 310.953 455.308C312.09 458.262 317.584 461.95 319.35 465.392C323.031 472.573 316.582 480.313 311.083 484.498C305.157 487.563 302.045 488.069 295.602 489.43C295.046 493.811 294.684 501.041 291.686 504.104C286.996 505.12 285.876 492.109 285.302 488.726C272.537 485.635 262.822 483.742 261.688 468.498Z" fill="#A7C56F"/>
<path d="M757.99 177.235C756.853 182.008 754.269 195.549 747.669 195.153C741.973 194.518 737.48 189.925 732.346 187.668C729.178 186.275 725.646 186.7 722.787 185.311C716.061 182.043 719.38 175.358 722.635 171.027C728.271 163.526 735.581 157.619 741.241 150.256C763.12 159.838 783.403 169.269 804.113 181.367C873.842 222.355 931.084 281.58 969.686 352.674C966.149 355.668 962.558 358.781 958.922 361.64C948.052 344.592 945.172 332.909 923.148 326.746C921.308 327.644 919.414 328.366 918.022 329.811C916.584 335.883 931.965 339.32 929.495 349.684C925.752 365.391 900.341 370.604 887.256 372.518C881.085 362.583 852.581 300.754 839.633 308.59C837.143 316.978 875.424 381.137 882.728 387.75C890.93 389.344 897.333 387.561 905.41 385.828C893.391 422.961 877.905 418.336 859.619 445.803C849.737 460.646 853.889 472.501 837.79 491.818L837.418 491.982C836.177 490.806 835.902 488.888 835.263 487.295C830.491 475.406 823.321 471.598 811.333 476.639C797.551 467.885 770.589 454.898 755.925 449.261C755.926 444.286 756.12 438.022 755.53 433.194C755.227 421.183 754.005 405.781 744.747 397.067C732.049 385.116 713.51 392.48 698.775 395.293C689.352 397.092 679.206 398.185 669.578 397.907C654.885 389.238 639.231 369.087 630.667 354.506C634.347 342.524 633.939 329.836 637.39 319.099C638.214 316.537 639.322 314.827 641.065 312.796C646.153 306.865 652.506 302.105 657.879 296.426C664.759 289.157 670.634 280.708 678.038 273.982C682.619 269.822 735.395 264.342 742.831 264.947C745.272 265.146 746.953 265.921 748.509 267.885C751.404 271.536 751.711 276.562 754.052 280.451C758.392 287.663 775.826 293.959 783.822 296.845C789.539 294.307 794.851 291.655 800.455 289.085C812.773 295.067 848.064 311.86 839.504 281.017C837.723 274.6 819.383 278.198 815.504 273.05C806.492 263.012 805.537 249.66 792.749 267.066L792.465 266.737C789.618 263.386 787.369 259.695 784.359 256.193C776.981 247.612 767.79 241.823 757.766 236.838C761.718 240.456 775.043 251.83 773.639 257.372C768.01 260.166 748.049 242.818 742.495 238.895C736.432 239.056 727.826 239.111 722.824 241.881C709.185 249.447 703.765 264.353 685.395 263.076C680.151 262.712 678.201 262.877 673.146 258.966C666.803 254.059 667.245 237.143 675.752 234.614C680.224 233.286 698.798 237.912 700.649 229.281C701.463 224.301 692.755 217.02 689.183 214.054C706.495 212.126 715.692 204.387 731.626 200.151C735.18 200.193 741.121 201.273 744.373 201.592C749.905 202.135 762.407 201.475 765.986 196.349C771.086 189.042 765.126 179.775 757.99 177.235Z" fill="#F1EFCD"/>
<path d="M259.988 255.465C276.59 230.811 333.596 191.033 360.4 176.136C436.318 134 522.795 114.721 609.416 120.621C623.575 121.682 646.089 124.026 659.792 127.933C659.754 128.031 659.715 128.129 659.677 128.228L659.476 128.715C651.647 148.207 637.945 150.635 619.549 154.402C609.83 156.756 598.01 158.648 588.888 162.809C577.381 168.057 574.561 183.003 559.08 172.278C544.415 162.118 561.119 145.189 558.996 134.673C558.629 132.761 557.469 131.095 555.805 130.086C546.094 124.307 501.754 135.705 489.418 137.841C477.801 139.853 475.677 144.346 470.158 153.4C460.657 157.536 418.374 162.88 415.726 172.501C416.882 177.154 431.139 180.462 436.293 185.199C436.589 187.707 436.727 191.635 438.385 193.439C446.41 193.809 462.946 173.687 469.105 169.094C474.347 165.185 478.969 163.334 484.991 161.079C492.217 165.101 525.685 184.937 526.716 193.532C528.196 205.877 491.583 206.093 482.439 206.399C484.78 210.347 490.858 217.873 491.977 221.493C486.976 229.273 477.177 223.233 470.129 224.16C465.124 224.818 459.011 228.431 454.529 230.79C443.357 236.667 399.797 266.383 393.72 276.224C388.879 284.063 387.481 294.913 384.735 303.703C380.341 294.206 377.358 287.866 369.332 280.857C357.128 281.02 345.121 282.072 332.668 282.092C317.707 290.644 304.973 309.771 313.206 327.134C319.918 341.287 343.846 315.794 350.551 317.923C352.097 320.372 350.536 332.432 350.3 336.342C379.828 342.121 355.4 355.643 374.103 365.419C387.809 372.583 400.539 357.966 411.982 352.988C421.607 348.8 429.261 352.34 438.571 355.565C447.635 358.174 454.923 358.153 463.405 363.639C473.677 370.283 485.206 375.322 495.064 382.668C499.727 386.111 504.652 394.553 510.016 396.637C537.224 407.21 549.498 395.481 561.823 427.749C508.78 435.957 462.065 450.763 416.63 480.324C403.267 466.834 377.973 443.191 370.672 429.839C359.843 410.034 412.348 379.37 363.971 372.725C361.275 372.355 353.128 366.501 351.117 364.296C334.452 346.038 318.15 343.425 295.527 337.891C280.534 334.024 279.294 316.829 276.321 303.431C274.69 296.102 272.38 288.94 269.424 282.038C266.3 290.879 263.12 300.402 259.647 309.058L259.988 255.465Z" fill="#F1EFCD"/>
<path d="M686.113 183.948C696.256 192.296 713.298 208.876 688.114 211.38C683.235 204.52 682.745 204.443 674.777 201.113C673.279 200.488 673.074 200.026 672.729 198.816C673.721 195.527 683.11 186.926 686.113 183.948Z" fill="#F1EFCD"/>
<path d="M642.381 159.677C647.802 159.519 657.978 159.897 659.828 166.401C658.94 170.029 655.418 169.92 652.313 169.746C647.925 169.188 635.967 167.265 635.002 162.075L635.905 160.98C637.989 159.836 640.024 159.859 642.381 159.677Z" fill="#F1EFCD"/>
<path d="M512.709 147.227C526.82 147.693 518.559 157.709 511.103 159.197C507.545 158.932 504.517 159.147 502.959 155.534C503.273 151.109 508.873 148.277 512.709 147.227Z" fill="#F1EFCD"/>
<path d="M61.3713 521.077C84.4063 527.496 96.81 533.345 116.268 546.908C163.364 583.072 185.392 631.894 180.958 691.053C180.665 694.98 177.591 709.941 178.724 712.276C176.951 714.912 174.923 717.435 172.966 719.945C156.812 678.094 142.317 639.646 113.779 603.441C108.583 596.85 102.392 589.109 95.8951 583.809C100.483 595.289 108.573 609.413 114.214 620.634C130.673 653.37 149.051 688.053 158.712 723.541C151.41 721.128 144.133 718.644 136.88 716.086C132.936 714.712 127.31 712.542 123.344 711.692C106.63 701.766 88.3862 683.383 77.9072 666.934C61.9199 641.837 54.3624 607.992 54.1529 578.463C54.0338 561.664 57.7817 537.362 61.3713 521.077Z" fill="#A7C56F"/>
<path d="M982.501 714.865C982.911 711.492 979.329 695.328 978.791 689.77C970.999 608.965 1020.88 542.383 1098.21 521.243C1099.06 526.057 1099.99 530.855 1101 535.636V613.224C1092.19 652.517 1077.5 681.483 1044.74 706.567C1042.5 708.281 1037.64 712.002 1035.37 713.082C1032.69 713.088 1020.19 717.629 1016.68 718.709C1011.07 720.437 1005.4 721.97 999.673 723.306C1016.84 669.897 1039.39 632.358 1063.06 583.512C1028.22 614.795 1000.45 675.336 986.329 719.931L982.501 714.865Z" fill="#A7C56F"/>
<path d="M873.378 446.462C880.308 434.307 885.001 425.669 901.024 425.143C909.931 424.904 918.554 428.287 924.923 434.52C933.787 443.099 934.219 451.049 934.389 462.479C935.416 463.863 936.584 465.303 937.65 466.671C941.761 473.064 944.819 478.344 942.735 486.064C936.447 509.357 922.757 511.347 902.056 511.364C902.065 535.241 902.14 556.352 893.431 578.979C889.704 576.945 883.662 573.883 880.248 571.7C884.848 560.289 888.362 548.173 889.48 535.877C890.493 524.752 893.12 509.297 879.303 505.285C867.856 501.962 861.437 500.685 855.281 489.939C850.361 479.423 849.871 468.398 856.666 458.558C860.865 452.477 867.041 449.74 873.378 446.462Z" fill="#A7C56F"/>
<path d="M199.08 436.259C202.445 429.44 204.918 422.604 212.998 419.961C223.878 416.402 239.578 422.119 243.484 433.489C244.426 436.232 244.623 442 244.859 445.041C249.382 450.683 255.159 454.729 254.311 462.498C254.165 463.722 253.997 464.943 253.807 466.161C247.267 483.653 240.508 486.894 222.774 490.279C222.758 495.823 223.19 502.748 223.736 508.231C220.252 508.828 217.595 508.993 214.051 509.218C213.003 502.707 211.856 494.13 208.567 488.569C199.66 486.603 190.163 484.552 184.189 477.012C177.861 469.028 177.457 457.495 182.77 448.873C185.182 444.959 187.041 443.23 190.655 440.453C193.362 439.118 196.459 437.683 199.08 436.259Z" fill="#A7C56F"/>
<path d="M811.333 476.639C823.321 471.598 830.491 475.406 835.263 487.295C835.902 488.888 836.177 490.806 837.418 491.982C834.357 497.829 849.11 504.784 845.214 516.681C840.952 529.698 831.591 532.83 819.174 529.865C819.17 533.863 820.477 550.466 814.837 550.429C808.361 550.386 808.846 536.92 808.753 532.503C795.749 531.479 781.973 525.904 781.545 510.269C781.325 502.215 785.658 490.385 791.239 484.504C795.167 480.366 800.811 480.565 806.166 480.671C807.764 479.534 809.754 477.881 811.333 476.639Z" fill="#A7C56F"/>
<path d="M356.523 474.884C358.871 468.385 361.022 462.665 367.816 459.442C371.899 457.498 376.596 457.291 380.834 458.869C389.882 462.247 392.237 470.651 392.52 479.372C396.73 482.113 399.724 483.736 401.222 488.851C402.558 507.3 392.8 510.839 377.243 514.291C376.682 517.852 375.786 531.583 370.708 530.964C366.878 528.085 366.112 517.893 365.369 513.096C352.209 509.948 336.985 503.655 340.959 487.177C345 478.589 346.95 476.713 356.523 474.884Z" fill="#A7C56F"/>
<defs>
<linearGradient id="paint0_linear_4_1018" x1="619.089" y1="554.531" x2="635.834" y2="452.989" gradientUnits="userSpaceOnUse">
<stop stop-color="#EFEFCB"/>
<stop offset="1" stop-color="#FCFDF1"/>
</linearGradient>
<linearGradient id="paint1_linear_4_1018" x1="613.941" y1="596.308" x2="633.442" y2="534.884" gradientUnits="userSpaceOnUse">
<stop stop-color="#D3E2C8"/>
<stop offset="1" stop-color="#F9F8DA"/>
</linearGradient>
<linearGradient id="paint2_linear_4_1018" x1="389.263" y1="685.579" x2="401.583" y2="554.783" gradientUnits="userSpaceOnUse">
<stop stop-color="#F0EFC0"/>
<stop offset="1" stop-color="#FBFCF0"/>
</linearGradient>
<linearGradient id="paint3_linear_4_1018" x1="731.823" y1="751.059" x2="847.763" y2="590.589" gradientUnits="userSpaceOnUse">
<stop stop-color="#57978E"/>
<stop offset="1" stop-color="#7BBEAC"/>
</linearGradient>
<linearGradient id="paint4_linear_4_1018" x1="803.025" y1="718.679" x2="812.999" y2="582.956" gradientUnits="userSpaceOnUse">
<stop stop-color="#EFEFC0"/>
<stop offset="1" stop-color="#FBFCF2"/>
</linearGradient>
<linearGradient id="paint5_linear_4_1018" x1="224.113" y1="588.372" x2="277.302" y2="496.818" gradientUnits="userSpaceOnUse">
<stop stop-color="#84AB68"/>
<stop offset="1" stop-color="#BED578"/>
</linearGradient>
</defs>
</svg>
